<svg width="37" height="28" viewBox="0 0 37 28" fill="none" xmlns="http://www.w3.org/2000/svg">
<path d="M24.25 23.25C30.4632 23.25 35.5 18.2132 35.5 12C35.5 5.7868 30.4632 0.75 24.25 0.75C18.0368 0.75 13 5.7868 13 12C13 18.2132 18.0368 23.25 24.25 23.25Z" fill="#3E4347"/>
<path d="M31 15.8203C32.4497 15.8203 33.625 14.6451 33.625 13.1953C33.625 11.7456 32.4497 10.5703 31 10.5703C29.5503 10.5703 28.375 11.7456 28.375 13.1953C28.375 14.6451 29.5503 15.8203 31 15.8203Z" fill="#464D51"/>
<path d="M19.0391 16.875C20.2817 16.875 21.2891 15.8676 21.2891 14.625C21.2891 13.3824 20.2817 12.375 19.0391 12.375C17.7964 12.375 16.7891 13.3824 16.7891 14.625C16.7891 15.8676 17.7964 16.875 19.0391 16.875Z" fill="#464D51"/>
<path d="M21.3281 22.125C23.1921 22.125 24.7031 20.614 24.7031 18.75C24.7031 16.886 23.1921 15.375 21.3281 15.375C19.4642 15.375 17.9531 16.886 17.9531 18.75C17.9531 20.614 19.4642 22.125 21.3281 22.125Z" fill="#464D51"/>
<path d="M21.25 7.94531C22.0784 7.94531 22.75 7.27374 22.75 6.44531C22.75 5.61689 22.0784 4.94531 21.25 4.94531C20.4216 4.94531 19.75 5.61689 19.75 6.44531C19.75 7.27374 20.4216 7.94531 21.25 7.94531Z" fill="#464D51"/>
<path d="M26.125 8.32031C26.9534 8.32031 27.625 7.64874 27.625 6.82031C27.625 5.99189 26.9534 5.32031 26.125 5.32031C25.2966 5.32031 24.625 5.99189 24.625 6.82031C24.625 7.64874 25.2966 8.32031 26.125 8.32031Z" fill="#464D51"/>
<path d="M16.7891 11.2109C17.6175 11.2109 18.2891 10.5394 18.2891 9.71094C18.2891 8.88251 17.6175 8.21094 16.7891 8.21094C15.9606 8.21094 15.2891 8.88251 15.2891 9.71094C15.2891 10.5394 15.9606 11.2109 16.7891 11.2109Z" fill="#464D51"/>
<path d="M26.875 4.19531C27.2892 4.19531 27.625 3.85953 27.625 3.44531C27.625 3.0311 27.2892 2.69531 26.875 2.69531C26.4608 2.69531 26.125 3.0311 26.125 3.44531C26.125 3.85953 26.4608 4.19531 26.875 4.19531Z" fill="#464D51"/>
<path d="M15.2891 15.375C15.7033 15.375 16.0391 15.0392 16.0391 14.625C16.0391 14.2108 15.7033 13.875 15.2891 13.875C14.8748 13.875 14.5391 14.2108 14.5391 14.625C14.5391 15.0392 14.8748 15.375 15.2891 15.375Z" fill="#464D51"/>
<path d="M31.75 19.5C32.1642 19.5 32.5 19.1642 32.5 18.75C32.5 18.3358 32.1642 18 31.75 18C31.3358 18 31 18.3358 31 18.75C31 19.1642 31.3358 19.5 31.75 19.5Z" fill="#464D51"/>
<path d="M21.625 12.3359C22.2463 12.3359 22.75 11.8323 22.75 11.2109C22.75 10.5896 22.2463 10.0859 21.625 10.0859C21.0037 10.0859 20.5 10.5896 20.5 11.2109C20.5 11.8323 21.0037 12.3359 21.625 12.3359Z" fill="#464D51"/>
<path d="M17.875 6.63281C18.2892 6.63281 18.625 6.29703 18.625 5.88281C18.625 5.4686 18.2892 5.13281 17.875 5.13281C17.4608 5.13281 17.125 5.4686 17.125 5.88281C17.125 6.29703 17.4608 6.63281 17.875 6.63281Z" fill="#464D51"/>
<path d="M29.5 21.2266C30.3284 21.2266 31 20.555 31 19.7266C31 18.8981 30.3284 18.2266 29.5 18.2266C28.6716 18.2266 28 18.8981 28 19.7266C28 20.555 28.6716 21.2266 29.5 21.2266Z" fill="#464D51"/>
<path d="M21.3281 4.04805C21.3281 5.09805 22.1531 5.92305 23.2031 5.92305C24.2531 5.92305 25.0781 5.09805 25.0781 4.04805C25.0781 2.99805 24.2531 2.17305 23.2031 2.17305C22.1531 2.13555 21.3281 2.99805 21.3281 4.04805Z" fill="#464D51"/>
<g clip-path="url(#clip0_1_405)">
<path d="M12.25 28C18.8515 28 24.2031 22.6484 24.2031 16.0469C24.2031 9.44535 18.8515 4.09375 12.25 4.09375C5.64847 4.09375 0.296875 9.44535 0.296875 16.0469C0.296875 22.6484 5.64847 28 12.25 28Z" fill="#F5EB35"/>
<path d="M11.2449 27.3414C13.1557 27.3414 14.7047 25.7924 14.7047 23.8816C14.7047 21.9709 13.1557 20.4219 11.2449 20.4219C9.33414 20.4219 7.78516 21.9709 7.78516 23.8816C7.78516 25.7924 9.33414 27.3414 11.2449 27.3414Z" fill="#E0CF35"/>
<path d="M15.9658 13.1806C15.9658 13.3735 15.9277 13.5646 15.8539 13.7428C15.78 13.921 15.6717 14.083 15.5352 14.2194C15.3988 14.3558 15.2368 14.4639 15.0585 14.5377C14.8802 14.6115 14.6892 14.6495 14.4962 14.6494C14.3033 14.6494 14.1122 14.6113 13.934 14.5375C13.7558 14.4636 13.5938 14.3553 13.4574 14.2188C13.321 14.0824 13.2128 13.9204 13.139 13.7421C13.0652 13.5638 13.0273 13.3728 13.0273 13.1798C13.0274 12.7901 13.1823 12.4165 13.4579 12.141C13.7336 11.8655 14.1073 11.7108 14.497 11.7109C14.8866 11.711 15.2603 11.8659 15.5358 12.1415C15.8112 12.4171 15.9659 12.7909 15.9658 13.1806Z" fill="#E0CF35"/>
<path d="M2.48875 19.1416C3.28508 19.1416 3.93063 18.496 3.93063 17.6997C3.93063 16.9034 3.28508 16.2578 2.48875 16.2578C1.69242 16.2578 1.04688 16.9034 1.04688 17.6997C1.04688 18.496 1.69242 19.1416 2.48875 19.1416Z" fill="#E0CF35"/>
<path d="M2.62 11.9119C3.0746 11.9119 3.44313 11.5433 3.44313 11.0887C3.44313 10.6342 3.0746 10.2656 2.62 10.2656C2.1654 10.2656 1.79688 10.6342 1.79688 11.0887C1.79688 11.5433 2.1654 11.9119 2.62 11.9119Z" fill="#E0CF35"/>
<path d="M8.11381 11.3655C8.11381 11.7069 7.97818 12.0344 7.73675 12.2758C7.49532 12.5172 7.16787 12.6529 6.82644 12.6529C6.485 12.6529 6.15756 12.5172 5.91613 12.2758C5.6747 12.0344 5.53906 11.7069 5.53906 11.3655C5.53906 11.0241 5.6747 10.6966 5.91613 10.4552C6.15756 10.2138 6.485 10.0781 6.82644 10.0781C7.16787 10.0781 7.49532 10.2138 7.73675 10.4552C7.97818 10.6966 8.11381 11.0241 8.11381 11.3655Z" fill="#E0CF35"/>
<path d="M16.3366 9.96219C17.3379 9.96219 18.1497 9.15042 18.1497 8.14906C18.1497 7.1477 17.3379 6.33594 16.3366 6.33594C15.3352 6.33594 14.5234 7.1477 14.5234 8.14906C14.5234 9.15042 15.3352 9.96219 16.3366 9.96219Z" fill="#E0CF35"/>
</g>
<defs>
<clipPath id="clip0_1_405">
<rect width="24" height="24" fill="white" transform="translate(0.25 4)"/>
</clipPath>
</defs>
</svg>
