<svg xmlns="http://www.w3.org/2000/svg" xmlns:xlink="http://www.w3.org/1999/xlink" width="56" height="56" viewBox="0 0 56 56">
  <defs>
    <linearGradient id="linear-gradient" x1="0.496" y1="0.116" x2="0.563" y2="1.389" gradientUnits="objectBoundingBox">
      <stop offset="0" stop-color="#faa68e"/>
      <stop offset="0.206" stop-color="#fba682"/>
      <stop offset="0.581" stop-color="#fda861"/>
      <stop offset="1" stop-color="#ffa936"/>
    </linearGradient>
    <linearGradient id="linear-gradient-2" x1="0.587" y1="1.089" x2="0.342" y2="-0.904" gradientUnits="objectBoundingBox">
      <stop offset="0" stop-color="#f82814" stop-opacity="0"/>
      <stop offset="0.245" stop-color="#f12817" stop-opacity="0.243"/>
      <stop offset="0.605" stop-color="#dd2820" stop-opacity="0.604"/>
      <stop offset="1" stop-color="#c0272d"/>
    </linearGradient>
    <linearGradient id="linear-gradient-3" x1="0.615" y1="0.563" x2="0.364" y2="-0.243" xlink:href="#linear-gradient-2"/>
    <linearGradient id="linear-gradient-4" x1="7.904" y1="-61.605" x2="9.288" y2="-59.685" xlink:href="#linear-gradient-2"/>
    <linearGradient id="linear-gradient-5" x1="12.256" y1="-81.333" x2="13.64" y2="-79.413" xlink:href="#linear-gradient-2"/>
    <linearGradient id="linear-gradient-6" x1="13.031" y1="-136.027" x2="14.416" y2="-134.108" xlink:href="#linear-gradient-2"/>
    <linearGradient id="linear-gradient-7" x1="-28.647" y1="-71.836" x2="-27.263" y2="-69.916" xlink:href="#linear-gradient-2"/>
    <linearGradient id="linear-gradient-8" x1="-33.217" y1="-92.888" x2="-31.832" y2="-90.969" xlink:href="#linear-gradient-2"/>
    <linearGradient id="linear-gradient-9" x1="-60.66" y1="-157.617" x2="-59.275" y2="-155.697" xlink:href="#linear-gradient-2"/>
    <linearGradient id="linear-gradient-10" x1="0.5" y1="0.31" x2="0.5" y2="1.368" xlink:href="#linear-gradient-2"/>
    <linearGradient id="linear-gradient-11" x1="0.5" y1="0.096" x2="0.5" y2="1.143" gradientUnits="objectBoundingBox">
      <stop offset="0" stop-color="#a57c52"/>
      <stop offset="0.134" stop-color="#a26c4a"/>
      <stop offset="0.516" stop-color="#994336"/>
      <stop offset="0.817" stop-color="#942a2a"/>
      <stop offset="1" stop-color="#922125"/>
    </linearGradient>
    <linearGradient id="linear-gradient-12" x1="0.505" y1="0.575" x2="0.496" y2="-0.283" gradientUnits="objectBoundingBox">
      <stop offset="0" stop-color="#42210b" stop-opacity="0"/>
      <stop offset="1" stop-color="#42210b"/>
    </linearGradient>
    <linearGradient id="linear-gradient-13" x1="0.807" y1="0.937" x2="0.325" y2="0.111" xlink:href="#linear-gradient-12"/>
    <linearGradient id="linear-gradient-14" x1="0.546" y1="1.139" x2="0.493" y2="0.366" xlink:href="#linear-gradient-12"/>
    <linearGradient id="linear-gradient-15" x1="0.419" y1="0.088" x2="0.825" y2="0.781" gradientUnits="objectBoundingBox">
      <stop offset="0" stop-color="#ffd945"/>
      <stop offset="0.304" stop-color="#ffcd3e"/>
      <stop offset="0.856" stop-color="#ffad2b"/>
      <stop offset="1" stop-color="#ffa325"/>
    </linearGradient>
    <linearGradient id="linear-gradient-16" x1="0.5" y1="0.355" x2="0.5" y2="1.112" gradientUnits="objectBoundingBox">
      <stop offset="0" stop-color="#bada00"/>
      <stop offset="0.227" stop-color="#b0ce00"/>
      <stop offset="0.638" stop-color="#95ae00"/>
      <stop offset="1" stop-color="#798c00"/>
    </linearGradient>
    <linearGradient id="linear-gradient-17" x1="0.499" y1="0.861" x2="0.501" y2="0.155" gradientUnits="objectBoundingBox">
      <stop offset="0" stop-color="#798c00" stop-opacity="0"/>
      <stop offset="0.654" stop-color="#556100" stop-opacity="0.655"/>
      <stop offset="1" stop-color="#464f00"/>
    </linearGradient>
    <linearGradient id="linear-gradient-18" x1="0.577" y1="0.89" x2="0.236" y2="-0.42" xlink:href="#linear-gradient-17"/>
    <linearGradient id="linear-gradient-19" x1="0.635" y1="1.058" x2="0.345" y2="0.204" xlink:href="#linear-gradient-17"/>
    <linearGradient id="linear-gradient-20" x1="0.351" y1="0.239" x2="0.791" y2="0.788" gradientUnits="objectBoundingBox">
      <stop offset="0" stop-color="#ffdecf"/>
      <stop offset="0.379" stop-color="#fdc4b0"/>
      <stop offset="0.766" stop-color="#fbae97"/>
      <stop offset="1" stop-color="#faa68e"/>
    </linearGradient>
    <linearGradient id="linear-gradient-21" x1="0.5" y1="0.511" x2="0.5" y2="0.986" gradientUnits="objectBoundingBox">
      <stop offset="0" stop-color="#ff6359"/>
      <stop offset="0.224" stop-color="#fe5b50"/>
      <stop offset="0.595" stop-color="#fc4637"/>
      <stop offset="1" stop-color="#f82814"/>
    </linearGradient>
    <linearGradient id="linear-gradient-22" x1="0.563" y1="1.18" x2="0.414" y2="0.088" gradientUnits="objectBoundingBox">
      <stop offset="0" stop-color="#f82814" stop-opacity="0"/>
      <stop offset="1" stop-color="#c0272d"/>
    </linearGradient>
    <linearGradient id="linear-gradient-23" x1="0.607" y1="1.091" x2="0.531" y2="0.537" xlink:href="#linear-gradient-22"/>
    <linearGradient id="linear-gradient-26" x1="0.637" y1="1.203" x2="0.452" y2="0.172" xlink:href="#linear-gradient-12"/>
    <linearGradient id="linear-gradient-28" x1="0.528" y1="1.044" x2="0.399" y2="0.284" xlink:href="#linear-gradient-12"/>
    <linearGradient id="linear-gradient-33" x1="0.499" y1="1.011" x2="0.5" y2="0.22" xlink:href="#linear-gradient-22"/>
    <linearGradient id="linear-gradient-34" x1="0.448" y1="0.135" x2="0.541" y2="1.126" xlink:href="#linear-gradient"/>
    <linearGradient id="linear-gradient-35" x1="-33.006" y1="-20.629" x2="-31.622" y2="-18.709" xlink:href="#linear-gradient-2"/>
    <linearGradient id="linear-gradient-36" x1="-39.559" y1="-29.434" x2="-38.175" y2="-27.515" xlink:href="#linear-gradient-2"/>
    <linearGradient id="linear-gradient-37" x1="-72.919" y1="-49.939" x2="-71.534" y2="-48.02" xlink:href="#linear-gradient-2"/>
    <linearGradient id="linear-gradient-38" x1="-53.805" y1="-5.822" x2="-52.421" y2="-3.902" xlink:href="#linear-gradient-2"/>
    <linearGradient id="linear-gradient-39" x1="-65.088" y1="-9.26" x2="-63.703" y2="-7.34" xlink:href="#linear-gradient-2"/>
    <linearGradient id="linear-gradient-40" x1="-113.513" y1="-18.931" x2="-112.128" y2="-17.012" xlink:href="#linear-gradient-2"/>
    <linearGradient id="linear-gradient-41" x1="0.5" y1="0.259" x2="0.5" y2="1.259" gradientUnits="objectBoundingBox">
      <stop offset="0" stop-color="#f82814" stop-opacity="0"/>
      <stop offset="0.25" stop-color="#f32816" stop-opacity="0.251"/>
      <stop offset="0.542" stop-color="#e5281d" stop-opacity="0.541"/>
      <stop offset="0.855" stop-color="#ce2727" stop-opacity="0.855"/>
      <stop offset="1" stop-color="#c0272d"/>
    </linearGradient>
    <linearGradient id="linear-gradient-42" x1="0.452" y1="0.18" x2="0.634" y2="1.388" xlink:href="#linear-gradient-20"/>
    <linearGradient id="linear-gradient-46" x1="0.452" y1="0.18" x2="0.634" y2="1.388" xlink:href="#linear-gradient-20"/>
    <linearGradient id="linear-gradient-56" x1="3.311" y1="-16.738" x2="3.496" y2="-15.617" xlink:href="#linear-gradient-20"/>
    <linearGradient id="linear-gradient-57" x1="-63.67" y1="13.431" x2="-63.485" y2="14.552" xlink:href="#linear-gradient-20"/>
  </defs>
  <g id="Group_8484" data-name="Group 8484" transform="translate(-23 -180)">
    <circle id="Ellipse_74" data-name="Ellipse 74" cx="13" cy="13" r="13" transform="translate(38 195)" fill="#f2ebeb"/>
    <g id="_029-burger" data-name="029-burger" transform="translate(38 189.869)">
      <g id="Group_50" data-name="Group 50" transform="translate(0.224 20.442)">
        <path id="Path_1775" data-name="Path 1775" d="M4.446,406.5A3.615,3.615,0,0,0,7.32,410.04a49.772,49.772,0,0,0,9.753.853,49.772,49.772,0,0,0,9.753-.853A3.615,3.615,0,0,0,29.7,406.5a.867.867,0,0,0-1.123-.829,42.476,42.476,0,0,1-11.5,1.3,42.473,42.473,0,0,1-11.5-1.3.867.867,0,0,0-1.123.829Z" transform="translate(-4.446 -405.633)" fill="url(#linear-gradient)"/>
        <path id="Path_1776" data-name="Path 1776" d="M202.666,420.357l3.959,3.959a47.356,47.356,0,0,0,8.431-.84,3.609,3.609,0,0,0,1.655-.832l-2.862-2.862a53.536,53.536,0,0,1-8.546.628C204.4,420.411,203.52,420.392,202.666,420.357Z" transform="translate(-192.677 -419.07)" fill="url(#linear-gradient-2)"/>
        <path id="Path_1777" data-name="Path 1777" d="M410.388,405.673a24.949,24.949,0,0,1-3.867.813l3.159,3.159a3.613,3.613,0,0,0,1.831-3.143A.867.867,0,0,0,410.388,405.673Z" transform="translate(-386.259 -405.633)" fill="url(#linear-gradient-3)"/>
        <g id="Group_49" data-name="Group 49" transform="translate(2.339 1.603)" opacity="0.6">
          <g id="Group_47" data-name="Group 47">
            <circle id="Ellipse_48" data-name="Ellipse 48" cx="0.425" cy="0.425" r="0.425" transform="translate(0.699)" fill="url(#linear-gradient-4)"/>
            <circle id="Ellipse_49" data-name="Ellipse 49" cx="0.335" cy="0.335" r="0.335" transform="translate(0 1.188)" fill="url(#linear-gradient-5)"/>
            <circle id="Ellipse_50" data-name="Ellipse 50" cx="0.202" cy="0.202" r="0.202" transform="translate(1.595 1.602)" fill="url(#linear-gradient-6)"/>
          </g>
          <g id="Group_48" data-name="Group 48" transform="translate(2.129 0.431)">
            <circle id="Ellipse_51" data-name="Ellipse 51" cx="0.314" cy="0.314" r="0.314" transform="translate(0.927)" fill="url(#linear-gradient-7)"/>
            <circle id="Ellipse_52" data-name="Ellipse 52" cx="0.248" cy="0.248" r="0.248" transform="translate(0 0.173)" fill="url(#linear-gradient-8)"/>
            <circle id="Ellipse_53" data-name="Ellipse 53" cx="0.149" cy="0.149" r="0.149" transform="translate(0.664 1.215)" fill="url(#linear-gradient-9)"/>
          </g>
        </g>
        <path id="Path_1778" data-name="Path 1778" d="M10.175,450.946a3.617,3.617,0,0,0,2.585,2.123,49.775,49.775,0,0,0,9.753.853,49.775,49.775,0,0,0,9.753-.853,3.616,3.616,0,0,0,2.585-2.123Z" transform="translate(-9.886 -448.663)" fill="url(#linear-gradient-10)"/>
      </g>
      <path id="Path_1779" data-name="Path 1779" d="M4.446,338.4v.814a2.583,2.583,0,0,0,1.935,2.505,46.194,46.194,0,0,0,10.691,1.071,46.194,46.194,0,0,0,10.691-1.071,2.583,2.583,0,0,0,1.935-2.505V338.4a.867.867,0,0,0-1.123-.829,42.473,42.473,0,0,1-11.5,1.3,42.473,42.473,0,0,1-11.5-1.3.867.867,0,0,0-1.123.829Z" transform="translate(-4.222 -320.522)" fill="url(#linear-gradient-11)"/>
      <path id="Path_1780" data-name="Path 1780" d="M34.022,337.571a42.472,42.472,0,0,1-11.5,1.3,42.472,42.472,0,0,1-11.5-1.3.858.858,0,0,0-.834.183l4.523,4.523a55.551,55.551,0,0,0,7.814.513A46.2,46.2,0,0,0,33.21,341.72a2.583,2.583,0,0,0,1.935-2.505V338.4A.867.867,0,0,0,34.022,337.571Z" transform="translate(-9.668 -320.522)" fill="url(#linear-gradient-12)"/>
      <path id="Path_1781" data-name="Path 1781" d="M384.4,339.774V339.2l-1.082-1.082-.042.01a28.732,28.732,0,0,1-5.306.99v1.4a1.017,1.017,0,0,0,.365.781l1.5,1.5c.978-.149,1.863-.324,2.631-.521A2.583,2.583,0,0,0,384.4,339.774Z" transform="translate(-358.927 -321.081)" fill="url(#linear-gradient-13)"/>
      <path id="Path_1782" data-name="Path 1782" d="M155.486,359.344c-1.687.155-3.546.242-5.5.242s-3.8-.085-5.477-.239a.754.754,0,0,0,.125.9l3.219,3.219q1.043.034,2.132.035a52.343,52.343,0,0,0,8.961-.7Z" transform="translate(-137.135 -341.235)" fill="url(#linear-gradient-14)"/>
      <path id="Path_1783" data-name="Path 1783" d="M155.015,338.277a17.365,17.365,0,0,0-10.071,0,.757.757,0,0,0-.316,1.259l3.9,3.9a2.046,2.046,0,0,0,2.893,0l3.9-3.9A.757.757,0,0,0,155.015,338.277Z" transform="translate(-137.129 -320.522)" fill="url(#linear-gradient-15)"/>
      <path id="Path_1784" data-name="Path 1784" d="M29.7,277.737c0-3.572-25.253-3.572-25.253,0,0,.616.751,1.125,1.994,1.529a3.27,3.27,0,0,1,1.216.707l.037.035a2.643,2.643,0,0,0,2.806.5h0a2.649,2.649,0,0,1,2.478.242l.07.046a2.614,2.614,0,0,0,2.7.115l.065-.036a2.614,2.614,0,0,1,2.513,0l.066.036a2.614,2.614,0,0,0,2.7-.115l.085-.056a2.614,2.614,0,0,1,2.463-.231,2.614,2.614,0,0,0,2.793-.491l.051-.047a3.268,3.268,0,0,1,1.216-.707c1.243-.4,1.994-.913,1.994-1.529Z" transform="translate(-4.222 -261.197)" fill="url(#linear-gradient-16)"/>
      <path id="Path_1785" data-name="Path 1785" d="M41.916,277.737c0,.616-.751,1.125-1.994,1.528a3.278,3.278,0,0,0-1.216.708l-.051.047a2.613,2.613,0,0,1-2.792.491,2.616,2.616,0,0,0-2.463.232l-.085.056a2.615,2.615,0,0,1-2.7.115l-.065-.036a2.615,2.615,0,0,0-2.514,0l-.065.035a2.613,2.613,0,0,1-2.7-.115l-.07-.046a2.649,2.649,0,0,0-2.478-.242h0a2.64,2.64,0,0,1-1.723.1l-3.25-3.25a2.171,2.171,0,0,1-.433-.553c1.454-.962,5.171-1.527,9.288-1.7,1.768-.073,3.612-.073,5.38,0,5.3.219,9.936,1.093,9.936,2.624Z" transform="translate(-16.439 -261.197)" fill="url(#linear-gradient-17)"/>
      <path id="Path_1786" data-name="Path 1786" d="M47.4,277.456a28.487,28.487,0,0,0-6.848,1.087,1.02,1.02,0,0,0,.384.6l3.7,3.7c.051-.017.1-.036.152-.056h0a2.649,2.649,0,0,1,2.478.242l.07.046a2.614,2.614,0,0,0,2.7.115l.065-.036a2.614,2.614,0,0,1,2.513,0l.066.036a2.61,2.61,0,0,0,.718.264Z" transform="translate(-38.507 -263.474)" fill="url(#linear-gradient-18)"/>
      <path id="Path_1787" data-name="Path 1787" d="M382.287,317.567h-4.312v3.186a2.619,2.619,0,0,1,.376.125,2.614,2.614,0,0,0,2.793-.491l.051-.047a3.27,3.27,0,0,1,1.216-.707,5.66,5.66,0,0,0,1.341-.6Z" transform="translate(-358.927 -301.563)" fill="url(#linear-gradient-19)"/>
      <path id="Path_1788" data-name="Path 1788" d="M377.975,317.567V321a1.02,1.02,0,0,0,2.04,0v-.7a.353.353,0,1,1,.707,0v.057a.783.783,0,1,0,1.565,0v-2.8Z" transform="translate(-358.927 -301.563)" fill="url(#linear-gradient-20)"/>
      <path id="Path_1789" data-name="Path 1789" d="M11.871,257.784v.057a2.187,2.187,0,0,0,1.606,2.112,43.657,43.657,0,0,0,10.646,1.111,43.657,43.657,0,0,0,10.646-1.111,2.187,2.187,0,0,0,1.606-2.112v-.056a1.587,1.587,0,0,0-1.974-1.539,45.187,45.187,0,0,1-10.279,1.015,45.191,45.191,0,0,1-10.279-1.015A1.587,1.587,0,0,0,11.871,257.784Z" transform="translate(-11.273 -243.286)" fill="url(#linear-gradient-21)"/>
      <path id="Path_1790" data-name="Path 1790" d="M46.814,257.126a36.616,36.616,0,0,1-6.176-.879,1.589,1.589,0,0,0-.552-.04v1.939a1.017,1.017,0,0,0,.408.814l1.356,1.356a49.356,49.356,0,0,0,8.9.747Z" transform="translate(-38.066 -243.287)" fill="url(#linear-gradient-22)"/>
      <path id="Path_1791" data-name="Path 1791" d="M255.307,257.4a45.378,45.378,0,0,1-10.23,1l-.527,0,3.723,3.723a37.111,37.111,0,0,0,7.449-1.029,2.184,2.184,0,0,0,1.568-1.711Z" transform="translate(-232.226 -244.425)" fill="url(#linear-gradient-23)"/>
      <path id="Path_1792" data-name="Path 1792" d="M4.446,211.632v.814a2.583,2.583,0,0,0,1.935,2.505,46.2,46.2,0,0,0,10.691,1.071,46.2,46.2,0,0,0,10.691-1.071,2.583,2.583,0,0,0,1.935-2.505v-.814a.867.867,0,0,0-1.123-.829,42.475,42.475,0,0,1-11.5,1.3,42.475,42.475,0,0,1-11.5-1.3.867.867,0,0,0-1.123.829Z" transform="translate(-4.222 -200.142)" fill="url(#linear-gradient-11)"/>
      <path id="Path_1793" data-name="Path 1793" d="M34.022,210.8a42.474,42.474,0,0,1-11.5,1.3,42.474,42.474,0,0,1-11.5-1.3.858.858,0,0,0-.834.183l4.523,4.523a55.54,55.54,0,0,0,7.814.513,46.2,46.2,0,0,0,10.691-1.071,2.583,2.583,0,0,0,1.935-2.505v-.814a.867.867,0,0,0-1.123-.829Z" transform="translate(-9.668 -200.142)" fill="url(#linear-gradient-12)"/>
      <path id="Path_1794" data-name="Path 1794" d="M227.17,227.812l-3.031-3.031a53.428,53.428,0,0,1-8.586.635q-1.058,0-2.075-.033a.748.748,0,0,0,.2.7L216.9,229.3l.4.011a42.818,42.818,0,0,0,8.945-1.047A2.553,2.553,0,0,0,227.17,227.812Z" transform="translate(-202.702 -213.453)" fill="url(#linear-gradient-26)"/>
      <path id="Path_1795" data-name="Path 1795" d="M224.054,211.509a17.365,17.365,0,0,0-10.071,0,.757.757,0,0,0-.316,1.259l3.9,3.9a2.046,2.046,0,0,0,2.893,0l3.9-3.9A.757.757,0,0,0,224.054,211.509Z" transform="translate(-202.689 -200.142)" fill="url(#linear-gradient-15)"/>
      <path id="Path_1796" data-name="Path 1796" d="M40.226,230.053a42.1,42.1,0,0,0,8.6,1.037l-4.207-4.207c-.588-.064-1.153-.137-1.689-.217h-2.84v3.347C40.133,230.027,40.179,230.04,40.226,230.053Z" transform="translate(-38.067 -215.242)" fill="url(#linear-gradient-28)"/>
      <path id="Path_1797" data-name="Path 1797" d="M40.087,226.665V230.1a1.02,1.02,0,1,0,2.04,0v-.7a.353.353,0,1,1,.707,0v.057a.783.783,0,0,0,1.565,0v-2.8Z" transform="translate(-38.067 -215.242)" fill="url(#linear-gradient-20)"/>
      <path id="Path_1798" data-name="Path 1798" d="M29.7,150.969c0-3.572-25.253-3.572-25.253,0,0,.616.751,1.125,1.994,1.529a3.269,3.269,0,0,1,1.216.707l.037.035a2.643,2.643,0,0,0,2.806.5h0a2.649,2.649,0,0,1,2.478.242l.07.046a2.614,2.614,0,0,0,2.7.115l.065-.036a2.614,2.614,0,0,1,2.513,0l.066.036a2.614,2.614,0,0,0,2.7-.115l.085-.056a2.614,2.614,0,0,1,2.463-.231,2.614,2.614,0,0,0,2.793-.491l.051-.047a3.268,3.268,0,0,1,1.216-.707c1.243-.4,1.994-.913,1.994-1.529Z" transform="translate(-4.222 -140.817)" fill="url(#linear-gradient-16)"/>
      <path id="Path_1799" data-name="Path 1799" d="M41.916,150.975c0,.616-.751,1.125-1.994,1.528a3.277,3.277,0,0,0-1.216.708l-.051.047a2.613,2.613,0,0,1-2.792.491,2.616,2.616,0,0,0-2.463.232l-.085.056a2.615,2.615,0,0,1-2.7.115l-.065-.036a2.615,2.615,0,0,0-2.514,0l-.065.035a2.613,2.613,0,0,1-2.7-.115l-.07-.046a2.649,2.649,0,0,0-2.478-.242h0a2.641,2.641,0,0,1-1.723.1l-3.25-3.25a2.17,2.17,0,0,1-.433-.553c1.454-.962,5.171-1.527,9.288-1.7,1.768-.073,3.612-.073,5.38,0C37.279,148.57,41.916,149.445,41.916,150.975Z" transform="translate(-16.439 -140.824)" fill="url(#linear-gradient-17)"/>
      <path id="Path_1800" data-name="Path 1800" d="M11.871,131.017v.057a2.187,2.187,0,0,0,1.606,2.112A43.66,43.66,0,0,0,24.123,134.3a43.66,43.66,0,0,0,10.646-1.111,2.187,2.187,0,0,0,1.606-2.112v-.056a1.587,1.587,0,0,0-1.974-1.539,45.189,45.189,0,0,1-10.279,1.015,45.192,45.192,0,0,1-10.279-1.015A1.587,1.587,0,0,0,11.871,131.017Z" transform="translate(-11.273 -122.907)" fill="url(#linear-gradient-21)"/>
      <path id="Path_1801" data-name="Path 1801" d="M38.377,131.016v.056a2.188,2.188,0,0,1-1.606,2.112,43.678,43.678,0,0,1-10.646,1.11,49.788,49.788,0,0,1-9.033-.741l-3.113-3.113a1.588,1.588,0,0,1,1.867-.964,45.194,45.194,0,0,0,10.279,1.015A45.194,45.194,0,0,0,36.4,129.477,1.586,1.586,0,0,1,38.377,131.016Z" transform="translate(-13.275 -122.906)" fill="url(#linear-gradient-33)"/>
      <g id="Group_54" data-name="Group 54" transform="translate(0 0.251)">
        <path id="Path_1802" data-name="Path 1802" d="M25.7,11.453c0,3.572-25.7,3.572-25.7,0S5.753,4.986,12.851,4.986,25.7,7.881,25.7,11.453Z" transform="translate(0 -4.986)" fill="url(#linear-gradient-34)"/>
        <g id="Group_53" data-name="Group 53" transform="translate(20.42 4.867)" opacity="0.6">
          <g id="Group_51" data-name="Group 51">
            <circle id="Ellipse_54" data-name="Ellipse 54" cx="0.425" cy="0.425" r="0.425" transform="translate(0.699)" fill="url(#linear-gradient-35)"/>
            <circle id="Ellipse_55" data-name="Ellipse 55" cx="0.335" cy="0.335" r="0.335" transform="translate(0 1.188)" fill="url(#linear-gradient-36)"/>
            <circle id="Ellipse_56" data-name="Ellipse 56" cx="0.202" cy="0.202" r="0.202" transform="translate(1.595 1.602)" fill="url(#linear-gradient-37)"/>
          </g>
          <g id="Group_52" data-name="Group 52" transform="translate(2.129 0.431)">
            <circle id="Ellipse_57" data-name="Ellipse 57" cx="0.314" cy="0.314" r="0.314" transform="translate(0.927)" fill="url(#linear-gradient-38)"/>
            <circle id="Ellipse_58" data-name="Ellipse 58" cx="0.248" cy="0.248" r="0.248" transform="translate(0 0.173)" fill="url(#linear-gradient-39)"/>
            <circle id="Ellipse_59" data-name="Ellipse 59" cx="0.149" cy="0.149" r="0.149" transform="translate(0.664 1.215)" fill="url(#linear-gradient-40)"/>
          </g>
        </g>
        <path id="Path_1803" data-name="Path 1803" d="M0,97.625c0,3.572,25.7,3.572,25.7,0a3.62,3.62,0,0,0-.561-1.894H.561A3.619,3.619,0,0,0,0,97.625Z" transform="translate(0 -91.158)" fill="url(#linear-gradient-41)"/>
      </g>
      <g id="Group_59" data-name="Group 59" transform="translate(4.497 0)">
        <g id="Group_55" data-name="Group 55" transform="translate(1.912 5.312)">
          <ellipse id="Ellipse_60" data-name="Ellipse 60" cx="0.703" cy="0.308" rx="0.703" ry="0.308" fill="url(#linear-gradient-42)"/>
          <ellipse id="Ellipse_61" data-name="Ellipse 61" cx="0.703" cy="0.308" rx="0.703" ry="0.308" transform="translate(3.825)" fill="url(#linear-gradient-42)"/>
          <ellipse id="Ellipse_62" data-name="Ellipse 62" cx="0.703" cy="0.308" rx="0.703" ry="0.308" transform="translate(7.65)" fill="url(#linear-gradient-42)"/>
          <ellipse id="Ellipse_63" data-name="Ellipse 63" cx="0.703" cy="0.308" rx="0.703" ry="0.308" transform="translate(11.475)" fill="url(#linear-gradient-42)"/>
        </g>
        <g id="Group_56" data-name="Group 56" transform="translate(0 3.542)">
          <ellipse id="Ellipse_64" data-name="Ellipse 64" cx="0.703" cy="0.308" rx="0.703" ry="0.308" fill="url(#linear-gradient-46)"/>
          <ellipse id="Ellipse_65" data-name="Ellipse 65" cx="0.703" cy="0.308" rx="0.703" ry="0.308" transform="translate(3.825)" fill="url(#linear-gradient-46)"/>
          <ellipse id="Ellipse_66" data-name="Ellipse 66" cx="0.703" cy="0.308" rx="0.703" ry="0.308" transform="translate(7.65)" fill="url(#linear-gradient-46)"/>
          <ellipse id="Ellipse_67" data-name="Ellipse 67" cx="0.703" cy="0.308" rx="0.703" ry="0.308" transform="translate(11.475)" fill="url(#linear-gradient-46)"/>
          <ellipse id="Ellipse_68" data-name="Ellipse 68" cx="0.703" cy="0.308" rx="0.703" ry="0.308" transform="translate(15.3)" fill="url(#linear-gradient-46)"/>
        </g>
        <g id="Group_57" data-name="Group 57" transform="translate(1.912 1.771)">
          <ellipse id="Ellipse_69" data-name="Ellipse 69" cx="0.703" cy="0.308" rx="0.703" ry="0.308" fill="url(#linear-gradient-42)"/>
          <ellipse id="Ellipse_70" data-name="Ellipse 70" cx="0.703" cy="0.308" rx="0.703" ry="0.308" transform="translate(3.825)" fill="url(#linear-gradient-42)"/>
          <ellipse id="Ellipse_71" data-name="Ellipse 71" cx="0.703" cy="0.308" rx="0.703" ry="0.308" transform="translate(7.65)" fill="url(#linear-gradient-42)"/>
          <ellipse id="Ellipse_72" data-name="Ellipse 72" cx="0.703" cy="0.308" rx="0.703" ry="0.308" transform="translate(11.475)" fill="url(#linear-gradient-42)"/>
        </g>
        <ellipse id="Ellipse_73" data-name="Ellipse 73" cx="0.703" cy="0.308" rx="0.703" ry="0.308" transform="translate(7.65)" fill="url(#linear-gradient-42)"/>
        <g id="Group_58" data-name="Group 58" transform="translate(3.908 0.182)">
          <path id="Path_1804" data-name="Path 1804" d="M317.123,4.081c-.033.167-.369.24-.75.164s-.663-.273-.629-.44.369-.24.75-.164S317.156,3.914,317.123,4.081Z" transform="translate(-308.234 -3.611)" fill="url(#linear-gradient-56)"/>
          <path id="Path_1805" data-name="Path 1805" d="M166.786,4.081c.033.167.369.24.75.164s.663-.273.629-.44-.369-.24-.75-.164S166.753,3.914,166.786,4.081Z" transform="translate(-166.784 -3.611)" fill="url(#linear-gradient-57)"/>
        </g>
      </g>
    </g>
  </g>
</svg>
