<svg width="25" height="26" viewBox="0 0 25 26" fill="none" xmlns="http://www.w3.org/2000/svg">
<rect x="0.5" y="0.75" width="24.5" height="24.5" rx="12.25" fill="#FF6B15"/>
<path d="M13.2351 4.66992C17.6882 4.66992 21.0594 8.321 21.0594 12.4981C21.0594 17.3427 17.108 20.3499 13.2194 20.3499C11.9336 20.3499 10.5068 20.0044 9.36211 19.3292C8.96227 19.0858 8.62515 18.9052 8.19395 19.0465L6.61027 19.5176C6.21043 19.6433 5.84979 19.3292 5.96739 18.9052L6.49267 17.1464C6.57891 16.903 6.56323 16.6439 6.43779 16.4397C5.76355 15.1992 5.37939 13.8408 5.37939 12.5217C5.37939 8.39166 8.68003 4.66992 13.2351 4.66992ZM16.818 11.5245C16.2613 11.5245 15.8144 11.9721 15.8144 12.5296C15.8144 13.0792 16.2613 13.5346 16.818 13.5346C17.3746 13.5346 17.8215 13.0792 17.8215 12.5296C17.8215 11.9721 17.3746 11.5245 16.818 11.5245ZM13.2037 11.5245C12.6549 11.5167 12.2002 11.9721 12.2002 12.5217C12.2002 13.0792 12.6471 13.5267 13.2037 13.5346C13.7604 13.5346 14.2072 13.0792 14.2072 12.5296C14.2072 11.9721 13.7604 11.5245 13.2037 11.5245ZM9.58947 11.5245C9.03283 11.5245 8.58595 11.9721 8.58595 12.5296C8.58595 13.0792 9.04067 13.5346 9.58947 13.5346C10.1461 13.5267 10.593 13.0792 10.593 12.5296C10.593 11.9721 10.1461 11.5245 9.58947 11.5245Z" fill="white"/>
</svg>
