<svg width="33" height="33" viewBox="0 0 33 33" fill="none" xmlns="http://www.w3.org/2000/svg">
<rect x="0.5" y="0.3125" width="32" height="32" rx="4" fill="#FF6B15"/>
<g clip-path="url(#clip0_35_1104)">
<path d="M7.98755 15.3937H6.33755C5.96255 15.3937 5.6813 15.6937 5.6813 16.05C5.6813 16.425 5.9813 16.7062 6.33755 16.7062H7.98755V15.3937Z" fill="#EA6C3A"/>
<path d="M22.95 9.05625C23.025 9.58125 23.1563 10.575 23.2313 11.1C23.2688 11.3063 23.4938 11.4375 23.6813 11.3438C24.225 11.0813 24.5625 10.5 24.4688 9.88125C24.375 9.2625 23.8875 8.79375 23.3063 8.68125C23.1 8.64375 22.9125 8.83125 22.95 9.05625Z" fill="#FAC136"/>
<path d="M24.8625 24.5063C23.0504 24.5063 21.5813 23.0372 21.5813 21.225C21.5813 19.4128 23.0504 17.9438 24.8625 17.9438C26.6747 17.9438 28.1438 19.4128 28.1438 21.225C28.1438 23.0372 26.6747 24.5063 24.8625 24.5063Z" fill="#2F2F2F"/>
<path d="M24.8625 23.0438C23.8581 23.0438 23.0438 22.2295 23.0438 21.225C23.0438 20.2205 23.8581 19.4062 24.8625 19.4062C25.867 19.4062 26.6813 20.2205 26.6813 21.225C26.6813 22.2295 25.867 23.0438 24.8625 23.0438Z" fill="#65878D"/>
<path d="M10.1813 24.5063C8.36909 24.5063 6.90002 23.0372 6.90002 21.225C6.90002 19.4128 8.36909 17.9438 10.1813 17.9438C11.9935 17.9438 13.4625 19.4128 13.4625 21.225C13.4625 23.0372 11.9935 24.5063 10.1813 24.5063Z" fill="#2F2F2F"/>
<path d="M10.1813 23.0438C9.17678 23.0438 8.3625 22.2295 8.3625 21.225C8.3625 20.2205 9.17678 19.4062 10.1813 19.4062C11.1857 19.4062 12 20.2205 12 21.225C12 22.2295 11.1857 23.0438 10.1813 23.0438Z" fill="#65878D"/>
<path d="M10.5562 14.5687H10.5187C10.125 14.5875 4.64999 15.0937 4.64999 21.0562C4.64999 21.4125 4.94999 21.7125 5.30624 21.7125H18.825C20.25 21.7125 21.5812 21.0937 22.5187 20.025L24.3187 17.9437C24.5625 17.6625 24.6562 17.2875 24.5812 16.9125C24.2062 15.2062 23.475 13.5937 22.4062 12.1875L22.0687 11.7375H20.6625L21.975 17.1562C21.8812 18.7875 20.5125 20.0625 18.8812 20.0812H16.575C15.525 20.0812 14.6812 19.2375 14.6812 18.1875C14.6812 17.5312 15.0187 16.9312 15.5812 16.575L16.6875 15.8812C16.9125 15.7312 17.0625 15.4687 17.0625 15.2062V14.55L10.5562 14.55V14.5687Z" fill="#47C0E5"/>
<path d="M10.7625 15.9562C10.7813 15.9562 10.7813 15.9562 10.7625 15.9562C10.9125 15.9562 11.025 16.0875 11.025 16.2187C11.025 16.3687 10.9125 16.4812 10.7625 16.4812C8.45627 16.4812 6.60002 18.3375 6.60002 20.6437C6.60002 20.7937 6.48752 20.9062 6.33752 20.9062C6.18752 20.9062 6.07502 20.7937 6.07502 20.6437C6.07502 18.0562 8.17502 15.9562 10.7625 15.9562Z" fill="#BAE9F3"/>
<path d="M16.0875 15.2812L17.0625 14.8312C17.2125 14.7562 17.3063 14.6062 17.3063 14.4562C17.3063 13.575 16.5938 12.8437 15.6938 12.8437H12.975C12.0563 12.8437 11.1188 12.7875 10.2 12.6562C9.30002 12.5812 8.55002 13.2937 8.55002 14.1937V14.8312C8.55002 15.0375 8.71877 15.225 8.94377 15.225L14.7188 15.4687C15.1875 15.5625 15.6563 15.4875 16.0875 15.2812ZM7.93128 9.44999L7.95002 9.48749C8.28752 9.99374 8.47502 10.575 8.47502 11.175V11.55C8.47502 11.7187 8.36252 11.8875 8.19377 11.9437L7.96877 12.0187C7.76252 12.075 7.53753 11.9625 7.46253 11.7562L6.90003 9.89999C6.82503 9.67499 6.95627 9.44999 7.18128 9.39374L7.50002 9.29999C7.66877 9.24374 7.83753 9.29999 7.93128 9.44999Z" fill="#2F2F2F"/>
<path d="M6.84377 9.9375C6.73127 9.975 6.67502 10.0875 6.71252 10.2L7.78127 13.9875C7.87502 14.3438 8.15627 14.6438 8.49377 14.775L8.96252 14.9625V14.4938L8.85002 14.4563C8.47502 14.325 8.19377 14.025 8.08127 13.6313L7.10627 10.0688C7.06877 9.975 6.95627 9.9 6.84377 9.9375Z" fill="#2F2F2F"/>
<path d="M20.4938 11.325L20.25 10.5C20.175 10.275 20.25 10.0125 20.4375 9.8625L21.225 9.1875C21.5438 8.925 21.9375 8.75625 22.35 8.71875L23.5688 8.625C23.6625 8.625 23.7375 8.6625 23.775 8.7375L23.925 9.075C24.1688 9.61875 24.2813 10.2 24.2438 10.7812L24.225 11.1C24.225 11.1938 24.15 11.2688 24.0563 11.2875L23.25 11.4C22.6125 11.4937 22.2188 12.15 22.4625 12.7687L20.85 12.45L20.4938 11.325Z" fill="#47C0E5"/>
<path d="M21.3 9.18749C21.3 9.18749 21.6375 9.03749 21.825 9.50624C22.0125 9.95624 21.6187 10.3687 21.6187 10.3687L20.2125 10.8375C19.9312 10.9312 19.6312 10.7437 19.575 10.4437C19.5375 10.2375 19.65 10.0312 19.8375 9.93749L21.3 9.18749Z" fill="#2F2F2F"/>
<path d="M27.9375 20.0063H27.0938C25.1625 20.025 23.2875 20.6438 21.6938 21.7688C21.4313 21.9563 21.075 21.75 21.0938 21.4125C21.1125 21 21.1875 20.4375 21.3938 19.8563C21.7688 18.7313 22.5563 17.7375 23.7938 17.4C26.3625 16.7063 27.7313 18.4313 28.275 19.3875C28.4063 19.6875 28.2188 20.0063 27.9375 20.0063Z" fill="#47C0E5"/>
<path d="M25.6875 18.2625C25.6875 18.2625 24.3375 17.8125 23.2312 18.6563C22.4812 19.2188 22.2375 20.025 22.2375 20.025" stroke="#BAE9F3" stroke-width="0.46875" stroke-miterlimit="10" stroke-linecap="round"/>
</g>
<defs>
<clipPath id="clip0_35_1104">
<rect width="24" height="24" fill="white" transform="matrix(-1 0 0 1 28.5 4.3125)"/>
</clipPath>
</defs>
</svg>
