<svg width="44" height="44" viewBox="0 0 44 44" fill="none" xmlns="http://www.w3.org/2000/svg">
<g clip-path="url(#clip0_64_1104)">
<rect width="44" height="44" rx="22" fill="#FF6B15"/>
<rect width="78" height="58.7882" transform="translate(-17 -7)" fill="#083A08"/>
<path d="M21.3546 47.6992L50.5559 31.3192C50.7672 31.2003 50.944 31.0284 51.0687 30.8204C51.1934 30.6124 51.2617 30.3755 51.2671 30.133C51.2724 29.8906 51.2144 29.6509 51.099 29.4377C50.9835 29.2244 50.8145 29.0449 50.6085 28.9168L22.3004 11.3688C22.0855 11.2356 21.8385 11.1633 21.5858 11.1595C21.333 11.1557 21.084 11.2207 20.8652 11.3473L-10.0248 29.2756C-10.236 29.3985 -10.4114 29.5746 -10.5332 29.7864C-10.6551 29.9982 -10.7192 30.2383 -10.7192 30.4827C-10.7192 30.7271 -10.6551 30.9672 -10.5332 31.179C-10.4114 31.3908 -10.236 31.5669 -10.0248 31.6897L17.519 47.6797C18.1015 48.0162 18.7616 48.1949 19.4342 48.1983C20.1069 48.2017 20.7688 48.0297 21.3546 47.6992Z" fill="#FC9956"/>
<path d="M42.1727 23.6811L9.0968 42.7774L-3.31885 35.5566L30.1197 16.2145L42.1727 23.6811Z" fill="#DDDDDD"/>
<path d="M23.5598 22.0606L4.48682 33.786L11.148 37.686L29.2148 27.1579C29.3423 27.0836 29.4486 26.9778 29.5235 26.8506C29.5984 26.7234 29.6394 26.5791 29.6425 26.4315C29.6457 26.284 29.6108 26.138 29.5414 26.0078C29.472 25.8775 29.3702 25.7673 29.246 25.6876L23.5598 22.0606Z" fill="url(#paint0_linear_64_1104)"/>
<path d="M23.2169 24.4669C23.2169 24.4669 22.3979 26.4286 23.3787 27.3022C23.855 27.6077 24.3582 27.8687 24.8822 28.0822C24.8822 28.0822 23.8623 27.4972 24.0807 26.3116C24.2587 25.5219 24.6045 24.7797 25.0947 24.1354" fill="#3E4359"/>
<path d="M27.868 26.1544C28.6522 24.6357 28.5207 23.0085 27.5743 22.5198C26.6279 22.0311 25.225 22.8661 24.4408 24.3847C23.6567 25.9033 23.7882 27.5306 24.7346 28.0192C25.681 28.5079 27.0839 27.673 27.868 26.1544Z" fill="#16171C"/>
<path d="M27.0112 26.0186C27.403 25.2598 27.3374 24.4467 26.8647 24.2027C26.392 23.9586 25.6911 24.3758 25.2993 25.1347C24.9075 25.8935 24.9731 26.7065 25.4458 26.9506C25.9185 27.1947 26.6193 26.7774 27.0112 26.0186Z" fill="#DEEBF1"/>
<path d="M13.6364 18.6111C13.3933 18.9538 13.2002 19.3293 13.0631 19.7265C12.5855 19.6599 12.0997 19.7633 11.6905 20.0185C11.2814 20.2737 10.9748 20.6645 10.8245 21.1227C10.1732 22.8075 10.1166 25.5433 11.0546 27.5343L11.5519 26.9025C11.5519 26.9025 13.0007 27.4251 13.223 27.895C13.4453 28.365 13.81 31.134 13.81 31.134C13.81 31.134 15.9199 32.6725 18.295 32.304C20.6701 31.9354 23.1076 27.9964 23.3279 27.8424C23.5483 27.6883 29.5679 24.1803 30.03 23.7103C31.1825 22.5267 29.8955 20.4168 28.747 19.7382C26.992 18.6949 24.8918 19.0089 22.9711 19.2838C21.6431 19.4788 19.7126 19.6738 18.7162 20.6859C18.6433 20.7556 18.5779 20.8327 18.5212 20.916C17.8255 22.0244 17.3612 23.2622 17.1562 24.5547L16.0096 25.1397C16.0096 25.1397 16.9319 22.7997 15.2003 20.8224L15.9803 19.6114" fill="#68E1FD"/>
<path opacity="0.56" d="M22.6277 27.5401L21.7151 26.9785C21.7151 26.9785 20.0537 27.2359 19.1177 26.4637C18.1817 25.6915 18.3221 25.0831 18.3221 25.0831L17.1755 24.5488L16.0289 25.1338C15.8203 26.5476 15.7423 28.1427 16.1401 29.5272C16.3234 30.1629 16.649 30.7966 17.2613 31.0735C18.0257 31.4206 18.9715 31.0852 19.615 30.6309C20.8006 29.7943 21.6839 28.6341 22.6277 27.5401Z" fill="#2E2E75"/>
<path d="M8.91757 32.4814C8.91757 32.4814 8.09857 34.4431 9.07942 35.3167C9.52473 35.6692 10.0329 35.9339 10.577 36.0967C10.577 36.0967 9.56301 35.5117 9.78141 34.3281C9.95935 33.5383 10.3052 32.7961 10.7954 32.1519" fill="#3E4359"/>
<path d="M13.5697 34.1676C14.3538 32.6489 14.2223 31.0217 13.2759 30.533C12.3295 30.0443 10.9267 30.8793 10.1425 32.3979C9.35834 33.9165 9.48986 35.5438 10.4362 36.0324C11.3826 36.5211 12.7855 35.6862 13.5697 34.1676Z" fill="#16171C"/>
<path d="M12.7109 34.0338C13.1027 33.2749 13.0371 32.4619 12.5644 32.2178C12.0917 31.9737 11.3909 32.391 10.999 33.1498C10.6072 33.9087 10.6728 34.7217 11.1455 34.9658C11.6182 35.2099 12.319 34.7926 12.7109 34.0338Z" fill="#DEEBF1"/>
<path opacity="0.33" d="M23.3337 27.8385C23.3337 27.8385 23.1387 24.543 26.4537 22.4545C30.3713 19.9839 30.8334 23.2033 30.0339 23.7084C27.1382 25.5375 23.3337 27.8385 23.3337 27.8385Z" fill="#2E2E75"/>
<path d="M16.815 25.1241C16.5569 25.3846 16.2704 25.6155 15.9609 25.8124C15.6158 25.9938 15.2394 26.5924 15.4188 27.1248C15.5982 27.6571 17.7978 26.5008 18.2249 26.1244C18.2249 26.1244 18.3068 25.1241 18.1274 24.8277C17.948 24.5313 16.815 25.1241 16.815 25.1241Z" fill="#131218"/>
<path d="M19.6504 27.4212C19.6504 27.4212 18.2991 29.4258 18.8958 30.2292C19.4925 31.0326 20.7327 28.6887 20.7912 28.4274C20.8211 28.038 20.8211 27.6468 20.7912 27.2574L19.6504 27.4212Z" fill="#131218"/>
<path d="M23.0374 16.7625C23.0374 16.7625 23.9441 15.9825 25.2448 16.6825C26.5454 17.3826 26.8886 17.4508 26.9608 18.4375C27.0329 19.4242 26.912 19.8025 26.2978 20.2257C25.6835 20.6488 24.8021 20.914 23.3299 22.0431C23.3299 22.0431 22.2028 22.7782 21.686 22.3863" fill="#414044"/>
<path d="M26.8048 17.7589C26.2783 18.5389 25.3793 18.9777 24.5642 19.3989C23.7491 19.8201 22.9379 20.3037 22.0897 20.7034L21.688 22.3785C22.2028 22.7685 23.3318 22.0353 23.3318 22.0353C24.8041 20.9062 25.6855 20.6371 26.2997 20.2179C26.914 19.7986 27.0349 19.4106 26.9627 18.4297C26.9549 18.1979 26.9013 17.9699 26.8048 17.7589Z" fill="#131218"/>
<path d="M19.6501 16.6825C19.5546 16.7391 15.0345 18.8841 14.5899 19.9176C14.1453 20.9511 16.6315 24.8998 16.6315 24.8998C16.7644 24.9999 16.9162 25.072 17.0777 25.1116C17.2392 25.1513 17.4072 25.1577 17.5713 25.1305C17.7354 25.1034 17.8922 25.0432 18.0324 24.9536C18.1725 24.864 18.293 24.7468 18.3865 24.6093C18.3865 24.6093 17.821 21.7369 17.5695 21.2943L19.6423 20.3836C19.387 21.2321 19.2287 22.1067 19.1704 22.9908C19.108 24.309 19.6423 27.4192 19.6423 27.4192C19.6423 27.4192 20.553 27.8911 21.0561 27.4192C21.5592 26.9473 22.1559 21.6511 22.1559 21.6511C22.1559 21.6511 23.6808 20.1262 23.9577 19.1512C24.1824 18.4029 24.179 17.6045 23.9479 16.858L19.6501 16.6825Z" fill="#1E2128"/>
<path d="M19.0243 9.69569C18.6699 9.73851 18.3251 9.84069 18.0045 9.99794C17.4507 10.3216 16.423 11.4448 15.9375 12.9229L17.5657 13.8004L18.3906 12.6304C18.3906 12.6304 19.3051 16.3237 19.5723 16.7449C19.8394 17.1661 23.521 16.9633 23.95 16.86C23.95 16.86 24.1938 12.0786 22.3042 10.2046C21.4423 9.35054 19.0243 9.69569 19.0243 9.69569Z" fill="#C45E31"/>
<path d="M16.0543 12.9873C15.7836 13.3076 15.4876 13.6056 15.169 13.8784C14.742 14.2294 12.7725 15.61 12.7725 15.61C12.7725 15.61 13.6168 16.4739 13.7475 16.39C13.8781 16.3062 15.8749 15.2551 16.4775 14.6955C16.9221 14.2762 17.2575 13.9779 17.47 13.74C16.9806 13.4514 16.5399 13.272 16.0543 12.9873Z" fill="#FCD1C0"/>
<path d="M18.295 30.9741C16.8208 29.6871 15.9433 26.9785 16.15 25.0773L16.0388 25.1338C16.0388 25.1338 16.9612 22.7938 15.2296 20.8165L16.0096 19.6056L13.652 18.615C13.4089 18.9577 13.2158 19.3332 13.0787 19.7304C12.6011 19.6638 12.1153 19.7672 11.7061 20.0224C11.297 20.2776 10.9905 20.6684 10.8401 21.1266C10.1888 22.8114 10.1323 25.5472 11.0702 27.5382L11.5675 26.9064C11.5675 26.9064 13.0163 27.429 13.2386 27.8989C13.4609 28.3689 13.8334 31.1379 13.8334 31.1379C13.8334 31.1379 15.9433 32.6764 18.3184 32.3079C18.736 32.2315 19.1359 32.0788 19.4981 31.8574C19.0724 31.5981 18.6699 31.3026 18.295 30.9741Z" fill="#68E1FD"/>
<path d="M13.5196 27.6922C13.0172 27.2706 12.4368 26.9519 11.8114 26.7543C10.891 26.5027 8.39502 31.1905 8.39502 31.8087C8.39502 32.4268 8.90007 33.1737 10.1715 32.9475C11.0741 32.5897 11.9378 32.1408 12.7494 31.6078C13.3746 31.1547 14.137 30.9308 14.908 30.9741L13.5196 27.6922Z" fill="#68E1FD"/>
<path opacity="0.33" d="M13.5195 27.6922L13.4571 27.6396C12.6683 28.4676 11.9773 29.3836 11.3979 30.3696C10.9807 31.1381 10.6728 31.9612 10.4834 32.8149C11.2761 32.4843 12.0355 32.0788 12.7512 31.6039C13.3765 31.1526 14.1381 30.9302 14.9079 30.9741L13.5195 27.6922Z" fill="#2E2E75"/>
<path d="M13.1411 26.2086C13.6717 25.9953 13.8732 25.2537 13.5912 24.5523C13.3092 23.8508 12.6505 23.4551 12.1199 23.6684C11.5893 23.8817 11.3878 24.6232 11.6698 25.3247C11.9518 26.0262 12.6105 26.4219 13.1411 26.2086Z" fill="#31333F"/>
<path d="M12.8972 25.8599C13.2679 25.7108 13.4089 25.1931 13.2121 24.7035C13.0152 24.2138 12.5551 23.9377 12.1844 24.0868C11.8137 24.2358 11.6727 24.7535 11.8696 25.2432C12.0664 25.7328 12.5265 26.0089 12.8972 25.8599Z" fill="#DEEBF1"/>
<path d="M17.8251 19.783L12.2852 16.2945C12.2852 16.2945 11.8172 16.1541 11.6534 16.5343C11.4896 16.9146 11.6534 17.0784 11.6534 17.0784L18.5076 21.2065C18.6732 21.1682 18.8174 21.0671 18.9098 20.9245C19.0022 20.7819 19.0356 20.6089 19.0029 20.4421L17.8251 19.783Z" fill="#131218"/>
<path d="M21.0249 13.6678C21.0463 13.7751 20.6349 15.9025 20.3385 16.509C20.0421 17.1154 18.4197 18.7378 18.1935 18.849C17.9673 18.9601 17.199 19.1298 17.0898 19.4125C16.9806 19.6953 16.7875 20.0833 17.0898 20.5162C17.392 20.9491 17.9556 20.9706 18.0843 20.8185C18.213 20.6664 18.1272 20.4285 18.2578 20.3251C18.3885 20.2218 18.7921 20.2569 19.0554 20.0404C19.1073 19.8787 19.1725 19.7215 19.2504 19.5705C19.3362 19.434 20.2897 18.9855 22.0194 17.1096C22.0194 17.1096 22.8208 15.415 22.9944 13.9018L21.0249 13.6678Z" fill="#FCD1C0"/>
<path d="M13.3498 15.1791C13.1668 15.3379 12.9712 15.4814 12.7648 15.6081C12.5483 15.7153 11.7702 15.8889 11.6611 16.1716C11.5519 16.4544 11.3588 16.8424 11.6611 17.2753C11.9633 17.7082 12.5269 17.7297 12.6556 17.5776C12.7843 17.4255 12.6985 17.1876 12.8291 17.0842C12.9598 16.9809 13.3634 17.016 13.6267 16.7995C13.6786 16.6378 13.7438 16.4806 13.8217 16.3296C14.0198 16.1632 14.2268 16.0076 14.4418 15.8635C14.0479 15.6529 13.7378 15.4267 13.3498 15.1791Z" fill="#FCD1C0"/>
<path d="M13.9193 17.0023C13.7404 17.0174 13.5693 17.0822 13.4253 17.1894C13.2813 17.2965 13.17 17.4418 13.1042 17.6088C12.8604 18.1938 13.0184 18.3205 13.2426 18.5448C13.4669 18.769 15.9843 20.1574 15.9843 20.1574C15.9843 20.1574 16.4348 20.4168 16.8521 19.8454C17.2694 19.2741 17.0256 18.7066 16.7663 18.6091C16.5069 18.5116 13.9193 17.0023 13.9193 17.0023Z" fill="#68E1FD"/>
<path opacity="0.33" d="M13.9193 17.0023C13.7404 17.0174 13.5693 17.0822 13.4253 17.1894C13.2813 17.2965 13.17 17.4418 13.1042 17.6088C12.8604 18.1938 13.0184 18.3205 13.2426 18.5448C13.4669 18.769 15.9843 20.1574 15.9843 20.1574C15.9843 20.1574 16.4348 20.4168 16.8521 19.8454C17.2694 19.2741 17.0256 18.7066 16.7663 18.6091C16.5069 18.5116 13.9193 17.0023 13.9193 17.0023Z" fill="#2E2E75"/>
<path d="M20.8906 9.05024L21.1441 9.96089C21.1441 9.96089 20.8984 10.2807 19.8707 10.2573L19.6406 9.29789L20.8906 9.05024Z" fill="#F9B7AB"/>
<path d="M18.6966 8.21564C18.6128 8.27999 18.8604 10.4406 19.6716 10.2417C20.4828 10.0428 21.0893 8.98004 21.1341 8.75774C21.179 8.53544 20.163 7.08659 18.6966 8.21564Z" fill="#FCD1C0"/>
<path d="M18.3123 7.61894C18.3123 7.61894 17.5869 8.62124 18.1544 8.90399C19.1079 9.38174 20.0829 8.85329 20.6153 8.31899" fill="#68E1FD"/>
<path d="M19.4141 6.25784C19.1309 6.3101 18.8662 6.43509 18.6458 6.62054C18.4836 6.76762 18.3581 6.95059 18.2792 7.15484C18.1642 7.44929 18.1973 7.72619 18.1564 8.02844C18.1564 8.02844 18.092 8.50424 19.2757 8.59394C20.4593 8.68364 20.1629 8.82599 20.4203 9.17894C20.6777 9.53189 21.1009 9.41099 21.3953 9.03659C21.5829 8.79285 21.715 8.51108 21.7824 8.21098C21.8498 7.91087 21.8508 7.59967 21.7853 7.29914C21.641 6.68489 21.1145 6.34364 20.5217 6.24614C20.1549 6.18309 19.7796 6.18706 19.4141 6.25784Z" fill="#68E1FD"/>
<path opacity="0.33" d="M19.4141 6.25784C19.1309 6.3101 18.8662 6.43509 18.6458 6.62054C18.4836 6.76762 18.3581 6.95059 18.2792 7.15484C18.1642 7.44929 18.1973 7.72619 18.1564 8.02844C18.1564 8.02844 18.092 8.50424 19.2757 8.59394C20.4593 8.68364 20.1629 8.82599 20.4203 9.17894C20.6777 9.53189 21.1009 9.41099 21.3953 9.03659C21.5829 8.79285 21.715 8.51108 21.7824 8.21098C21.8498 7.91087 21.8508 7.59967 21.7853 7.29914C21.641 6.68489 21.1145 6.34364 20.5217 6.24614C20.1549 6.18309 19.7796 6.18706 19.4141 6.25784Z" fill="#2E2E75"/>
<path d="M0.226187 25.3756C0.877487 25.1046 1.52879 24.1666 1.05494 23.6031C0.581087 23.0395 0.700037 22.2108 0.700037 22.2108C0.596514 22.4724 0.394017 22.6826 0.136487 22.7958C-1.19536 23.256 -1.31431 24.0243 -1.34356 24.6151C-1.37281 25.206 -0.663013 26.4813 -2.79436 27.1618C-4.77556 27.7956 -3.37936 30.0673 -3.18436 30.3813C-2.75433 30.39 -2.32423 30.3678 -1.89736 30.315C-1.43477 30.0699 -0.955888 29.8568 -0.464112 29.6773C0.809238 29.2035 0.335387 28.0783 -0.226213 27.427C-0.787813 26.7757 -0.425113 25.6467 0.226187 25.3756Z" fill="#CFE217"/>
<path d="M0.658984 22.3629C0.327484 22.8543 0.268985 23.449 0.0973849 24.0067C-0.080065 24.6132 -0.470065 25.0753 -0.782065 25.6116C-0.931226 25.8577 -1.03739 26.1274 -1.09602 26.4091C-1.15647 26.7172 -1.16037 27.0312 -1.19157 27.3432C-1.21829 27.6851 -1.31733 28.0174 -1.48211 28.3182C-1.65507 28.594 -1.85075 28.8549 -2.06711 29.0982C-2.40187 29.4609 -2.65635 29.8901 -2.81396 30.3579H-2.70671C-2.54267 29.9026 -2.28793 29.4853 -1.95792 29.1313C-1.59522 28.7004 -1.23642 28.2441 -1.13112 27.6591C-1.01607 27.0175 -1.07847 26.376 -0.760615 25.7812C-0.493465 25.282 -0.105416 24.853 0.101284 24.3207C0.343084 23.6947 0.354785 22.9791 0.744785 22.4155C0.785735 22.359 0.696034 22.3083 0.658984 22.3629Z" fill="#2E6300"/>
<path d="M41.968 27.351C42.5842 28.053 41.9427 28.599 41.9817 29.7066C41.9846 29.7965 42.0017 29.8853 42.0324 29.9698C42.6031 30.4041 43.2735 30.6883 43.9824 30.7966C44 29.9425 45.4741 29.3068 45.4117 28.3123C45.3474 27.2769 43.9512 27.8404 44.4601 26.688C44.9691 25.5355 44.7877 24.073 43.9726 23.5329C43.3681 23.1331 42.6817 22.2459 42.3658 21.8149C42.3658 21.9378 42.3658 22.0626 42.3658 22.1854C42.4282 22.8601 42.1455 23.605 41.8004 24.1354C41.4786 24.6307 41.0204 25.0461 40.7591 25.5823C40.733 25.6382 40.7102 25.6955 40.6908 25.7539C40.451 26.6841 41.4357 26.7445 41.968 27.351Z" fill="#CEC300"/>
<path d="M42.625 25.2879C42.7537 25.8729 43.21 26.3253 43.4304 26.8752C43.7112 27.5518 43.4109 28.1875 43.2939 28.8622C43.171 29.572 43.446 30.1726 43.797 30.7615L43.9335 30.7888C43.7446 30.5002 43.5883 30.1915 43.4674 29.8684C43.3511 29.5146 43.3335 29.1356 43.4167 28.7725C43.5396 28.17 43.7853 27.5772 43.5747 26.9629C43.3797 26.3974 42.9292 25.9567 42.7557 25.3815C42.547 24.6853 42.9507 23.9911 42.8122 23.2891C42.7219 22.9431 42.5764 22.6139 42.3813 22.3141L42.3618 22.281C42.3618 22.3421 42.3572 22.4032 42.3481 22.4643C42.5006 22.7066 42.6181 22.9692 42.6972 23.2443C42.8649 23.9287 42.4749 24.6054 42.625 25.2879Z" fill="#2E6300"/>
<path d="M48.4322 25.9041C49.0835 25.633 49.7348 24.6951 49.261 24.1315C48.7871 23.568 48.9061 22.7392 48.9061 22.7392C48.8026 23.0008 48.6001 23.211 48.3425 23.3242C47.0107 23.7844 46.8917 24.5527 46.8625 25.1436C46.8332 25.7344 47.543 27.0097 45.4117 27.6903C43.4305 28.324 44.8267 30.5958 45.0217 30.9097C45.4517 30.9184 45.8818 30.8963 46.3087 30.8434C46.7713 30.5983 47.2502 30.3853 47.7419 30.2058C49.0153 29.7319 48.5414 28.6068 47.9798 27.9555C47.4182 27.3042 47.7809 26.1693 48.4322 25.9041Z" fill="#CFE217"/>
<path d="M44.8832 30.8961C44.7641 30.4544 44.7497 29.9911 44.8411 29.5429C44.9325 29.0947 45.1272 28.674 45.4097 28.3143C46.061 27.4953 46.4471 26.7328 45.9947 25.8592C45.7262 25.3327 45.5922 24.7478 45.6047 24.1569C44.9534 25.4887 44.3021 25.9645 44.4464 26.6919C44.5907 27.4192 44.421 27.7429 43.9686 28.8681C43.6488 29.6637 43.9686 30.4456 44.187 30.8356C44.4249 30.8649 44.655 30.8863 44.8832 30.8961Z" fill="#9ABC0C"/>
<path d="M40.6634 32.3761C40.9068 32.3851 41.1438 32.2975 41.3228 32.1324C41.5018 31.9672 41.6083 31.738 41.6189 31.4947C41.6189 31.4791 41.6189 31.4635 41.6189 31.4479C41.6189 30.3696 40.4937 29.4979 39.1053 29.4979C37.7169 29.4979 36.5918 30.3735 36.5918 31.4479C36.6004 31.6866 36.7023 31.9123 36.8754 32.0767C37.0486 32.2411 37.2793 32.3311 37.518 32.3274C38.5749 32.3391 39.6162 32.3391 40.6634 32.3761Z" fill="#38383F"/>
<path d="M38.146 32.7291C38.146 32.7291 40.564 33.0508 41.461 31.9705C42.358 30.8902 38.146 31.9705 38.146 31.9705" fill="#38383F"/>
<path d="M34.7959 32.9962C34.7959 32.9962 34.9909 33.4896 36.7459 33.5442C38.5009 33.5988 38.6218 32.5165 38.6218 32.5165" fill="#515154"/>
<path d="M37.8497 33.2283C37.9477 33.233 38.0457 33.2183 38.138 33.185C38.2303 33.1518 38.3151 33.1006 38.3876 33.0345C38.4601 32.9684 38.5188 32.8886 38.5603 32.7997C38.6019 32.7108 38.6255 32.6146 38.6297 32.5165C38.6297 32.5035 38.6297 32.4905 38.6297 32.4775C38.6297 31.6059 37.721 30.9 36.5998 30.9C35.4785 30.9 34.5698 31.6059 34.5698 32.4775C34.5769 32.67 34.6591 32.852 34.7986 32.9846C34.9382 33.1172 35.1241 33.19 35.3167 33.1873C36.1571 33.1971 37.0034 33.2029 37.8497 33.2283Z" fill="#515154"/>
<path d="M40.135 29.6656C40.3839 30.0792 40.5009 30.5588 40.4706 31.0405C40.4403 31.5223 40.2641 31.9834 39.9653 32.3625C40.1993 32.3625 40.4353 32.3625 40.6693 32.3761C40.9126 32.3851 41.1497 32.2975 41.3287 32.1324C41.5077 31.9672 41.6141 31.738 41.6248 31.4947C41.6248 31.4791 41.6248 31.4635 41.6248 31.4479C41.6209 30.6523 41.0086 29.9698 40.135 29.6656Z" fill="#26262B"/>
<path d="M40.3864 31.5259C40.3447 31.6664 40.2918 31.8033 40.2284 31.9354C40.0787 32.2543 39.8515 32.5305 39.5674 32.7388C40.2616 32.6745 41.0377 32.4795 41.4686 31.9588C41.8996 31.4382 41.2229 31.4265 40.3864 31.5259Z" fill="#26262B"/>
<path d="M37.0541 32.7135C36.8276 33.0724 36.489 33.3466 36.0908 33.4935C36.2858 33.5169 36.4964 33.5344 36.746 33.5422C38.501 33.5968 38.6219 32.5146 38.6219 32.5146L37.0541 32.7135Z" fill="#26262B"/>
<path d="M37.288 30.9975C37.3733 31.2398 37.4079 31.4971 37.3898 31.7533C37.3717 32.0096 37.3012 32.2594 37.1827 32.4873C37.0485 32.7652 36.8539 33.0097 36.6133 33.2029C37.0254 33.2029 37.4375 33.2107 37.8496 33.2263C37.9476 33.2311 38.0456 33.2164 38.1379 33.1831C38.2302 33.1499 38.315 33.0987 38.3875 33.0325C38.46 32.9664 38.5187 32.8866 38.5602 32.7977C38.6018 32.7088 38.6253 32.6126 38.6296 32.5146C38.6296 32.5016 38.6296 32.4886 38.6296 32.4756C38.6218 31.797 38.066 31.2178 37.288 30.9975Z" fill="#26262B"/>
<path d="M29.9597 36.7987C30.7093 36.7987 31.3169 36.4635 31.3169 36.0499C31.3169 35.6364 30.7093 35.3011 29.9597 35.3011C29.2102 35.3011 28.6025 35.6364 28.6025 36.0499C28.6025 36.4635 29.2102 36.7987 29.9597 36.7987Z" fill="#C45E31"/>
<path d="M23.0276 41.0244C24.4707 41.0244 25.6406 40.5486 25.6406 39.9616C25.6406 39.3747 24.4707 38.8989 23.0276 38.8989C21.5844 38.8989 20.4146 39.3747 20.4146 39.9616C20.4146 40.5486 21.5844 41.0244 23.0276 41.0244Z" fill="#C45E31"/>
<path d="M5.8775 24.9388C6.69707 24.9388 7.36146 24.6464 7.36146 24.2856C7.36146 23.9248 6.69707 23.6323 5.8775 23.6323C5.05794 23.6323 4.39355 23.9248 4.39355 24.2856C4.39355 24.6464 5.05794 24.9388 5.8775 24.9388Z" fill="#C45E31"/>
</g>
<defs>
<linearGradient id="paint0_linear_64_1104" x1="9.98777" y1="34.954" x2="30.5213" y2="21.5478" gradientUnits="userSpaceOnUse">
<stop stop-color="#DDDDDD"/>
<stop offset="0.99" stop-color="#999999"/>
</linearGradient>
<clipPath id="clip0_64_1104">
<rect width="44" height="44" rx="22" fill="white"/>
</clipPath>
</defs>
</svg>
