<svg width="14" height="15" viewBox="0 0 14 15" fill="none" xmlns="http://www.w3.org/2000/svg">
<path d="M6.41663 2.95834H2.33329C2.02387 2.95834 1.72713 3.08125 1.50833 3.30005C1.28954 3.51884 1.16663 3.81559 1.16663 4.125V12.2917C1.16663 12.6011 1.28954 12.8978 1.50833 13.1166C1.72713 13.3354 2.02387 13.4583 2.33329 13.4583H10.5C10.8094 13.4583 11.1061 13.3354 11.3249 13.1166C11.5437 12.8978 11.6666 12.6011 11.6666 12.2917V8.20834M10.7916 2.08334C11.0237 1.85127 11.3384 1.7209 11.6666 1.7209C11.9948 1.7209 12.3096 1.85127 12.5416 2.08334C12.7737 2.3154 12.9041 2.63015 12.9041 2.95834C12.9041 3.28653 12.7737 3.60127 12.5416 3.83334L6.99996 9.375L4.66663 9.95834L5.24996 7.62501L10.7916 2.08334Z" stroke="#FF6B15" stroke-linecap="round" stroke-linejoin="round"/>
</svg>
