<svg width="240" height="181" viewBox="0 0 240 181" fill="none" xmlns="http://www.w3.org/2000/svg">
<g clip-path="url(#clip0_41_1108)">
<path opacity="0.18" d="M110.071 14.0835L109.82 14.1749C95.1141 19.4633 81.7159 28.8352 66.0733 31.8335C58.6204 33.2613 50.859 33.2613 43.6859 35.7399C24.531 42.3647 15.2505 64.7236 14.8679 84.9864C14.4852 105.249 20.5789 125.118 21.4185 145.364C21.7611 153.576 21.4185 162.446 26.1529 169.173C30.4419 175.29 38.0205 178.197 45.3593 179.607C55.8282 181.608 66.6105 181.262 76.93 178.597C83.6348 176.883 90.0998 174.148 96.9188 173.051C106.919 171.441 116.336 174.239 126.119 173.725C138.958 173.051 152.059 172.166 164.841 170.79C180.101 169.15 195.795 165.078 207.234 154.85C224.567 139.339 228.113 112.919 222.979 90.2349C221.426 83.3816 219.21 76.7111 217.993 69.8007C215.429 55.2089 217.308 39.532 210.969 26.151C202.636 8.50379 181.66 -0.31981 162.139 0.0114322C143.418 0.325541 127.302 7.87558 110.071 14.0835Z" fill="#FF6B15"/>
<path opacity="0.42" d="M197.548 78.0475C199.261 84.758 197.65 91.9939 194.418 98.1219C191.186 104.25 186.468 109.453 181.665 114.45C163.2 133.658 142.822 150.93 120.848 165.998C118.101 167.883 115.137 169.801 111.796 169.916C106.559 170.093 101.83 165.769 96.6331 166.403C92.9095 166.86 89.9454 169.762 86.3531 170.824C80.5793 172.537 74.6112 169.287 69.4655 166.152L58.4603 159.459C54.1256 156.82 49.4025 153.651 48.346 148.688C46.8497 141.669 53.4859 134.199 50.4762 127.682C48.8429 124.13 44.5253 121.52 44.9765 117.637C45.2049 115.718 46.5927 114.176 47.9348 112.788C52.6122 107.962 57.5065 103.359 62.4066 98.7558C74.6512 87.2423 86.9642 75.6774 100.882 66.2598C110.477 59.772 120.745 54.3637 130.991 48.9724L148.535 39.7319C151.231 38.3156 154.012 36.8764 157.039 36.568C160.066 36.2596 162.984 37.0991 165.806 38.0814C173.801 40.8684 185.583 45.5058 191.3 52.1934C193.853 55.1803 193.653 58.4299 193.544 62.1421C193.367 68.0131 196.108 72.5077 197.548 78.0475Z" fill="url(#paint0_linear_41_1108)"/>
<path d="M194.412 88.0076L113.681 163.519C110.867 166.15 107.135 167.573 103.284 167.484C99.4334 167.396 95.7707 165.802 93.0808 163.045L87.4554 157.277L75.6621 160.213C73.8772 160.657 72.0055 160.61 70.2451 160.077C68.4847 159.544 66.9011 158.545 65.662 157.186L53.703 144.05C52.5749 142.811 51.7695 141.313 51.3581 139.688C50.9468 138.063 50.942 136.362 51.3444 134.736L54.1999 123.199L46.964 115.775C45.5831 114.36 44.5014 112.681 43.7835 110.839C43.0655 108.996 42.726 107.028 42.7852 105.052C42.8443 103.076 43.301 101.131 44.1278 99.3353C44.9547 97.5393 46.1349 95.9282 47.5979 94.5982L129.323 20.3543C132.14 17.7902 135.84 16.4172 139.647 16.5237C143.454 16.6302 147.072 18.2079 149.74 20.9254L157.113 28.4411L169.107 25.38C170.466 25.0331 171.891 25.0366 173.248 25.3901C174.605 25.7437 175.851 26.4358 176.868 27.4017L190.466 40.303C191.566 41.3448 192.36 42.6675 192.763 44.1281C193.166 45.5886 193.161 47.1315 192.75 48.5898L189.181 61.1541L194.892 66.9623C196.262 68.365 197.338 70.0273 198.057 71.8516C198.777 73.6759 199.124 75.6255 199.079 77.5859C199.035 79.5462 198.599 81.4779 197.797 83.2676C196.996 85.0572 195.845 86.6688 194.412 88.0076Z" fill="#FF6B15"/>
<path opacity="0.42" d="M194.412 88.0076L113.681 163.519C110.867 166.15 107.135 167.573 103.284 167.484C99.4334 167.396 95.7707 165.802 93.0808 163.045L87.4554 157.277L75.6621 160.213C73.8772 160.657 72.0055 160.61 70.2451 160.077C68.4847 159.544 66.9011 158.545 65.662 157.186L53.703 144.05C52.5749 142.811 51.7695 141.313 51.3581 139.688C50.9468 138.063 50.942 136.362 51.3444 134.736L54.1999 123.199L46.964 115.775C45.5831 114.36 44.5014 112.681 43.7835 110.839C43.0655 108.996 42.726 107.028 42.7852 105.052C42.8443 103.076 43.301 101.131 44.1278 99.3353C44.9547 97.5393 46.1349 95.9282 47.5979 94.5982L129.323 20.3543C132.14 17.7902 135.84 16.4172 139.647 16.5237C143.454 16.6302 147.072 18.2079 149.74 20.9254L157.113 28.4411L169.107 25.38C170.466 25.0331 171.891 25.0366 173.248 25.3901C174.605 25.7437 175.851 26.4358 176.868 27.4017L190.466 40.303C191.566 41.3448 192.36 42.6675 192.763 44.1281C193.166 45.5886 193.161 47.1315 192.75 48.5898L189.181 61.1541L194.892 66.9623C196.262 68.365 197.338 70.0273 198.057 71.8516C198.777 73.6759 199.124 75.6255 199.079 77.5859C199.035 79.5462 198.599 81.4779 197.797 83.2676C196.996 85.0572 195.845 86.6688 194.412 88.0076Z" fill="url(#paint1_linear_41_1108)"/>
<path d="M52.4008 95.5405L130.157 24.6033C132.732 22.2639 136.114 21.013 139.591 21.1131C143.069 21.2132 146.373 22.6565 148.809 25.1401L190.032 67.1907C191.287 68.471 192.274 69.9894 192.934 71.6566C193.594 73.3238 193.914 75.1061 193.875 76.8988C193.837 78.6915 193.44 80.4583 192.708 82.0954C191.976 83.7324 190.925 85.2066 189.615 86.4313L112.767 158.499C110.195 160.91 106.779 162.216 103.255 162.134C99.7304 162.053 96.3786 160.592 93.9203 158.065L51.7897 114.89C50.5304 113.594 49.5447 112.059 48.8917 110.374C48.2386 108.69 47.9314 106.891 47.9884 105.085C48.0454 103.28 48.4655 101.504 49.2236 99.864C49.9817 98.2242 51.0622 96.7538 52.4008 95.5405Z" fill="#FF6B15"/>
<path d="M187.005 86.6484L113.07 155.969C110.597 158.281 107.318 159.532 103.934 159.455C100.55 159.379 97.3306 157.98 94.9656 155.558L82.0814 142.354L54.4284 114.01C54.3613 113.944 54.2983 113.873 54.2399 113.799C53.0693 112.547 52.1592 111.075 51.5624 109.468C50.9657 107.861 50.6942 106.152 50.7638 104.439C50.8335 102.726 51.2427 101.045 51.9679 99.4915C52.6931 97.9384 53.7197 96.5449 54.9881 95.392L129.803 27.1333C132.281 24.8838 135.534 23.6813 138.88 23.7782C142.225 23.8751 145.403 25.2638 147.747 27.653L187.422 68.1102C188.632 69.344 189.583 70.8075 190.219 72.4145C190.854 74.0215 191.162 75.7395 191.123 77.4672C191.084 79.1949 190.7 80.8973 189.992 82.4741C189.285 84.051 188.27 85.4703 187.005 86.6484Z" fill="url(#paint2_linear_41_1108)"/>
<path d="M103.926 109.053C101.071 106.055 98.3122 102.988 95.0854 100.418C92.2756 98.1847 89.1516 96.3457 86.5188 93.9071C85.1025 92.5936 83.8346 91.1087 82.2927 89.9094C80.7507 88.71 78.866 87.8876 76.93 88.1047C75.6841 88.2985 74.4987 88.773 73.4633 89.4924C71.5437 90.7787 69.7653 92.2642 68.1578 93.9242C66.1284 95.9231 64.1867 98 62.3325 100.155C61.6643 100.932 60.9675 101.868 61.0589 102.856C61.1768 103.497 61.4493 104.099 61.8527 104.61C69.8482 116.523 78.2092 128.379 89.0488 137.768C93.2693 141.423 97.821 144.667 102.367 147.905C102.602 148.106 102.889 148.235 103.195 148.276C103.47 148.266 103.736 148.181 103.966 148.031C111.698 143.969 118.721 138.681 124.76 132.371C125.902 131.189 127.01 129.259 125.862 128.082C125.731 127.951 123.932 127.791 123.538 127.58C122.965 127.273 122.417 126.922 121.899 126.529C120.311 125.301 118.872 123.793 117.404 122.422C114.45 119.67 111.554 116.858 108.718 113.987C107.103 112.373 105.506 110.728 103.926 109.053Z" fill="#FF6B15"/>
<path d="M105.36 113.827C105.679 114.174 105.9 114.6 106.001 115.061C106.101 115.521 106.077 116 105.931 116.449C105.873 116.6 105.783 116.738 105.668 116.852C105.553 116.966 105.415 117.055 105.263 117.111C104.532 117.34 103.886 116.54 103.144 116.38C102.133 116.135 101.236 117.003 100.448 117.671C98.9061 118.979 96.9415 119.795 95.6965 121.383C95.5096 121.581 95.3694 121.818 95.2864 122.077C95.2034 122.336 95.1796 122.61 95.2168 122.879C95.3595 123.45 95.9135 123.77 96.4332 124.022C99.4087 125.512 102.795 126.494 106.062 125.861C109.329 125.227 112.344 122.639 112.721 119.333C112.798 118.774 112.753 118.205 112.59 117.665C112.122 116.255 110.751 115.352 109.734 114.353C108.927 113.482 108.188 112.55 107.524 111.566C107.096 110.995 106.502 110.007 105.708 109.892C104.669 109.75 103.823 111.109 103.372 111.834C103.886 112.599 104.783 113.102 105.36 113.827Z" fill="url(#paint3_linear_41_1108)"/>
<path d="M112.03 130.961C109.46 132.356 107.371 134.494 106.034 137.094C104.712 139.688 103.773 142.46 103.247 145.324C106.513 144.678 109.363 142.691 111.813 140.464C114.263 138.236 116.496 135.712 119.112 133.65C120.197 132.794 121.579 131.937 122.15 130.612C120.403 130.932 119.295 130.041 117.553 129.875C115.647 129.713 113.733 130.089 112.03 130.961Z" fill="url(#paint4_linear_41_1108)"/>
<path d="M132.396 82.8505C129.54 79.8522 126.776 76.7796 123.549 74.2097C120.745 71.9766 117.621 70.1377 114.983 67.699C113.567 66.3855 112.299 64.9006 110.757 63.7355C109.215 62.5705 107.33 61.7138 105.394 61.9251C104.148 62.1224 102.963 62.5988 101.927 63.3186C100.003 64.6013 98.2226 66.0871 96.6161 67.7504C94.5944 69.7455 92.6545 71.8205 90.7965 73.9755C90.1283 74.7522 89.4259 75.6603 89.523 76.6825C89.6355 77.3218 89.9065 77.9226 90.3111 78.4301C98.3066 90.3434 106.673 102.205 117.513 111.594C121.733 115.244 126.285 118.488 130.831 121.726C131.034 121.942 131.31 122.076 131.605 122.1C131.901 122.124 132.195 122.038 132.43 121.857C140.159 117.79 147.181 112.502 153.224 106.197C154.366 105.009 155.469 103.079 154.321 101.908C154.189 101.771 152.396 101.611 152.002 101.4C151.43 101.1 150.885 100.751 150.374 100.355C148.787 99.127 147.342 97.625 145.874 96.2544C142.92 93.5016 140.026 90.6899 137.193 87.8191C135.571 86.1743 133.972 84.5181 132.396 82.8505Z" fill="#FF6B15"/>
<path d="M127.873 83.9413C127.704 84.082 127.576 84.2652 127.501 84.472C127.427 84.6789 127.409 84.9018 127.45 85.1178C127.583 85.4221 127.812 85.6748 128.101 85.8374L131.288 88.1218C131.486 88.2361 131.645 88.4072 131.745 88.6129C131.809 88.8271 131.809 89.0555 131.745 89.2697C131.328 91.0239 130.814 92.7532 130.203 94.4497C130.164 94.6155 130.072 94.764 129.94 94.8723C129.802 94.9447 129.644 94.9727 129.489 94.9522C128.108 94.8839 126.772 94.4384 125.626 93.6642C124.48 92.8899 123.568 91.8164 122.99 90.5604C122.525 89.4223 122.259 88.2132 122.202 86.9853C122.108 86.0176 122.175 85.041 122.402 84.0955C123.544 79.8293 130.294 77.8133 130.928 83.3473C130.416 83.1402 129.855 83.086 129.312 83.1914C128.77 83.2968 128.27 83.5573 127.873 83.9413Z" fill="url(#paint5_linear_41_1108)"/>
<path d="M123.875 98.2704C125.432 101.278 126.799 104.379 127.97 107.557L130.768 114.667C131.528 116.609 132.305 118.636 132.162 120.715C132.16 121.125 132.031 121.524 131.791 121.857C131.22 122.514 130.18 122.325 129.358 122.063C117.364 118.185 107.267 110.024 98.0496 101.429C92.0073 95.7918 86.0107 89.5781 83.5149 81.7026C83.0068 80.3595 82.84 78.9112 83.0295 77.4878C83.4864 75.0949 87.4898 70.1091 90.2826 70.6002C92.3614 70.9715 94.4002 74.4209 96.5133 75.3975C103.681 78.6928 110.42 82.405 116.085 88.0019C119.171 91.0247 121.795 94.4845 123.875 98.2704Z" fill="url(#paint6_linear_41_1108)"/>
<path d="M104.263 148.025C104.262 148.435 104.132 148.835 103.892 149.167C103.321 149.83 102.281 149.641 101.459 149.373C95.074 147.311 89.2316 144.033 83.7547 140.127L57.3238 113.033C57.261 112.971 57.1982 112.902 57.1411 112.834C56.539 111.605 56.0293 110.334 55.6162 109.03C55.1059 107.687 54.9371 106.239 55.1251 104.815C55.5877 102.422 59.5911 97.4366 62.3781 97.9277C64.457 98.2989 66.4958 101.754 68.6089 102.725C75.782 106.02 82.5154 109.733 88.1865 115.329C91.2689 118.348 93.8933 121.802 95.9764 125.581C97.5305 128.589 98.898 131.69 100.071 134.867L102.864 141.977C103.629 143.919 104.406 145.946 104.263 148.025Z" fill="url(#paint7_linear_41_1108)"/>
<path d="M160.751 96.3572C160.75 96.7673 160.62 97.1667 160.38 97.4994C159.809 98.1619 158.77 97.9734 157.947 97.705C151.562 95.6433 145.72 92.3651 140.243 88.4588L113.795 61.3483C113.732 61.2855 113.669 61.217 113.612 61.1484C113.01 59.9202 112.501 58.6488 112.087 57.3449C111.577 56.0023 111.408 54.554 111.596 53.1301C112.059 50.7372 116.062 45.7514 118.849 46.2425C120.928 46.6138 122.967 50.069 125.08 51.0398C132.253 54.3351 138.987 58.0473 144.658 63.6442C147.742 66.672 150.367 70.1354 152.448 73.9241C154.002 76.9326 155.369 80.0338 156.542 83.2103L159.335 90.3206C160.118 92.2224 160.894 94.2498 160.751 96.3572Z" fill="url(#paint8_linear_41_1108)"/>
<path d="M140.5 104.752C137.928 106.148 135.838 108.288 134.503 110.892C133.181 113.484 132.243 116.254 131.716 119.116C134.983 118.47 137.833 116.489 140.283 114.256C142.733 112.023 144.966 109.504 147.582 107.442C148.661 106.586 150.043 105.729 150.614 104.404C148.872 104.73 147.759 103.833 146.045 103.673C144.132 103.503 142.21 103.877 140.5 104.752Z" fill="url(#paint9_linear_41_1108)"/>
<path d="M160.86 55.3517C158.004 52.3534 155.246 49.2808 152.019 46.7166C149.215 44.4835 146.091 42.6446 143.453 40.2059C142.036 38.8924 140.768 37.4075 139.232 36.2082C137.696 35.0089 135.805 34.1865 133.869 34.4035C132.621 34.6055 131.435 35.0899 130.403 35.8198C128.481 37.104 126.703 38.5897 125.097 40.2516C123.075 42.2505 121.134 44.3255 119.272 46.4767C118.604 47.2534 117.907 48.19 118.004 49.1837C118.117 49.823 118.387 50.4238 118.792 50.9313C126.788 62.8446 135.149 74.7065 145.994 84.0955C150.209 87.7506 154.766 90.9945 159.306 94.2327C159.541 94.4335 159.829 94.5624 160.135 94.6039C160.409 94.5905 160.674 94.5059 160.906 94.3583C168.635 90.293 175.657 85.0049 181.7 78.6986C182.842 77.5164 183.95 75.5803 182.802 74.4095C182.67 74.2782 180.871 74.1183 180.483 73.907C179.907 73.602 179.357 73.2505 178.838 72.8561C177.251 71.6225 175.811 70.1205 174.344 68.7499C171.393 65.9971 168.497 63.1854 165.657 60.3146C164.039 58.6812 162.44 57.0269 160.86 55.3517Z" fill="#FF6B15"/>
<path d="M156.925 53.0844C154.998 53.8992 153.047 54.6435 151.071 55.3174C150.986 55.3484 150.893 55.3484 150.808 55.3174C150.735 55.2712 150.68 55.2003 150.654 55.1175C150.29 54.3444 149.832 53.6193 149.289 52.9587C149.043 52.5907 148.672 52.3247 148.244 52.2106C147.956 52.1823 147.666 52.2337 147.405 52.3591C147.006 52.4967 146.645 52.7268 146.352 53.0306C146.06 53.3343 145.843 53.7031 145.72 54.1067C145.463 55.2489 146.251 56.3397 146.445 57.4933C146.48 57.5873 146.48 57.6906 146.445 57.7846C146.368 57.8788 146.258 57.9401 146.137 57.9559C144.727 58.3035 143.29 58.5271 141.842 58.6241C141.705 58.6465 141.565 58.6306 141.437 58.5784C141.334 58.5037 141.251 58.4057 141.195 58.2924C141.138 58.1791 141.109 58.054 141.111 57.9274C140.795 56.3086 140.754 54.6481 140.991 53.0158C141.117 52.2 141.431 51.4245 141.907 50.7505C142.384 50.0766 143.011 49.5226 143.738 49.1323C144.411 48.855 145.125 48.6891 145.851 48.6412C146.841 48.5248 147.843 48.546 148.827 48.704C150.586 49.0181 152.145 49.9433 153.721 50.7371C154.292 51.0341 154.932 51.1141 155.514 51.3711C155.72 51.491 157.102 53.0044 156.925 53.0844Z" fill="url(#paint10_linear_41_1108)"/>
<path d="M168.992 77.2537C166.42 78.6482 164.329 80.7884 162.996 83.3931C161.675 85.9855 160.736 88.7556 160.209 91.617C163.475 90.9716 166.32 88.9899 168.775 86.7626C171.231 84.5353 173.464 82.011 176.074 79.9436C177.159 79.0926 178.541 78.2302 179.112 76.911C177.399 77.2308 176.257 76.3399 174.544 76.1743C172.628 76.0052 170.705 76.3793 168.992 77.2537Z" fill="url(#paint11_linear_41_1108)"/>
<path d="M88.8832 90.5776C85.2431 94.4406 83.2147 99.5474 83.2122 104.855L115.126 93.3588C115.388 93.2618 110.214 87.3736 109.66 86.8996C107.907 85.4147 106.473 84.3753 104.16 84.2154C98.5749 83.8214 92.6754 86.5912 88.8832 90.5776Z" fill="#FF6B15"/>
<path d="M88.8832 90.5776C85.2431 94.4406 83.2147 99.5474 83.2122 104.855L115.126 93.3588C115.388 93.2618 110.214 87.3736 109.66 86.8996C107.907 85.4147 106.473 84.3753 104.16 84.2154C98.5749 83.8214 92.6754 86.5912 88.8832 90.5776Z" fill="url(#paint12_linear_41_1108)"/>
<path d="M85.4052 101.183L85.6793 99.721C85.8545 98.655 86.1142 97.6047 86.456 96.5799C86.8921 95.3995 87.5448 94.311 88.3807 93.3703C89.066 92.644 89.8048 91.9701 90.5908 91.3543C92.6982 89.6124 94.7885 87.9962 97.3585 86.9796C99.339 86.1194 101.482 85.6967 103.641 85.7403C105.905 85.9194 108.05 86.8286 109.753 88.3312C111.457 89.8337 112.626 91.8485 113.087 94.0728L111.945 94.6439C111.083 93.0785 110.059 91.6084 108.889 90.2578C107.71 88.9005 106.13 87.9527 104.377 87.5507C101.893 87.0767 99.3916 88.1218 97.0957 89.1727C94.1374 90.549 90.8992 92.1481 89.3915 95.1521C88.0151 97.8877 86.6102 100.772 86.7016 103.827L84.8284 104.284L85.4052 101.183Z" fill="#FF6B15"/>
<path d="M94.3374 99.2641C94.5906 99.1834 94.8136 99.0282 94.977 98.8186C95.0906 98.607 95.1402 98.3669 95.1198 98.1276C95.1138 97.2374 94.989 96.352 94.7486 95.4948L91.5047 97.2081C91.323 97.0809 91.1897 96.896 91.1264 96.6835C91.0632 96.4709 91.0737 96.2432 91.1564 96.0373C91.335 95.6266 91.6139 95.2673 91.9673 94.9922C94.0235 93.1433 96.3597 91.6321 98.8891 90.5147C99.8314 90.0679 100.831 89.7527 101.859 89.5781C102.005 89.5392 102.158 89.5298 102.308 89.5503C102.458 89.5709 102.602 89.6211 102.733 89.6981C102.894 89.8364 103.008 90.0223 103.058 90.2292C103.231 90.8481 103.194 91.5069 102.952 92.1023C102.71 92.6977 102.277 93.1959 101.722 93.5188C101.002 93.9128 100.134 93.9756 99.4374 94.3983C98.7407 94.8209 98.2952 95.8831 98.8663 96.4428C99.2889 96.8369 99.9628 96.7341 100.523 96.5856C102.844 95.9412 105.114 95.1222 107.313 94.1356C108.764 93.513 110.254 92.8563 111.836 92.8506C111.928 92.9089 112.008 92.9859 112.068 93.0766C112.129 93.1673 112.17 93.2698 112.189 93.3774C112.208 93.485 112.204 93.5953 112.178 93.7013C112.151 93.8073 112.103 93.9066 112.036 93.9928C111.756 94.3311 111.383 94.5794 110.962 94.7067L105.822 96.8312C104.229 97.5313 102.594 98.134 100.928 98.6359C99.2604 99.1099 97.5413 99.384 95.8566 99.7781C92.4099 100.608 89.1173 101.98 86.1021 103.844C86.2562 103.747 86.3419 102.805 86.7474 102.531C87.5298 102.105 88.35 101.754 89.1974 101.48L94.3374 99.2641Z" fill="#FF6B15"/>
<path d="M106.633 92.6678C107.124 92.6678 107.97 92.862 108.055 92.1824C108.066 92.0783 108.055 91.9733 108.024 91.8734C107.993 91.7735 107.943 91.6808 107.876 91.6005C107.809 91.5203 107.727 91.4541 107.634 91.406C107.541 91.3578 107.44 91.3286 107.336 91.32C106.822 91.2713 106.306 91.3981 105.874 91.6798C105.205 92.2509 106.119 92.6507 106.633 92.6678Z" fill="#FF6B15"/>
<path d="M89.3115 100.098C89.797 100.098 90.6422 100.292 90.7279 99.6125C90.7397 99.5083 90.7305 99.4028 90.7007 99.3023C90.671 99.2018 90.6213 99.1082 90.5548 99.0273C90.4882 98.9463 90.406 98.8795 90.3131 98.8309C90.2202 98.7823 90.1185 98.7529 90.014 98.7444C89.4976 98.6987 88.9809 98.8274 88.5462 99.1099C87.8952 99.681 88.7975 100.075 89.3115 100.098Z" fill="#FF6B15"/>
<path d="M105.24 90.4119C105.731 90.4119 106.576 90.6061 106.662 89.9265C106.673 89.822 106.663 89.7164 106.632 89.6158C106.602 89.5153 106.552 89.4218 106.485 89.3409C106.418 89.2601 106.335 89.1934 106.242 89.1449C106.149 89.0964 106.047 89.067 105.942 89.0584C105.428 89.0114 104.912 89.1402 104.48 89.4239C103.812 89.995 104.726 90.3891 105.24 90.4119Z" fill="#FF6B15"/>
<path d="M93.4864 92.9819C93.9776 92.9819 94.8228 93.1761 94.9085 92.4965C94.9187 92.3921 94.9082 92.2868 94.8775 92.1866C94.8468 92.0863 94.7965 91.9932 94.7296 91.9125C94.6627 91.8318 94.5805 91.7651 94.4877 91.7163C94.3949 91.6676 94.2933 91.6377 94.1889 91.6284C93.6743 91.5813 93.1588 91.7102 92.7269 91.9939C92.0587 92.565 92.9782 92.9591 93.4864 92.9819Z" fill="#FF6B15"/>
<path d="M92.8068 99.0128C93.2922 99.0128 94.1375 99.207 94.2231 98.5274C94.2349 98.4232 94.2257 98.3177 94.196 98.2172C94.1662 98.1167 94.1166 98.0231 94.05 97.9422C93.9834 97.8612 93.9012 97.7944 93.8083 97.7458C93.7154 97.6972 93.6137 97.6678 93.5092 97.6593C92.9927 97.6109 92.475 97.7398 92.0415 98.0248C91.3733 98.5959 92.2928 98.99 92.8068 99.0128Z" fill="#FF6B15"/>
<path d="M101.813 89.2183C102.299 89.2183 103.144 89.4125 103.229 88.7329C103.24 88.6284 103.23 88.5228 103.2 88.4222C103.17 88.3217 103.119 88.2282 103.052 88.1473C102.985 88.0665 102.903 87.9998 102.81 87.9513C102.717 87.9028 102.615 87.8734 102.51 87.8648C101.995 87.8178 101.48 87.9466 101.048 88.2303C100.38 88.8014 101.299 89.1955 101.813 89.2183Z" fill="#FF6B15"/>
<path d="M152.03 77.3736C150.715 72.2315 147.485 67.7862 143.001 64.9463L135.64 98.0705C135.583 98.3446 143.321 97.1282 144.018 96.9283C146.211 96.2429 147.856 95.5862 149.232 93.7187C152.55 89.1784 153.367 82.7077 152.03 77.3736Z" fill="#FF6B15"/>
<path d="M152.03 77.3736C150.715 72.2315 147.485 67.7862 143.001 64.9463L135.64 98.0705C135.583 98.3446 143.321 97.1282 144.018 96.9283C146.211 96.2429 147.856 95.5862 149.232 93.7187C152.55 89.1784 153.367 82.7077 152.03 77.3736Z" fill="url(#paint13_linear_41_1108)"/>
<path d="M144.756 68.934L145.841 69.9505C146.647 70.6658 147.394 71.445 148.074 72.2807C148.84 73.2807 149.412 74.416 149.759 75.6273C150.004 76.5956 150.177 77.5806 150.278 78.5743C150.621 81.2813 150.849 83.9141 150.353 86.6269C150.021 88.7598 149.232 90.7957 148.04 92.5949C146.68 94.4119 144.768 95.7388 142.59 96.3763C140.411 97.0137 138.085 96.9273 135.961 96.1301L136.109 94.8679C137.892 94.979 139.682 94.9005 141.449 94.6338C143.228 94.3631 144.876 93.5353 146.155 92.2694C147.868 90.4247 148.348 87.7577 148.674 85.2505C149.102 82.018 149.479 78.4258 147.748 75.5417C146.172 72.9146 144.493 70.1847 141.86 68.6256L142.477 66.798L144.756 68.934Z" fill="#FF6B15"/>
<path d="M141.773 77.3336C141.707 77.5901 141.719 77.8606 141.808 78.1103C141.927 78.3187 142.104 78.489 142.316 78.6015C143.072 79.0713 143.886 79.44 144.738 79.698L145.006 76.0258C145.211 75.9405 145.439 75.9274 145.653 75.9886C145.867 76.0498 146.053 76.1817 146.182 76.3627C146.434 76.7311 146.588 77.1577 146.628 77.602C147.098 80.3285 147.129 83.1126 146.719 85.8488C146.586 86.8827 146.317 87.8947 145.92 88.8585C145.874 89.0032 145.8 89.1372 145.702 89.2529C145.604 89.3686 145.484 89.4637 145.349 89.5324C145.146 89.5979 144.928 89.5979 144.726 89.5324C144.112 89.3473 143.576 88.9638 143.203 88.4419C142.83 87.9201 142.641 87.2894 142.664 86.6484C142.716 85.826 143.127 85.055 143.15 84.2326C143.173 83.4102 142.522 82.4507 141.722 82.662C141.151 82.8048 140.888 83.433 140.717 83.987C140.028 86.2921 139.514 88.646 139.181 91.0287C138.929 92.5879 138.689 94.1984 137.85 95.5348C137.752 95.5813 137.646 95.6071 137.538 95.6105C137.43 95.6139 137.322 95.5949 137.222 95.5547C137.122 95.5144 137.031 95.4538 136.955 95.3767C136.879 95.2995 136.82 95.2075 136.782 95.1064C136.649 94.6879 136.639 94.2398 136.753 93.8157L137.707 88.3388C137.97 86.6189 138.334 84.9159 138.798 83.2388C139.295 81.5769 139.986 79.9778 140.546 78.333C141.684 74.9781 142.286 71.4644 142.327 67.9218C142.327 68.0988 143.07 68.6813 143.093 69.1668C143.031 70.0576 142.888 70.9408 142.664 71.8053L141.773 77.3336Z" fill="#FF6B15"/>
<path d="M140.763 91.2514C140.483 91.6512 139.889 92.2737 140.414 92.7078C140.497 92.7768 140.593 92.8281 140.697 92.8585C140.801 92.8888 140.909 92.8976 141.016 92.8842C141.123 92.8708 141.227 92.8356 141.32 92.7807C141.412 92.7257 141.493 92.6523 141.556 92.565C141.869 92.1528 142.036 91.6486 142.03 91.1315C141.882 90.2634 141.06 90.8288 140.763 91.2514Z" fill="#FF6B15"/>
<path d="M143.761 72.6391C143.481 73.0389 142.881 73.6614 143.413 74.1011C143.495 74.1649 143.589 74.2118 143.69 74.2391C143.791 74.2664 143.896 74.2737 143.999 74.2604C144.102 74.2472 144.202 74.2137 144.293 74.1618C144.383 74.11 144.463 74.0409 144.526 73.9584C144.842 73.5481 145.009 73.0426 145 72.5249C144.88 71.6568 144.052 72.2165 143.761 72.6391Z" fill="#FF6B15"/>
<path d="M143.418 91.28C143.138 91.6798 142.544 92.3023 143.07 92.7421C143.152 92.8058 143.247 92.8527 143.347 92.88C143.448 92.9074 143.553 92.9146 143.656 92.9014C143.76 92.8881 143.859 92.8546 143.95 92.8028C144.04 92.7509 144.12 92.6818 144.183 92.5993C144.501 92.1897 144.671 91.6842 144.663 91.1658C144.538 90.2977 143.715 90.8574 143.418 91.28Z" fill="#FF6B15"/>
<path d="M147.536 79.9778C147.256 80.3776 146.656 81.0001 147.188 81.4341C147.27 81.504 147.366 81.556 147.47 81.5868C147.574 81.6176 147.683 81.6266 147.79 81.6132C147.897 81.5998 148.001 81.5643 148.094 81.5089C148.186 81.4535 148.267 81.3794 148.33 81.2914C148.646 80.8834 148.816 80.3801 148.809 79.8636C148.655 78.9898 147.827 79.5552 147.536 79.9778Z" fill="#FF6B15"/>
<path d="M142.807 76.1743C142.527 76.574 141.933 77.1965 142.459 77.6306C142.541 77.7004 142.637 77.7524 142.741 77.7832C142.845 77.8141 142.954 77.8231 143.061 77.8096C143.168 77.7962 143.272 77.7607 143.365 77.7053C143.458 77.6499 143.538 77.5758 143.601 77.4878C143.918 77.0798 144.087 76.5765 144.081 76.06C143.926 75.1862 143.098 75.7516 142.807 76.1743Z" fill="#FF6B15"/>
<path d="M146.262 89.0184C145.982 89.4239 145.383 90.0407 145.908 90.4805C145.992 90.5487 146.088 90.5994 146.191 90.6292C146.295 90.6591 146.403 90.6676 146.51 90.6543C146.617 90.6409 146.72 90.606 146.813 90.5515C146.906 90.4971 146.987 90.4244 147.05 90.3377C147.366 89.9274 147.533 89.422 147.524 88.9042C147.376 88.0361 146.554 88.5958 146.262 89.0184Z" fill="#FF6B15"/>
<path d="M115.497 62.1764C115.894 67.4671 118.297 72.4064 122.213 75.9858L135.246 44.6777C135.354 44.415 127.519 44.2608 126.799 44.3522C124.515 44.6434 122.801 45.0032 121.088 46.6023C117.022 50.463 115.114 56.6881 115.497 62.1764Z" fill="#FF6B15"/>
<path d="M115.497 62.1764C115.894 67.4671 118.297 72.4064 122.213 75.9858L135.246 44.6777C135.354 44.415 127.519 44.2608 126.799 44.3522C124.515 44.6434 122.801 45.0032 121.088 46.6023C117.022 50.463 115.114 56.6881 115.497 62.1764Z" fill="url(#paint14_linear_41_1108)"/>
<path d="M120.858 71.6223L119.967 70.4287C119.297 69.5828 118.697 68.6831 118.174 67.7388C117.591 66.6226 117.226 65.4052 117.1 64.1522C117.026 63.1561 117.026 62.1558 117.1 61.1596C117.237 58.4354 117.454 55.7969 118.437 53.2212C119.134 51.1775 120.266 49.309 121.755 47.7443C123.413 46.1972 125.529 45.2295 127.784 44.9865C130.039 44.7435 132.312 45.2382 134.262 46.3965L133.896 47.6187C132.161 47.1987 130.387 46.9613 128.602 46.9105C126.803 46.8702 125.036 47.3978 123.554 48.4182C121.532 49.9374 120.607 52.4788 119.847 54.8889C118.865 57.9957 117.86 61.468 119.065 64.5977C120.156 67.4532 121.349 70.4401 123.634 72.4333L122.703 74.1466L120.858 71.6223Z" fill="#FF6B15"/>
<path d="M125.588 64.004C125.698 63.7628 125.734 63.4945 125.691 63.233C125.612 63.0054 125.467 62.8065 125.274 62.6619C124.614 62.0654 123.876 61.5602 123.081 61.1598L122.162 64.7236C121.945 64.7728 121.718 64.747 121.518 64.6506C121.317 64.5541 121.156 64.3926 121.059 64.1924C120.879 63.7832 120.803 63.336 120.837 62.8903C120.856 60.1245 121.315 57.3794 122.196 54.7577C122.508 53.7637 122.95 52.8152 123.509 51.9365C123.579 51.8007 123.675 51.6803 123.791 51.5822C123.908 51.4841 124.043 51.4104 124.189 51.3654C124.401 51.3448 124.614 51.3886 124.8 51.491C125.373 51.78 125.833 52.2508 126.109 52.8296C126.385 53.4085 126.461 54.0625 126.325 54.6892C126.131 55.4888 125.594 56.1798 125.428 56.9736C125.263 57.7675 125.737 58.8354 126.571 58.7669C127.142 58.7212 127.53 58.1558 127.798 57.6247C128.875 55.4718 129.792 53.2422 130.54 50.9542C131.059 49.4636 131.579 47.9216 132.636 46.7508C133.035 46.5738 133.509 46.9393 133.612 47.3619C133.669 47.7968 133.6 48.2389 133.412 48.6355L131.522 53.8611C130.962 55.5092 130.304 57.1226 129.552 58.6927C128.775 60.2461 127.838 61.6967 126.982 63.2158C125.268 66.3191 124.059 69.6754 123.401 73.1588C123.435 72.9818 122.83 72.2793 122.87 71.7996C123.082 70.9321 123.377 70.0869 123.749 69.2753L125.588 64.004Z" fill="#FF6B15"/>
<path d="M129.015 50.4802C129.358 50.1318 130.054 49.6235 129.615 49.1038C129.545 49.0226 129.459 48.9564 129.363 48.9093C129.267 48.8622 129.163 48.8351 129.056 48.8298C128.949 48.8244 128.842 48.8409 128.742 48.8782C128.641 48.9155 128.55 48.9728 128.472 49.0467C128.088 49.3956 127.835 49.8649 127.753 50.3774C127.741 51.2397 128.649 50.8457 129.015 50.4802Z" fill="#FF6B15"/>
<path d="M122.813 68.2815C123.161 67.9332 123.858 67.4249 123.412 66.9052C123.343 66.824 123.257 66.7578 123.161 66.7107C123.065 66.6636 122.96 66.6365 122.854 66.6312C122.747 66.6258 122.64 66.6423 122.54 66.6796C122.439 66.7169 122.348 66.7742 122.27 66.8481C121.887 67.1956 121.634 67.6627 121.551 68.173C121.539 69.0525 122.453 68.6413 122.813 68.2815Z" fill="#FF6B15"/>
<path d="M126.405 49.9833C126.753 49.6406 127.45 49.1323 126.976 48.6069C126.906 48.5261 126.82 48.4604 126.724 48.4138C126.628 48.3672 126.523 48.3407 126.416 48.3358C126.309 48.331 126.202 48.348 126.102 48.3858C126.002 48.4236 125.911 48.4813 125.834 48.5555C125.454 48.9052 125.201 49.3713 125.114 49.8805C125.131 50.76 126.045 50.3488 126.405 49.9833Z" fill="#FF6B15"/>
<path d="M120.38 60.3774C120.722 60.0291 121.419 59.5208 120.951 59.0011C120.882 58.9188 120.796 58.8517 120.7 58.8042C120.604 58.7566 120.498 58.7295 120.391 58.7247C120.284 58.7199 120.177 58.7374 120.076 58.7761C119.976 58.8148 119.885 58.8739 119.809 58.9497C119.423 59.2951 119.169 59.7632 119.089 60.2746C119.106 61.1713 120.014 60.7601 120.38 60.3774Z" fill="#FF6B15"/>
<path d="M124.366 64.9463C124.714 64.5979 125.411 64.0896 124.937 63.5699C124.867 63.4887 124.782 63.4225 124.686 63.3754C124.59 63.3283 124.485 63.3012 124.378 63.2959C124.271 63.2906 124.165 63.307 124.064 63.3443C123.964 63.3816 123.872 63.4389 123.795 63.5128C123.414 63.8611 123.163 64.3282 123.081 64.8378C123.098 65.7401 124.006 65.3289 124.366 64.9463Z" fill="#FF6B15"/>
<path d="M123.213 51.7137C123.561 51.3654 124.258 50.8571 123.784 50.3374C123.714 50.2561 123.629 50.19 123.532 50.1429C123.436 50.0958 123.332 50.0687 123.225 50.0634C123.118 50.058 123.011 50.0745 122.911 50.1118C122.811 50.1491 122.719 50.2064 122.641 50.2803C122.257 50.6292 122.004 51.0985 121.922 51.6109C121.939 52.4904 122.853 52.0792 123.213 51.7137Z" fill="#FF6B15"/>
<path d="M99.2261 112.776C100.593 114.139 102.213 115.221 103.995 115.963C105.36 116.534 107.296 116.706 107.993 115.392C108.27 114.68 108.27 113.889 107.993 113.176C107.442 111.22 106.523 109.386 105.286 107.774L114.6 103.496C115.992 105.704 116.526 108.345 116.102 110.92C115.678 113.468 114.672 115.884 113.161 117.979C112.132 119.609 110.726 120.966 109.061 121.937C107.119 122.971 104.834 123.159 102.641 122.994C99.3917 122.742 96.005 121.623 93.5835 119.373C91.9959 117.899 91.8702 117.151 93.7206 116.026C95.571 114.901 97.4328 113.942 99.2261 112.776Z" fill="#FF6B15"/>
<path d="M99.3687 113.525C100.739 114.883 102.358 115.965 104.137 116.711C105.502 117.283 107.438 117.454 108.135 116.14C108.413 115.428 108.413 114.637 108.135 113.924C107.584 111.968 106.666 110.134 105.428 108.522L114.737 104.244C116.122 106.444 116.656 109.074 116.239 111.64C115.815 114.19 114.809 116.607 113.298 118.705C112.266 120.332 110.86 121.689 109.197 122.662C107.256 123.69 104.971 123.879 102.778 123.713C99.5287 123.468 96.1477 122.348 93.7205 120.098C92.1328 118.619 92.0072 117.876 93.8576 116.746C95.708 115.615 97.604 114.684 99.3687 113.525Z" fill="url(#paint15_linear_41_1108)"/>
<path d="M131.905 80.5775C130.436 80.7172 129.009 81.14 127.701 81.8225C126.702 82.3422 125.651 83.3987 126.091 84.4382C126.37 84.9535 126.836 85.3419 127.393 85.5233C128.813 86.1539 130.34 86.5086 131.893 86.5684L129.854 94.1298C127.884 93.8711 126.076 92.9001 124.772 91.4C123.483 89.9067 122.556 88.1359 122.065 86.2257C121.61 84.8239 121.499 83.3335 121.739 81.8796C122.158 80.2429 123.031 78.7581 124.258 77.5963C125.985 75.7188 128.287 74.4692 130.802 74.044C132.447 73.827 132.944 74.124 132.71 75.7573C132.476 77.3907 132.099 78.9555 131.905 80.5775Z" fill="#FF6B15"/>
<path d="M131.396 80.2977C129.928 80.4374 128.501 80.8602 127.193 81.5427C126.194 82.0681 125.149 83.1189 125.583 84.1583C125.865 84.671 126.33 85.0585 126.885 85.2434C128.305 85.8741 129.832 86.2288 131.385 86.2886L129.346 93.85C127.377 93.5915 125.571 92.6203 124.269 91.1201C122.978 89.6272 122.05 87.8565 121.556 85.9459C121.102 84.544 120.99 83.0537 121.231 81.5998C121.653 79.9647 122.526 78.4808 123.749 77.3165C125.478 75.4376 127.782 74.1877 130.3 73.7642C131.945 73.5472 132.436 73.8441 132.202 75.4775C131.968 77.1109 131.591 78.6529 131.396 80.2977Z" fill="url(#paint16_linear_41_1108)"/>
<path d="M151.362 53.8097C150.556 52.5736 149.516 51.5066 148.301 50.6686C147.37 50.029 145.954 49.5949 145.234 50.4687C144.915 50.9576 144.79 51.5487 144.886 52.1249C144.991 53.6748 145.391 55.1904 146.062 56.591L138.421 58.3043C137.736 56.4397 137.752 54.3897 138.467 52.5361C139.183 50.6964 140.315 49.0469 141.773 47.716C142.806 46.6738 144.07 45.891 145.463 45.4316C147.107 45.0398 148.829 45.117 150.431 45.6543C152.898 46.3051 155.078 47.7577 156.628 49.7834C157.587 51.1426 157.553 51.7137 156.005 52.2677C154.458 52.8217 152.893 53.2272 151.362 53.8097Z" fill="#FF6B15"/>
<path d="M151.374 53.2329C150.567 51.9988 149.527 50.9338 148.313 50.0975C147.382 49.4579 145.96 49.0238 145.246 49.8976C144.922 50.3847 144.797 50.9775 144.898 51.5538C145.001 53.104 145.4 54.62 146.074 56.0199L138.433 57.7332C137.746 55.8693 137.76 53.8193 138.473 51.965C139.194 50.1278 140.327 48.4806 141.785 47.1506C142.813 46.0962 144.078 45.3031 145.474 44.8376C147.117 44.4457 148.836 44.5229 150.437 45.0603C152.906 45.7096 155.088 47.1624 156.639 49.1894C157.599 50.543 157.565 51.1198 156.011 51.6738C154.458 52.2277 152.899 52.6446 151.374 53.2329Z" fill="url(#paint17_linear_41_1108)"/>
<path d="M84.9427 111C85.1243 111.235 85.2444 111.512 85.2923 111.805C85.3401 112.098 85.3142 112.399 85.2168 112.679C84.9655 113.388 83.7719 116.043 82.8067 114.718C82.0243 113.65 84.1945 111.629 84.9427 111Z" fill="url(#paint18_linear_41_1108)"/>
<path d="M88.4091 110.463C88.1561 110.658 87.9466 110.903 87.7941 111.184C87.6416 111.464 87.5496 111.773 87.5239 112.091C87.5264 112.321 87.5868 112.546 87.6997 112.745C87.8125 112.945 87.9741 113.113 88.1693 113.233L89.6085 111.72C89.6764 111.664 89.7245 111.588 89.7455 111.503C89.7506 111.442 89.7408 111.382 89.717 111.326C89.6377 111.015 89.4642 110.735 89.2201 110.526C89.1571 110.481 89.0855 110.448 89.0095 110.431C88.9336 110.414 88.855 110.413 88.7785 110.427C88.702 110.442 88.6293 110.472 88.5648 110.515C88.5003 110.559 88.4454 110.615 88.4034 110.681" fill="url(#paint19_linear_41_1108)"/>
<path d="M75.8106 108.676C75.781 108.699 75.7565 108.729 75.7389 108.762C75.7212 108.796 75.7106 108.832 75.7078 108.87C75.7078 109.007 75.8848 109.053 76.0219 109.047C76.6185 108.966 77.1711 108.689 77.5924 108.259C77.9465 107.951 80.3337 106.546 78.9117 106.317C78.0721 106.186 76.3417 108.116 75.8106 108.676Z" fill="url(#paint20_linear_41_1108)"/>
<path d="M74.4628 98.6416C74.3101 98.6213 74.1551 98.6535 74.0231 98.733C73.9432 98.8203 73.8989 98.9344 73.8989 99.0528C73.8989 99.1712 73.9432 99.2852 74.0231 99.3726C74.1782 99.5436 74.3749 99.6715 74.5942 99.7438C75.6016 100.142 76.6385 100.46 77.6953 100.698C78.1807 100.806 77.5868 99.1613 77.227 98.9843C76.5474 98.5788 75.2167 98.6416 74.4628 98.6416Z" fill="url(#paint21_linear_41_1108)"/>
<path d="M91.8415 106.186C91.5947 106.409 91.3998 106.684 91.2704 106.991C91.2051 107.146 91.1909 107.317 91.23 107.481C91.269 107.644 91.3592 107.791 91.4874 107.899C91.6202 107.978 91.7742 108.015 91.9285 108.004C92.0828 107.993 92.2298 107.934 92.3498 107.836C92.5865 107.638 92.7594 107.373 92.8466 107.077C92.9047 106.944 92.9188 106.796 92.8866 106.654C92.7952 106.392 92.4526 106.34 92.1727 106.329L90.8706 106.283" fill="url(#paint22_linear_41_1108)"/>
<path d="M92.287 112.919C91.8415 113.303 91.5196 113.809 91.3618 114.376C91.3218 114.53 91.3218 114.747 91.476 114.787C91.6302 114.827 91.6873 114.735 91.7673 114.655C92.0838 114.334 92.3583 113.973 92.5839 113.582C92.7381 113.319 92.8352 112.908 92.5839 112.771C92.4211 112.892 92.3043 113.065 92.2527 113.262" fill="url(#paint23_linear_41_1108)"/>
<path d="M85.9763 121.686C85.9135 121.714 85.8507 121.76 85.845 121.823C85.847 121.852 85.8552 121.88 85.869 121.906C85.8828 121.931 85.9019 121.954 85.9249 121.971C86.3564 122.4 86.869 122.737 87.4326 122.965C88.3039 123.318 89.2613 123.399 90.1797 123.199C90.8422 123.062 89.5172 121.143 89.1003 121C88.118 120.681 86.8273 121.246 85.9763 121.686Z" fill="url(#paint24_linear_41_1108)"/>
<path d="M99.9455 125.541C99.7913 125.666 99.6257 125.855 99.7056 126.032C99.7856 126.209 99.9969 126.209 100.18 126.186H100.231C100.802 126.095 102.613 126.032 102.127 125.272C101.642 124.513 100.42 125.158 99.9455 125.541Z" fill="url(#paint25_linear_41_1108)"/>
<path d="M108.541 128.259C109.42 128.328 110.146 127.562 110.534 126.769C110.922 125.975 111.134 125.055 111.71 124.404C111.834 124.283 111.945 124.149 112.042 124.004C111.203 124.481 110.464 125.115 109.866 125.872C109.381 126.643 108.939 127.44 108.541 128.259Z" fill="url(#paint26_linear_41_1108)"/>
<path d="M98.7863 132.434C98.3274 132.393 97.8663 132.482 97.4556 132.691C97.3573 132.747 97.2711 132.822 97.2021 132.912C97.133 133.002 97.0824 133.104 97.0532 133.214C97.024 133.323 97.0167 133.437 97.0319 133.549C97.0471 133.662 97.0843 133.77 97.1415 133.867C97.2832 133.996 97.453 134.09 97.6374 134.142C97.8219 134.194 98.0158 134.201 98.2038 134.164L99.9971 134.102C100.598 134.126 101.197 134.003 101.739 133.742C104.155 132.337 99.4145 132.428 98.7863 132.434Z" fill="url(#paint27_linear_41_1108)"/>
<path d="M102.407 128.67C102.453 128.67 102.407 128.562 102.356 128.573C102.304 128.585 102.27 128.636 102.247 128.688C101.965 129.313 101.826 129.994 101.842 130.681C102.452 130.287 102.937 129.728 103.241 129.069C103.544 128.409 103.653 127.676 103.555 126.957" fill="url(#paint28_linear_41_1108)"/>
<path d="M121.648 101.537C122.013 101.823 122.55 101.623 122.938 101.371C124.031 100.651 124.82 99.553 125.154 98.2875C125.725 96.123 124.012 97.3338 123.218 98.2076C122.933 98.5274 121.134 101.137 121.648 101.537Z" fill="url(#paint29_linear_41_1108)"/>
<path d="M120.774 94.2726C119.782 93.7066 118.633 93.48 117.501 93.6273C117.414 93.6279 117.33 93.6628 117.267 93.7244C117.222 93.7872 117.202 93.8645 117.21 93.9414C117.244 94.5982 118.004 94.9808 118.666 95.0151C119.324 94.9603 119.985 94.9833 120.637 95.0836C120.726 94.6557 120.666 94.21 120.465 93.8215" fill="url(#paint30_linear_41_1108)"/>
<path d="M100.111 78.2702C99.9112 78.5729 100.151 79.0012 100.477 79.1554C100.822 79.2689 101.188 79.3116 101.55 79.2811C102.464 79.2811 103.264 79.7037 104.137 79.8522C102.949 79.224 101.516 78.2302 100.111 78.2702Z" fill="url(#paint31_linear_41_1108)"/>
<path d="M110.168 71.3769C110.168 71.1542 110.237 70.8801 110.454 70.8344C110.671 70.7887 110.785 70.9372 110.882 71.0857C111.156 71.5197 111.453 73.7642 110.928 73.9412C110.02 74.3296 110.168 71.7653 110.168 71.3769Z" fill="url(#paint32_linear_41_1108)"/>
<path d="M108.786 78.8014C108.156 78.6032 107.601 78.2189 107.193 77.6991C106.785 77.1792 106.544 76.5481 106.502 75.8887C106.968 75.771 107.454 75.7607 107.925 75.8585C108.395 75.9564 108.837 76.1599 109.217 76.4537C109.597 76.7475 109.905 77.1238 110.119 77.5542C110.332 77.9847 110.445 78.458 110.448 78.9384C110.448 79.0298 110.448 79.144 110.351 79.1897C110.292 79.2097 110.228 79.2097 110.168 79.1897C109.754 79.0635 109.383 78.8219 109.1 78.493" fill="url(#paint33_linear_41_1108)"/>
<path d="M111.882 87.7905C111.812 87.8558 111.766 87.9421 111.75 88.0361C111.75 88.1903 111.882 88.3103 112.025 88.3731C112.75 88.6986 113.567 88.2646 114.241 87.8477L115.862 86.8368C116.045 86.7226 116.251 86.5684 116.239 86.3514C116.131 84.1469 112.35 87.2765 111.882 87.7905Z" fill="url(#paint34_linear_41_1108)"/>
<path d="M116.907 79.4067C116.77 79.4524 116.61 79.5266 116.588 79.6751C116.584 79.7233 116.591 79.7717 116.608 79.817C116.624 79.8624 116.651 79.9036 116.685 79.9378C117.222 80.6232 119.866 80.9715 119.991 79.8522C120.174 78.2759 117.524 79.1897 116.907 79.4067Z" fill="url(#paint35_linear_41_1108)"/>
<path d="M131.031 96.6599C130.603 96.4963 130.137 96.4606 129.689 96.5571C129.255 96.7055 128.935 97.2595 129.198 97.6365C129.399 97.8457 129.673 97.9702 129.963 97.9848C131.3 98.242 132.61 98.6244 133.875 99.127C134.298 99.2927 134.349 97.6536 134.081 97.3737C133.641 96.9283 131.676 96.8369 131.031 96.6599Z" fill="url(#paint36_linear_41_1108)"/>
<path d="M140.511 100.926C140.504 100.03 140.581 99.1351 140.74 98.2532C140.855 98.2075 140.979 98.1869 141.103 98.1928C141.227 98.1987 141.349 98.231 141.459 98.2875C141.711 98.4703 141.699 98.8586 141.665 99.1442L141.431 101.057C141.429 101.155 141.4 101.25 141.345 101.332C141.268 101.408 141.167 101.457 141.059 101.469C140.7 101.554 140.334 101.617 139.969 101.668L139.655 101.035" fill="url(#paint37_linear_41_1108)"/>
<path d="M108.409 67.8703C108.283 67.6687 108.117 67.4955 107.92 67.3618C107.723 67.2281 107.501 67.1367 107.267 67.0936C106.988 66.99 106.689 66.9529 106.393 66.9851C106.246 67.0016 106.106 67.0614 105.992 67.1569C105.879 67.2524 105.796 67.3794 105.754 67.522C105.736 67.6744 105.763 67.8288 105.832 67.9659C105.901 68.103 106.009 68.2167 106.142 68.293C106.411 68.4397 106.706 68.5309 107.01 68.5614L108.341 68.7727L108.575 67.7733" fill="url(#paint38_linear_41_1108)"/>
<path d="M153.287 64.3124C152.596 64.6322 151.859 65.1005 151.699 65.8315V65.9229C151.699 65.8715 154.555 65.5574 154.8 64.8949C155.223 63.6899 153.864 64.0497 153.287 64.3124Z" fill="url(#paint39_linear_41_1108)"/>
<path d="M155.286 59.2352C154.616 58.3112 153.829 57.4781 152.944 56.7566C152.821 56.8771 152.736 57.0318 152.702 57.2008C152.667 57.3698 152.684 57.5453 152.75 57.7047C152.891 58.0208 153.095 58.3046 153.35 58.5385L155.063 60.3317C155.254 60.0927 155.384 59.8102 155.44 59.5094" fill="url(#paint40_linear_41_1108)"/>
<path d="M139.946 59.6635C140.14 59.5779 140.391 59.5036 140.546 59.6635C140.7 59.8234 140.546 60.2346 140.283 60.4574C139.712 60.9657 137.764 63.3129 137.427 62.1136C137.09 60.9143 139.158 60.0176 139.946 59.6635Z" fill="url(#paint41_linear_41_1108)"/>
<path d="M145.326 57.4876L146.022 60.3832C146.08 60.623 146.205 60.9143 146.445 60.9086C146.597 59.976 146.67 59.0322 146.662 58.0873C146.67 57.9829 146.644 57.8786 146.588 57.7903C146.377 57.5276 145.851 57.8646 145.657 57.5961" fill="url(#paint42_linear_41_1108)"/>
<path d="M165.383 66.7053C164.843 66.6794 164.303 66.7431 163.784 66.8938C163.51 66.968 163.184 67.2364 163.35 67.4649C164.378 67.6307 165.37 67.9686 166.285 68.4643C166.383 68.3008 166.443 68.1174 166.46 67.9276C166.477 67.7379 166.451 67.5468 166.384 67.3685C166.317 67.1902 166.211 67.0292 166.073 66.8976C165.935 66.766 165.77 66.6671 165.589 66.6082" fill="url(#paint43_linear_41_1108)"/>
<path d="M164.669 76.7282C164.669 76.7796 164.629 76.8253 164.612 76.8767C164.833 76.9177 165.062 76.8892 165.266 76.7951C165.471 76.701 165.641 76.546 165.754 76.3513C166.131 75.8202 166.56 75.0492 165.983 74.5352C165.373 75.1485 164.922 75.9013 164.669 76.7282Z" fill="url(#paint44_linear_41_1108)"/>
<path d="M134.834 37.5617C134.781 37.5415 134.722 37.5415 134.669 37.5617C134.615 37.6073 134.579 37.6697 134.566 37.7387L134.395 38.3898C134.386 38.4106 134.382 38.4329 134.382 38.4555C134.382 38.478 134.386 38.5003 134.395 38.5212C134.411 38.5381 134.43 38.5515 134.452 38.5603C134.474 38.5692 134.497 38.5734 134.52 38.5726C135.32 38.6639 136.125 38.7153 136.93 38.7268C137.136 38.7268 138.038 39.0352 138.124 38.9552C138.358 38.7496 137.93 38.4241 137.77 38.3156C137.01 37.7959 135.731 37.6816 134.834 37.5617Z" fill="url(#paint45_linear_41_1108)"/>
<path d="M138.107 44.889C138.212 44.9446 138.327 44.977 138.445 44.9839C138.564 44.9908 138.682 44.9721 138.792 44.929C139.272 44.7235 139.672 44.3691 139.934 43.9181C140.191 43.5526 141.442 41.9992 140.294 42.7759C139.481 43.387 138.746 44.0968 138.107 44.889Z" fill="url(#paint46_linear_41_1108)"/>
<path d="M129.638 40.6914C129.593 40.6747 129.545 40.6747 129.5 40.6914C129.449 40.6914 129.42 40.7542 129.398 40.7999C129.284 41.0218 129.233 41.2706 129.249 41.5195C129.252 41.6716 129.298 41.8199 129.381 41.9478C129.508 42.095 129.671 42.207 129.855 42.2733C130.285 42.4625 130.732 42.6097 131.191 42.7131C131.491 42.7553 131.775 42.8711 132.019 43.05C132.236 42.0106 130.391 41.034 129.638 40.6914Z" fill="url(#paint47_linear_41_1108)"/>
<path d="M135.954 69.5151C136.177 68.5462 136.616 67.6403 137.239 66.8652C137.65 66.9509 137.81 67.4706 137.718 67.8818C137.573 68.2744 137.399 68.6561 137.199 69.024C137.055 69.5102 136.948 70.0066 136.879 70.5089C136.875 70.5408 136.864 70.5714 136.847 70.5989C136.83 70.6265 136.808 70.6502 136.782 70.6688C136.747 70.679 136.71 70.6807 136.674 70.6737C136.638 70.6668 136.605 70.6514 136.576 70.6288C135.918 70.2272 135.355 69.6875 134.926 69.0468" fill="url(#paint48_linear_41_1108)"/>
</g>
<defs>
<linearGradient id="paint0_linear_41_1108" x1="121.59" y1="8.97779" x2="121.59" y2="281.053" gradientUnits="userSpaceOnUse">
<stop offset="0.01"/>
<stop offset="0.13" stop-opacity="0.69"/>
<stop offset="0.78" stop-opacity="0.15"/>
<stop offset="1" stop-opacity="0"/>
</linearGradient>
<linearGradient id="paint1_linear_41_1108" x1="45.8275" y1="21.8277" x2="355.533" y2="311.265" gradientUnits="userSpaceOnUse">
<stop offset="0.01"/>
<stop offset="0.13" stop-opacity="0.69"/>
<stop offset="0.78" stop-opacity="0.15"/>
<stop offset="1" stop-opacity="0"/>
</linearGradient>
<linearGradient id="paint2_linear_41_1108" x1="50.7505" y1="91.617" x2="191.111" y2="91.617" gradientUnits="userSpaceOnUse">
<stop offset="0.01"/>
<stop offset="0.03" stop-opacity="0.69"/>
<stop offset="1" stop-opacity="0"/>
</linearGradient>
<linearGradient id="paint3_linear_41_1108" x1="95.1882" y1="117.979" x2="112.761" y2="117.979" gradientUnits="userSpaceOnUse">
<stop offset="0.01"/>
<stop offset="0.03" stop-opacity="0.69"/>
<stop offset="1" stop-opacity="0"/>
</linearGradient>
<linearGradient id="paint4_linear_41_1108" x1="103.247" y1="137.58" x2="122.173" y2="137.58" gradientUnits="userSpaceOnUse">
<stop offset="0.01"/>
<stop offset="0.03" stop-opacity="0.69"/>
<stop offset="1" stop-opacity="0"/>
</linearGradient>
<linearGradient id="paint5_linear_41_1108" x1="122.156" y1="87.465" x2="131.796" y2="87.465" gradientUnits="userSpaceOnUse">
<stop offset="0.01"/>
<stop offset="0.03" stop-opacity="0.69"/>
<stop offset="1" stop-opacity="0"/>
</linearGradient>
<linearGradient id="paint6_linear_41_1108" x1="85.5252" y1="158.208" x2="119.775" y2="66.5511" gradientUnits="userSpaceOnUse">
<stop offset="0.01"/>
<stop offset="0.03" stop-opacity="0.69"/>
<stop offset="1" stop-opacity="0"/>
</linearGradient>
<linearGradient id="paint7_linear_41_1108" x1="57.6551" y1="185.524" x2="91.9044" y2="93.8614" gradientUnits="userSpaceOnUse">
<stop offset="0.01"/>
<stop offset="0.03" stop-opacity="0.69"/>
<stop offset="1" stop-opacity="0"/>
</linearGradient>
<linearGradient id="paint8_linear_41_1108" x1="114.143" y1="133.822" x2="148.398" y2="42.1591" gradientUnits="userSpaceOnUse">
<stop offset="0.01"/>
<stop offset="0.03" stop-opacity="0.69"/>
<stop offset="1" stop-opacity="0"/>
</linearGradient>
<linearGradient id="paint9_linear_41_1108" x1="131.716" y1="111.372" x2="150.637" y2="111.372" gradientUnits="userSpaceOnUse">
<stop offset="0.01"/>
<stop offset="0.03" stop-opacity="0.69"/>
<stop offset="1" stop-opacity="0"/>
</linearGradient>
<linearGradient id="paint10_linear_41_1108" x1="140.803" y1="53.6212" x2="156.942" y2="53.6212" gradientUnits="userSpaceOnUse">
<stop offset="0.01"/>
<stop offset="0.03" stop-opacity="0.69"/>
<stop offset="1" stop-opacity="0"/>
</linearGradient>
<linearGradient id="paint11_linear_41_1108" x1="160.186" y1="83.8728" x2="179.107" y2="83.8728" gradientUnits="userSpaceOnUse">
<stop offset="0.01"/>
<stop offset="0.03" stop-opacity="0.69"/>
<stop offset="1" stop-opacity="0"/>
</linearGradient>
<linearGradient id="paint12_linear_41_1108" x1="94.0632" y1="76.1685" x2="101.568" y2="109.83" gradientUnits="userSpaceOnUse">
<stop offset="0.01"/>
<stop offset="0.03" stop-opacity="0.69"/>
<stop offset="1" stop-opacity="0"/>
</linearGradient>
<linearGradient id="paint13_linear_41_1108" x1="172.587" y1="78.5256" x2="140.259" y2="66.6523" gradientUnits="userSpaceOnUse">
<stop offset="0.01"/>
<stop offset="0.03" stop-opacity="0.69"/>
<stop offset="1" stop-opacity="0"/>
</linearGradient>
<linearGradient id="paint14_linear_41_1108" x1="108.313" y1="48.5936" x2="138.228" y2="65.755" gradientUnits="userSpaceOnUse">
<stop offset="0.01"/>
<stop offset="0.03" stop-opacity="0.69"/>
<stop offset="1" stop-opacity="0"/>
</linearGradient>
<linearGradient id="paint15_linear_41_1108" x1="92.4926" y1="114.004" x2="116.353" y2="114.004" gradientUnits="userSpaceOnUse">
<stop offset="0.01" stop-color="white"/>
<stop offset="0.13" stop-color="white" stop-opacity="0.69"/>
<stop offset="1" stop-color="white" stop-opacity="0"/>
</linearGradient>
<linearGradient id="paint16_linear_41_1108" x1="134.438" y1="76.0625" x2="122.783" y2="90.0803" gradientUnits="userSpaceOnUse">
<stop offset="0.01" stop-color="white"/>
<stop offset="0.13" stop-color="white" stop-opacity="0.69"/>
<stop offset="1" stop-color="white" stop-opacity="0"/>
</linearGradient>
<linearGradient id="paint17_linear_41_1108" x1="156.771" y1="53.8947" x2="138.932" y2="50.1388" gradientUnits="userSpaceOnUse">
<stop offset="0.01" stop-color="white"/>
<stop offset="0.13" stop-color="white" stop-opacity="0.69"/>
<stop offset="1" stop-color="white" stop-opacity="0"/>
</linearGradient>
<linearGradient id="paint18_linear_41_1108" x1="82.6354" y1="113.039" x2="85.3196" y2="113.039" gradientUnits="userSpaceOnUse">
<stop offset="0.01" stop-color="white"/>
<stop offset="0.13" stop-color="white" stop-opacity="0.69"/>
<stop offset="1" stop-color="white" stop-opacity="0"/>
</linearGradient>
<linearGradient id="paint19_linear_41_1108" x1="87.5239" y1="111.817" x2="89.7684" y2="111.817" gradientUnits="userSpaceOnUse">
<stop offset="0.01" stop-color="white"/>
<stop offset="0.13" stop-color="white" stop-opacity="0.69"/>
<stop offset="1" stop-color="white" stop-opacity="0"/>
</linearGradient>
<linearGradient id="paint20_linear_41_1108" x1="75.7021" y1="107.677" x2="79.3571" y2="107.677" gradientUnits="userSpaceOnUse">
<stop offset="0.01" stop-color="white"/>
<stop offset="0.13" stop-color="white" stop-opacity="0.69"/>
<stop offset="1" stop-color="white" stop-opacity="0"/>
</linearGradient>
<linearGradient id="paint21_linear_41_1108" x1="73.886" y1="99.641" x2="77.878" y2="99.641" gradientUnits="userSpaceOnUse">
<stop offset="0.01" stop-color="white"/>
<stop offset="0.13" stop-color="white" stop-opacity="0.69"/>
<stop offset="1" stop-color="white" stop-opacity="0"/>
</linearGradient>
<linearGradient id="paint22_linear_41_1108" x1="90.8421" y1="107.1" x2="92.8752" y2="107.1" gradientUnits="userSpaceOnUse">
<stop offset="0.01" stop-color="white"/>
<stop offset="0.13" stop-color="white" stop-opacity="0.69"/>
<stop offset="1" stop-color="white" stop-opacity="0"/>
</linearGradient>
<linearGradient id="paint23_linear_41_1108" x1="91.3389" y1="113.753" x2="92.7324" y2="113.753" gradientUnits="userSpaceOnUse">
<stop offset="0.01" stop-color="white"/>
<stop offset="0.13" stop-color="white" stop-opacity="0.69"/>
<stop offset="1" stop-color="white" stop-opacity="0"/>
</linearGradient>
<linearGradient id="paint24_linear_41_1108" x1="85.845" y1="122.12" x2="90.3624" y2="122.12" gradientUnits="userSpaceOnUse">
<stop offset="0.01" stop-color="white"/>
<stop offset="0.13" stop-color="white" stop-opacity="0.69"/>
<stop offset="1" stop-color="white" stop-opacity="0"/>
</linearGradient>
<linearGradient id="paint25_linear_41_1108" x1="99.6885" y1="125.541" x2="102.207" y2="125.541" gradientUnits="userSpaceOnUse">
<stop offset="0.01" stop-color="white"/>
<stop offset="0.13" stop-color="white" stop-opacity="0.69"/>
<stop offset="1" stop-color="white" stop-opacity="0"/>
</linearGradient>
<linearGradient id="paint26_linear_41_1108" x1="108.535" y1="126.135" x2="112.042" y2="126.135" gradientUnits="userSpaceOnUse">
<stop offset="0.01" stop-color="white"/>
<stop offset="0.13" stop-color="white" stop-opacity="0.69"/>
<stop offset="1" stop-color="white" stop-opacity="0"/>
</linearGradient>
<linearGradient id="paint27_linear_41_1108" x1="97.0102" y1="133.302" x2="102.419" y2="133.302" gradientUnits="userSpaceOnUse">
<stop offset="0.01" stop-color="white"/>
<stop offset="0.13" stop-color="white" stop-opacity="0.69"/>
<stop offset="1" stop-color="white" stop-opacity="0"/>
</linearGradient>
<linearGradient id="paint28_linear_41_1108" x1="101.842" y1="128.819" x2="103.595" y2="128.819" gradientUnits="userSpaceOnUse">
<stop offset="0.01" stop-color="white"/>
<stop offset="0.13" stop-color="white" stop-opacity="0.69"/>
<stop offset="1" stop-color="white" stop-opacity="0"/>
</linearGradient>
<linearGradient id="paint29_linear_41_1108" x1="121.556" y1="99.3726" x2="125.263" y2="99.3726" gradientUnits="userSpaceOnUse">
<stop offset="0.01" stop-color="white"/>
<stop offset="0.13" stop-color="white" stop-opacity="0.69"/>
<stop offset="1" stop-color="white" stop-opacity="0"/>
</linearGradient>
<linearGradient id="paint30_linear_41_1108" x1="117.21" y1="94.3355" x2="120.774" y2="94.3355" gradientUnits="userSpaceOnUse">
<stop offset="0.01" stop-color="white"/>
<stop offset="0.13" stop-color="white" stop-opacity="0.69"/>
<stop offset="1" stop-color="white" stop-opacity="0"/>
</linearGradient>
<linearGradient id="paint31_linear_41_1108" x1="100.037" y1="79.0526" x2="104.137" y2="79.0526" gradientUnits="userSpaceOnUse">
<stop offset="0.01" stop-color="white"/>
<stop offset="0.13" stop-color="white" stop-opacity="0.69"/>
<stop offset="1" stop-color="white" stop-opacity="0"/>
</linearGradient>
<linearGradient id="paint32_linear_41_1108" x1="110.163" y1="72.4107" x2="111.219" y2="72.4107" gradientUnits="userSpaceOnUse">
<stop offset="0.01" stop-color="white"/>
<stop offset="0.13" stop-color="white" stop-opacity="0.69"/>
<stop offset="1" stop-color="white" stop-opacity="0"/>
</linearGradient>
<linearGradient id="paint33_linear_41_1108" x1="106.513" y1="77.4992" x2="110.46" y2="77.4992" gradientUnits="userSpaceOnUse">
<stop offset="0.01" stop-color="white"/>
<stop offset="0.13" stop-color="white" stop-opacity="0.69"/>
<stop offset="1" stop-color="white" stop-opacity="0"/>
</linearGradient>
<linearGradient id="paint34_linear_41_1108" x1="111.773" y1="87.0424" x2="116.262" y2="87.0424" gradientUnits="userSpaceOnUse">
<stop offset="0.01" stop-color="white"/>
<stop offset="0.13" stop-color="white" stop-opacity="0.69"/>
<stop offset="1" stop-color="white" stop-opacity="0"/>
</linearGradient>
<linearGradient id="paint35_linear_41_1108" x1="116.582" y1="79.7608" x2="120.003" y2="79.7608" gradientUnits="userSpaceOnUse">
<stop offset="0.01" stop-color="white"/>
<stop offset="0.13" stop-color="white" stop-opacity="0.69"/>
<stop offset="1" stop-color="white" stop-opacity="0"/>
</linearGradient>
<linearGradient id="paint36_linear_41_1108" x1="129.101" y1="97.8078" x2="134.246" y2="97.8078" gradientUnits="userSpaceOnUse">
<stop offset="0.01" stop-color="white"/>
<stop offset="0.13" stop-color="white" stop-opacity="0.69"/>
<stop offset="1" stop-color="white" stop-opacity="0"/>
</linearGradient>
<linearGradient id="paint37_linear_41_1108" x1="139.655" y1="99.9037" x2="141.682" y2="99.9037" gradientUnits="userSpaceOnUse">
<stop offset="0.01" stop-color="white"/>
<stop offset="0.13" stop-color="white" stop-opacity="0.69"/>
<stop offset="1" stop-color="white" stop-opacity="0"/>
</linearGradient>
<linearGradient id="paint38_linear_41_1108" x1="105.731" y1="67.8703" x2="108.564" y2="67.8703" gradientUnits="userSpaceOnUse">
<stop offset="0.01" stop-color="white"/>
<stop offset="0.13" stop-color="white" stop-opacity="0.69"/>
<stop offset="1" stop-color="white" stop-opacity="0"/>
</linearGradient>
<linearGradient id="paint39_linear_41_1108" x1="151.682" y1="64.9863" x2="154.869" y2="64.9863" gradientUnits="userSpaceOnUse">
<stop offset="0.01" stop-color="white"/>
<stop offset="0.13" stop-color="white" stop-opacity="0.69"/>
<stop offset="1" stop-color="white" stop-opacity="0"/>
</linearGradient>
<linearGradient id="paint40_linear_41_1108" x1="152.687" y1="58.5556" x2="155.417" y2="58.5556" gradientUnits="userSpaceOnUse">
<stop offset="0.01" stop-color="white"/>
<stop offset="0.13" stop-color="white" stop-opacity="0.69"/>
<stop offset="1" stop-color="white" stop-opacity="0"/>
</linearGradient>
<linearGradient id="paint41_linear_41_1108" x1="137.387" y1="60.9999" x2="140.637" y2="60.9999" gradientUnits="userSpaceOnUse">
<stop offset="0.01" stop-color="white"/>
<stop offset="0.13" stop-color="white" stop-opacity="0.69"/>
<stop offset="1" stop-color="white" stop-opacity="0"/>
</linearGradient>
<linearGradient id="paint42_linear_41_1108" x1="145.326" y1="59.1952" x2="146.662" y2="59.1952" gradientUnits="userSpaceOnUse">
<stop offset="0.01" stop-color="white"/>
<stop offset="0.13" stop-color="white" stop-opacity="0.69"/>
<stop offset="1" stop-color="white" stop-opacity="0"/>
</linearGradient>
<linearGradient id="paint43_linear_41_1108" x1="163.304" y1="67.5448" x2="166.474" y2="67.5448" gradientUnits="userSpaceOnUse">
<stop offset="0.01" stop-color="white"/>
<stop offset="0.13" stop-color="white" stop-opacity="0.69"/>
<stop offset="1" stop-color="white" stop-opacity="0"/>
</linearGradient>
<linearGradient id="paint44_linear_41_1108" x1="164.612" y1="75.7288" x2="166.28" y2="75.7288" gradientUnits="userSpaceOnUse">
<stop offset="0.01" stop-color="white"/>
<stop offset="0.13" stop-color="white" stop-opacity="0.69"/>
<stop offset="1" stop-color="white" stop-opacity="0"/>
</linearGradient>
<linearGradient id="paint45_linear_41_1108" x1="134.383" y1="38.2699" x2="138.193" y2="38.2699" gradientUnits="userSpaceOnUse">
<stop offset="0.01" stop-color="white"/>
<stop offset="0.13" stop-color="white" stop-opacity="0.69"/>
<stop offset="1" stop-color="white" stop-opacity="0"/>
</linearGradient>
<linearGradient id="paint46_linear_41_1108" x1="138.107" y1="43.7753" x2="140.791" y2="43.7753" gradientUnits="userSpaceOnUse">
<stop offset="0.01" stop-color="white"/>
<stop offset="0.13" stop-color="white" stop-opacity="0.69"/>
<stop offset="1" stop-color="white" stop-opacity="0"/>
</linearGradient>
<linearGradient id="paint47_linear_41_1108" x1="129.243" y1="41.8393" x2="132.036" y2="41.8393" gradientUnits="userSpaceOnUse">
<stop offset="0.01" stop-color="white"/>
<stop offset="0.13" stop-color="white" stop-opacity="0.69"/>
<stop offset="1" stop-color="white" stop-opacity="0"/>
</linearGradient>
<linearGradient id="paint48_linear_41_1108" x1="134.926" y1="68.7613" x2="137.747" y2="68.7613" gradientUnits="userSpaceOnUse">
<stop offset="0.01" stop-color="white"/>
<stop offset="0.13" stop-color="white" stop-opacity="0.69"/>
<stop offset="1" stop-color="white" stop-opacity="0"/>
</linearGradient>
<clipPath id="clip0_41_1108">
<rect width="240" height="180.887" fill="white"/>
</clipPath>
</defs>
</svg>
