<svg width="25" height="24" viewBox="0 0 25 24" fill="none" xmlns="http://www.w3.org/2000/svg">
<mask id="mask0_11_1100" style="mask-type:alpha" maskUnits="userSpaceOnUse" x="2" y="2" width="21" height="20">
<path fill-rule="evenodd" clip-rule="evenodd" d="M2.75049 2H22.2501V21.5007H2.75049V2Z" fill="white"/>
</mask>
<g mask="url(#mask0_11_1100)">
<path fill-rule="evenodd" clip-rule="evenodd" d="M9.52349 11.5987C9.54149 11.6147 9.55849 11.6297 9.57549 11.6477C10.6545 12.7537 11.2495 14.2187 11.2495 15.7737V19.7577L13.4855 18.5397C13.6615 18.4437 13.7705 18.2557 13.7705 18.0487V15.7617C13.7705 14.2127 14.3595 12.7527 15.4285 11.6527L20.2655 6.50769C20.5785 6.17469 20.7505 5.73769 20.7505 5.27669V4.34069C20.7505 3.87669 20.3845 3.49969 19.9365 3.49969H5.06549C4.61649 3.49969 4.25049 3.87669 4.25049 4.34069V5.27669C4.25049 5.73769 4.42249 6.1747 4.73549 6.50669L9.52349 11.5987ZM10.8965 21.5007C10.6945 21.5007 10.4945 21.4467 10.3125 21.3387C9.96049 21.1287 9.74949 20.7577 9.74949 20.3457V15.7737C9.74949 14.6387 9.32649 13.5697 8.55549 12.7507C8.53249 12.7317 8.50949 12.7107 8.48949 12.6887L3.64349 7.53569C3.06749 6.92369 2.75049 6.12069 2.75049 5.27669V4.34069C2.75049 3.04969 3.78949 1.99969 5.06549 1.99969H19.9365C21.2115 1.99969 22.2505 3.04969 22.2505 4.34069V5.27669C22.2505 6.11969 21.9335 6.92169 21.3595 7.53469L16.5125 12.6887C15.7095 13.5167 15.2705 14.6057 15.2705 15.7617V18.0487C15.2705 18.8047 14.8615 19.4967 14.2035 19.8567L11.4425 21.3607C11.2705 21.4537 11.0835 21.5007 10.8965 21.5007Z" fill="#FF6B15"/>
</g>
</svg>
