<svg width="19" height="27" viewBox="0 0 19 27" fill="none" xmlns="http://www.w3.org/2000/svg">
<g clip-path="url(#clip0_35_1103)">
<path d="M5.01013 19.7411C5.75622 20.6919 6.43525 21.6934 7.04232 22.7385C7.56065 23.7213 7.77672 24.3877 8.15552 25.5719C8.38784 26.2262 8.59779 26.4214 9.0492 26.4214C9.5411 26.4214 9.76428 26.0892 9.9367 25.5755C10.2948 24.4572 10.5757 23.6037 11.019 22.7972C11.8888 21.2403 12.9696 19.8567 14.0315 18.527C14.319 18.1507 16.1778 15.9582 17.0146 14.2283C17.0146 14.2283 18.0431 12.328 18.0431 9.67399C18.0431 7.19145 17.0288 5.46967 17.0288 5.46967L14.1086 6.25173L12.3351 10.9226L11.8964 11.5667L11.8086 11.6834L11.6919 11.8295L11.4871 12.0628L11.1944 12.3554L9.61519 13.642L5.66693 15.9217L5.01013 19.7411Z" fill="#34A853"/>
<path d="M0.932861 13.9074C1.89648 16.1085 3.7547 18.0433 5.01193 19.7413L11.6897 11.8311C11.6897 11.8311 10.7489 13.0615 9.04236 13.0615C7.14147 13.0615 5.60582 11.5436 5.60582 9.62953C5.60582 8.31698 6.39547 7.41528 6.39547 7.41528L1.86246 8.62992L0.932861 13.9074V13.9074Z" fill="#FBBC04"/>
<path d="M11.7639 1.02815C13.9818 1.74322 15.8801 3.24443 17.0283 5.45811L11.6914 11.8179C11.6914 11.8179 12.4811 10.8999 12.4811 9.59552C12.4811 7.63693 10.8318 6.17374 9.05014 6.17374C7.36533 6.17374 6.39771 7.40208 6.39771 7.40208V3.39548L11.7639 1.02808V1.02815Z" fill="#4285F4"/>
<path d="M2.15759 3.84188C3.48223 2.25702 5.81309 0.625 9.02652 0.625C10.5856 0.625 11.7601 1.03431 11.7601 1.03431L6.3944 7.40923H2.5927L2.15759 3.84188Z" fill="#1A73E8"/>
<path d="M0.935707 13.9024C0.935707 13.9024 0.0491943 12.1664 0.0491943 9.65136C0.0491943 7.27432 0.973243 5.19651 2.15899 3.84186L6.39881 7.40977L0.935707 13.9024Z" fill="#EA4335"/>
</g>
<defs>
<clipPath id="clip0_35_1103">
<rect width="18.0041" height="25.7969" fill="white" transform="translate(0.0408936 0.625)"/>
</clipPath>
</defs>
</svg>
