<svg width="37" height="36" viewBox="0 0 37 36" fill="none" xmlns="http://www.w3.org/2000/svg">
<path d="M28.3125 10.6875H32.8125V36H28.3125V10.6875Z" fill="#B2C1C0"/>
<path d="M32.8125 17.4375H28.3125L27.1875 16.3125H33.9375L32.8125 17.4375Z" fill="#B2C1C0"/>
<path d="M31.6875 13.1062C31.6875 12.7687 31.4625 12.4312 31.1812 12.2625C30.7875 12.0375 30.5625 11.8125 30.5625 11.8125C30.5625 11.8125 30.3375 12.0375 29.9438 12.2625C29.6625 12.4312 29.4375 12.7687 29.4375 13.1062C29.4375 13.3312 29.55 13.5562 29.7188 13.725V15.1875H31.4062V13.725C31.575 13.5562 31.6875 13.3312 31.6875 13.1062Z" fill="#3E4347"/>
<path d="M27.1875 15.1875H33.9375V16.3125H27.1875V15.1875Z" fill="#E8E8E8"/>
<path d="M30.675 0.9C30.45 0.9 30.225 0.675 30.225 0.45C30.225 0.225 30.3937 0.05625 30.6187 0H30.5625C30.225 0 30 0.225 30 0.5625C30 0.9 30.225 1.125 30.5625 1.125C30.9 1.125 31.125 0.9 31.125 0.5625V0.50625C31.0688 0.73125 30.9 0.9 30.675 0.9Z" fill="#D3976E"/>
<path d="M30.2812 1.01562H30.8438V3.94062H30.2812V1.01562Z" fill="#D3976E"/>
<path d="M30.5625 2.8125L28.3125 10.6875H32.8125L30.5625 2.8125Z" fill="#E8E8E8"/>
<path d="M30.5625 2.35937C30.8732 2.35937 31.125 2.10754 31.125 1.79688C31.125 1.48621 30.8732 1.23438 30.5625 1.23438C30.2518 1.23438 30 1.48621 30 1.79688C30 2.10754 30.2518 2.35937 30.5625 2.35937Z" fill="#D3976E"/>
<path d="M4.6875 10.6875H9.1875V36H4.6875V10.6875Z" fill="#B2C1C0"/>
<path d="M9.1875 17.4375H4.6875L3.5625 16.3125H10.3125L9.1875 17.4375Z" fill="#B2C1C0"/>
<path d="M8.0625 13.1062C8.0625 12.7687 7.8375 12.4312 7.55625 12.2625C7.1625 12.0375 6.9375 11.8125 6.9375 11.8125C6.9375 11.8125 6.7125 12.0375 6.31875 12.2625C6.0375 12.4312 5.8125 12.7687 5.8125 13.1062C5.8125 13.3312 5.925 13.5562 6.09375 13.725V15.1875H7.78125V13.725C7.95 13.5562 8.0625 13.3312 8.0625 13.1062Z" fill="#3E4347"/>
<path d="M3.5625 15.1875H10.3125V16.3125H3.5625V15.1875Z" fill="#E8E8E8"/>
<path d="M7.05 0.9C6.825 0.9 6.6 0.675 6.6 0.45C6.6 0.225 6.76875 0.05625 6.99375 0H6.9375C6.6 0 6.375 0.225 6.375 0.5625C6.375 0.9 6.6 1.125 6.9375 1.125C7.275 1.125 7.5 0.9 7.5 0.5625V0.50625C7.44375 0.73125 7.275 0.9 7.05 0.9Z" fill="#D3976E"/>
<path d="M6.65625 1.01562H7.21875V3.94062H6.65625V1.01562Z" fill="#D3976E"/>
<path d="M6.9375 2.8125L4.6875 10.6875H9.1875L6.9375 2.8125Z" fill="#E8E8E8"/>
<path d="M6.9375 2.35937C7.24816 2.35937 7.5 2.10754 7.5 1.79688C7.5 1.48621 7.24816 1.23438 6.9375 1.23438C6.62684 1.23438 6.375 1.48621 6.375 1.79688C6.375 2.10754 6.62684 2.35937 6.9375 2.35937Z" fill="#D3976E"/>
<path d="M18.4688 7.3125H19.0312V12.375H18.4688V7.3125Z" fill="#D3976E"/>
<path d="M24.0938 14.9625C20.4937 13.2188 18.75 11.8125 18.75 11.8125C18.75 11.8125 17.0062 13.2188 13.4062 14.9625C10.9875 16.1438 9.1875 18.45 9.1875 20.8125C9.1875 24.525 13.4625 27.5625 18.75 27.5625C24.0375 27.5625 28.3125 24.525 28.3125 20.8125C28.3125 18.45 26.5125 16.1438 24.0938 14.9625Z" fill="#FBBF67"/>
<path d="M18.75 11.25C19.3713 11.25 19.875 10.7463 19.875 10.125C19.875 9.50368 19.3713 9 18.75 9C18.1287 9 17.625 9.50368 17.625 10.125C17.625 10.7463 18.1287 11.25 18.75 11.25Z" fill="#FBBF67"/>
<path d="M19.3125 6.75C18.075 6.75 17.0625 5.7375 17.0625 4.5C17.0625 3.375 17.9062 2.41875 19.0312 2.30625C18.9188 2.25 18.8625 2.25 18.75 2.25C17.175 2.25 15.9375 3.4875 15.9375 5.0625C15.9375 6.6375 17.175 7.875 18.75 7.875C20.325 7.875 21.5625 6.6375 21.5625 5.0625C21.5625 4.95 21.5625 4.89375 21.5063 4.78125C21.3938 5.90625 20.4375 6.75 19.3125 6.75ZM18.75 10.6875C18.2438 10.6875 17.7938 10.35 17.6813 9.84375C17.6813 9.95625 17.625 10.0125 17.625 10.125C17.625 10.7437 18.1312 11.25 18.75 11.25C19.3688 11.25 19.875 10.7437 19.875 10.125C19.875 10.0125 19.875 9.95625 19.8188 9.84375C19.7063 10.35 19.2562 10.6875 18.75 10.6875Z" fill="#D3976E"/>
<path d="M18.4688 10.9688H19.0312V11.5312H18.4688V10.9688ZM18.75 22.5C14.4188 22.5 10.8187 21.6 9.58125 18.8438C9.35625 19.4625 9.1875 20.1375 9.1875 20.8125C9.1875 24.525 13.4625 27.5625 18.75 27.5625C24.0375 27.5625 28.3125 24.525 28.3125 20.8125C28.3125 20.1375 28.1437 19.4625 27.9187 18.8438C26.6812 21.6 23.0813 22.5 18.75 22.5Z" fill="#D3976E"/>
<path d="M27.75 23.625H9.75C9.4125 23.625 9.1875 23.9062 9.1875 24.1875V35.4375C9.1875 35.7188 9.4125 36 9.75 36H27.75C28.0312 36 28.3125 35.7188 28.3125 35.4375V24.1875C28.3125 23.9062 28.0312 23.625 27.75 23.625Z" fill="#E8E8E8"/>
<path d="M14.5312 30.3781H10.5938V28.1844C10.425 27.9031 10.3125 27.5094 10.3125 27.1719C10.3125 26.4406 10.7062 25.7656 11.3812 25.3719C11.6625 25.2031 11.8313 25.0906 11.8313 25.0906L12.6188 24.3594L13.4062 25.0906C13.4062 25.0906 13.575 25.2031 13.8 25.3719C14.4188 25.7656 14.8688 26.4406 14.8688 27.1719C14.8688 27.5094 14.7563 27.8469 14.5875 28.1844V30.3781H14.5312Z" fill="#B2C1C0"/>
<path d="M21 31.8375C21 31.1625 20.6063 30.4875 19.9875 30.15C19.1438 29.6437 18.75 29.25 18.75 29.25C18.75 29.25 18.3562 29.6437 17.5125 30.15C16.95 30.4875 16.5 31.1625 16.5 31.8375C16.5 32.3437 16.725 32.7375 17.0625 33.075V36H20.4375V33.075C20.775 32.7375 21 32.2875 21 31.8375Z" fill="#3E4347"/>
<path d="M15.9375 35.9969H17.0625V33.0719C16.725 32.7344 16.5 32.2844 16.5 31.8344C16.5 31.1594 16.8937 30.4844 17.5125 30.1469C18.3562 29.6406 18.75 29.2469 18.75 29.2469C18.75 29.2469 19.1438 29.6406 19.9875 30.1469C20.55 30.4844 21 31.1594 21 31.8344C21 32.3406 20.775 32.7344 20.4375 33.0719V35.9969H21.5625V33.5219C21.9563 33.0156 22.125 32.4531 22.125 31.8344C22.125 30.7656 21.5063 29.7531 20.55 29.1906C19.875 28.7969 19.4812 28.4594 19.4812 28.4594L18.75 27.6719L17.9625 28.4031C17.9625 28.4031 17.625 28.7406 16.8938 29.1344C15.9375 29.6969 15.375 30.7094 15.375 31.7781C15.375 32.3969 15.6 32.9594 15.9375 33.4656V35.9969Z" fill="#B2C1C0"/>
<path d="M13.6875 27.1687C13.6875 26.8312 13.4625 26.4937 13.1813 26.325C12.7875 26.1 12.5625 25.875 12.5625 25.875C12.5625 25.875 12.3375 26.1 11.9437 26.325C11.6625 26.4937 11.4375 26.8312 11.4375 27.1687C11.4375 27.3937 11.55 27.6188 11.7188 27.7875V29.25H13.4062V27.7875C13.575 27.6188 13.6875 27.3937 13.6875 27.1687Z" fill="#3E4347"/>
<path d="M26.9062 30.3781H22.9688V28.1844C22.8 27.9031 22.6875 27.5094 22.6875 27.1719C22.6875 26.4406 23.0813 25.7656 23.7563 25.3719C24.0375 25.2031 24.2063 25.0906 24.2063 25.0906L24.9937 24.3594L25.7812 25.0906C25.7812 25.0906 25.95 25.2031 26.175 25.3719C26.7938 25.7656 27.2437 26.4406 27.2437 27.1719C27.2437 27.5094 27.1312 27.8469 26.9625 28.1844V30.3781H26.9062Z" fill="#B2C1C0"/>
<path d="M26.0625 27.1687C26.0625 26.8312 25.8375 26.4937 25.5562 26.325C25.1625 26.1 24.9375 25.875 24.9375 25.875C24.9375 25.875 24.7125 26.1 24.3188 26.325C24.0375 26.4937 23.8125 26.8312 23.8125 27.1687C23.8125 27.3937 23.925 27.6188 24.0938 27.7875V29.25H25.7812V27.7875C25.95 27.6188 26.0625 27.3937 26.0625 27.1687Z" fill="#3E4347"/>
</svg>
