<svg width="37" height="30" viewBox="0 0 37 30" fill="none" xmlns="http://www.w3.org/2000/svg">
<path d="M21.5985 27.9281H33.7141V9.9397H21.5985V27.9281Z" fill="white"/>
<path d="M33.7139 28.1059H21.5948C21.5476 28.1059 21.5024 28.0872 21.4691 28.0538C21.4357 28.0205 21.417 27.9753 21.417 27.9281V9.93791C21.417 9.89075 21.4357 9.84552 21.4691 9.81218C21.5024 9.77883 21.5476 9.7601 21.5948 9.7601H33.7086C33.7557 9.7601 33.801 9.77883 33.8343 9.81218C33.8677 9.84552 33.8864 9.89075 33.8864 9.93791V27.9281C33.8864 27.9744 33.8684 28.0188 33.8362 28.052C33.804 28.0852 33.7601 28.1045 33.7139 28.1059ZM21.7779 27.7503H33.5361V10.1157H21.7726L21.7779 27.7503Z" fill="#FF6B15"/>
<path d="M21.6001 9.93793H14.7974V27.9264H21.6001V9.93793Z" fill="#68E1FD"/>
<path d="M21.5949 28.1059H14.7974C14.7503 28.1059 14.7051 28.0872 14.6717 28.0538C14.6384 28.0205 14.6196 27.9753 14.6196 27.9281V9.93791C14.6196 9.89075 14.6384 9.84552 14.6717 9.81218C14.7051 9.77883 14.7503 9.7601 14.7974 9.7601H21.5949C21.642 9.7601 21.6873 9.77883 21.7206 9.81218C21.754 9.84552 21.7727 9.89075 21.7727 9.93791V27.9281C21.7727 27.9753 21.754 28.0205 21.7206 28.0538C21.6873 28.0872 21.642 28.1059 21.5949 28.1059ZM14.9699 27.7503H21.4171V10.1157H14.9752L14.9699 27.7503Z" fill="#FF6B15"/>
<path d="M33.7141 9.93791H21.6003L18.2451 3.69699H30.3607L33.7141 9.93791Z" fill="white"/>
<path d="M33.7139 10.1157H21.5948C21.5626 10.1156 21.5311 10.1068 21.5036 10.0902C21.476 10.0736 21.4535 10.0499 21.4383 10.0215L18.0885 3.78055C18.0729 3.75352 18.0647 3.72286 18.0647 3.69165C18.0647 3.66044 18.0729 3.62978 18.0885 3.60275C18.1043 3.57621 18.1266 3.55422 18.1534 3.53894C18.1802 3.52367 18.2106 3.51563 18.2414 3.51562H30.3606C30.3927 3.51571 30.4243 3.52452 30.4518 3.54111C30.4794 3.55771 30.5019 3.58147 30.517 3.60986L33.8633 9.85434C33.8777 9.88139 33.8849 9.91172 33.8841 9.94236C33.8833 9.97301 33.8747 10.0029 33.8589 10.0292C33.8432 10.0555 33.8209 10.0773 33.7942 10.0925C33.7676 10.1076 33.7375 10.1156 33.7068 10.1157H33.7139ZM21.7051 9.7601H33.417L30.2539 3.87479H18.5419L21.7051 9.7601Z" fill="#FF6B15"/>
<path d="M14.7974 9.93791H21.6001L18.1988 3.69699L14.7974 9.93791Z" fill="#68E1FD"/>
<path d="M21.5949 10.1157H14.7974C14.7665 10.1158 14.7361 10.1078 14.7092 10.0926C14.6824 10.0773 14.6599 10.0553 14.6441 10.0288C14.6283 10.0022 14.6197 9.97199 14.6192 9.94109C14.6186 9.91019 14.6261 9.87968 14.641 9.85257L18.0388 3.62053C18.0542 3.59247 18.0768 3.56908 18.1043 3.5528C18.1319 3.53653 18.1633 3.52799 18.1953 3.52808C18.2273 3.52799 18.2587 3.53653 18.2862 3.5528C18.3137 3.56908 18.3364 3.59247 18.3517 3.62053L21.7513 9.86146C21.7661 9.88844 21.7736 9.91879 21.7731 9.94954C21.7727 9.98029 21.7642 10.0104 21.7486 10.0369C21.7331 10.0634 21.7109 10.0854 21.6842 10.1008C21.6576 10.1162 21.6274 10.1244 21.5967 10.1246L21.5949 10.1157ZM15.0908 9.76011H21.2944L18.1935 4.07038L15.0908 9.76011Z" fill="#FF6B15"/>
<path d="M18.1971 3.69699L30.51 3.69699V0.693881L18.1971 0.693881V3.69699Z" fill="#68E1FD"/>
<path d="M30.51 3.8748H18.1988C18.1516 3.8748 18.1064 3.85607 18.0731 3.82272C18.0397 3.78938 18.021 3.74415 18.021 3.697V0.693887C18.021 0.64673 18.0397 0.601505 18.0731 0.56816C18.1064 0.534815 18.1516 0.516083 18.1988 0.516083H30.51C30.5571 0.516083 30.6023 0.534815 30.6357 0.56816C30.669 0.601505 30.6878 0.64673 30.6878 0.693887V3.697C30.6878 3.74415 30.669 3.78938 30.6357 3.82272C30.6023 3.85607 30.5571 3.8748 30.51 3.8748ZM18.3766 3.51919H30.3321V0.871691H18.3766V3.51919Z" fill="#FF6B15"/>
<path d="M21.5985 22.1211H33.7141V15.8464L21.5985 15.8464V22.1211Z" fill="#68E1FD"/>
<path d="M33.7139 22.2989H21.5948C21.5476 22.2989 21.5024 22.2801 21.4691 22.2468C21.4357 22.2134 21.417 22.1682 21.417 22.1211V15.8464C21.417 15.7992 21.4357 15.754 21.4691 15.7206C21.5024 15.6873 21.5476 15.6685 21.5948 15.6685H33.7086C33.7557 15.6685 33.801 15.6873 33.8343 15.7206C33.8677 15.754 33.8864 15.7992 33.8864 15.8464V22.1211C33.8864 22.1673 33.8684 22.2117 33.8362 22.2449C33.804 22.2781 33.7601 22.2975 33.7139 22.2989ZM21.7779 21.9433H33.5361V16.0242H21.7726L21.7779 21.9433Z" fill="#FF6B15"/>
<path d="M10.8946 26.68C10.8946 26.68 9.71046 27.6348 7.4239 27.9139C4.1523 28.314 1.61682 19.454 2.46672 16.25C3.31662 13.0459 8.47472 10.5922 10.6279 14.2941C10.6279 14.2941 12.029 10.939 15.834 13.0922C19.639 15.2454 19.2265 18.3605 18.2486 21.8046C17.1693 25.6096 16.0349 27.4054 14.3369 27.8499C12.6389 28.2944 10.8946 26.68 10.8946 26.68Z" fill="#F56132"/>
<path d="M13.7111 28.1113C12.4131 28.1113 11.2449 27.2134 10.884 26.9075C10.5284 27.1582 9.3691 27.8552 7.44526 28.0899C6.64692 28.1877 5.85925 27.7983 5.10358 26.9324C2.91126 24.4147 1.64352 18.661 2.29606 16.2037C2.8028 14.2941 4.8351 12.5801 6.91896 12.2921C8.46052 12.0876 9.76383 12.6654 10.6102 13.9314C11.0173 13.2039 11.6704 12.6454 12.4522 12.3561C13.4639 12.0093 14.6303 12.2032 15.9194 12.9339C19.9182 15.1956 19.3475 18.5774 18.4193 21.8472C17.3045 25.7696 16.1345 27.5565 14.3761 28.0188C14.1593 28.0779 13.9358 28.109 13.7111 28.1113ZM10.8947 26.5022C10.9396 26.5023 10.9828 26.5195 11.0156 26.5502C11.0316 26.5644 12.7011 28.0988 14.2872 27.6828C15.9052 27.256 17.004 25.5402 18.0779 21.7583C19.0043 18.4939 19.5235 15.3876 15.7469 13.2504C14.5503 12.573 13.4817 12.3881 12.5731 12.6974C11.3285 13.1224 10.7951 14.3528 10.7951 14.3652C10.7824 14.3959 10.7615 14.4225 10.7345 14.4419C10.7076 14.4612 10.6757 14.4727 10.6426 14.4749C10.6095 14.4771 10.5764 14.47 10.5471 14.4544C10.5178 14.4388 10.4935 14.4153 10.4768 14.3866C9.71049 13.0673 8.46586 12.4521 6.9723 12.653C5.01646 12.9144 3.11573 14.5146 2.64278 16.2944C2.02402 18.6237 3.28643 24.2956 5.37562 26.6977C6.04772 27.4712 6.73227 27.8215 7.40615 27.7379C9.61625 27.4676 10.7755 26.5502 10.7844 26.5413C10.8157 26.5162 10.8546 26.5024 10.8947 26.5022Z" fill="#FF6B15"/>
<path d="M10.2901 14.9111C10.4075 13.0246 9.13794 10.2437 9.13794 10.2437L9.79404 9.80457C10.7773 11.5079 10.8609 14.1145 10.8466 14.9449" fill="#FF6B15"/>
<path d="M10.8467 15.1227C10.7996 15.1227 10.7543 15.104 10.721 15.0706C10.6877 15.0373 10.6689 14.992 10.6689 14.9449C10.6689 14.6302 10.6974 11.9027 9.73189 10.0642L9.36206 10.3113C9.61987 10.9052 10.5729 13.2362 10.468 14.9342C10.4649 14.9814 10.4433 15.0254 10.4077 15.0566C10.3722 15.0877 10.3258 15.1035 10.2786 15.1005C10.2315 15.0974 10.1875 15.0757 10.1563 15.0402C10.1251 15.0047 10.1093 14.9583 10.1124 14.9111C10.2262 13.0922 8.98867 10.3558 8.97622 10.3291C8.95863 10.2905 8.95541 10.2469 8.96715 10.2061C8.97889 10.1654 9.00481 10.1302 9.04023 10.1068L9.69455 9.66943C9.71498 9.65581 9.738 9.64657 9.76218 9.64229C9.78635 9.638 9.81115 9.63877 9.83502 9.64454C9.85868 9.64996 9.88099 9.66018 9.90056 9.67455C9.92014 9.68892 9.93655 9.70715 9.94881 9.72811C11.0548 11.6466 11.0316 14.6266 11.0245 14.9609C11.0205 15.0052 11 15.0464 10.9671 15.0764C10.9342 15.1063 10.8912 15.1229 10.8467 15.1227Z" fill="#FF6B15"/>
<path d="M12.5838 16.0917C12.5599 16.0916 12.5362 16.0867 12.5142 16.0772C12.4922 16.0677 12.4723 16.0539 12.4558 16.0366C11.0334 14.5466 9.25534 15.3076 9.18599 15.3414C9.14284 15.3607 9.09378 15.3621 9.0496 15.3453C9.00542 15.3284 8.96973 15.2947 8.9504 15.2516C8.93107 15.2084 8.92967 15.1594 8.9465 15.1152C8.96334 15.071 8.99704 15.0353 9.04019 15.016C9.05975 15 11.1045 14.111 12.7047 15.7894C12.7293 15.8145 12.7459 15.8463 12.7525 15.8808C12.759 15.9153 12.7552 15.9509 12.7415 15.9833C12.7278 16.0156 12.7048 16.0431 12.6755 16.0624C12.6462 16.0817 12.6118 16.0919 12.5767 16.0917H12.5838Z" fill="#FF6B15"/>
<path d="M4.17002 21.184C4.13562 21.1838 4.10202 21.1736 4.0733 21.1547C4.04458 21.1357 4.02197 21.1089 4.00821 21.0773C3.13164 19.0877 3.297 17.5213 3.58149 16.5682C3.74833 15.9666 4.04105 15.4072 4.44028 14.9271C4.47352 14.8922 4.51927 14.8719 4.56745 14.8708C4.61564 14.8696 4.66231 14.8876 4.6972 14.9209C4.7321 14.9541 4.75236 14.9999 4.75353 15.0481C4.7547 15.0962 4.73667 15.1429 4.70343 15.1778C4.33794 15.624 4.0702 16.1419 3.91754 16.698C3.65083 17.5959 3.50681 19.0628 4.33537 20.9422C4.34479 20.9637 4.34987 20.9868 4.35032 21.0102C4.35076 21.0337 4.34657 21.057 4.33797 21.0788C4.32938 21.1006 4.31656 21.1205 4.30024 21.1374C4.28393 21.1542 4.26445 21.1676 4.24292 21.1769C4.21945 21.1847 4.19454 21.1871 4.17002 21.184Z" fill="white"/>
<path d="M33.9914 29.3061H3.50865L0.928711 27.9281H36.5731L33.9914 29.3061Z" fill="white"/>
<path d="M33.9914 29.4839H3.50864C3.47945 29.4838 3.45075 29.4764 3.42507 29.4626L0.843356 28.0846C0.808594 28.0658 0.781069 28.036 0.765126 27.9999C0.749183 27.9638 0.745728 27.9233 0.755309 27.885C0.764889 27.8467 0.786959 27.8126 0.818035 27.7883C0.84911 27.7639 0.887422 27.7505 0.926924 27.7503H36.5731C36.6126 27.7505 36.6509 27.7639 36.682 27.7883C36.713 27.8126 36.7351 27.8467 36.7447 27.885C36.7543 27.9233 36.7508 27.9638 36.7349 27.9999C36.7189 28.036 36.6914 28.0658 36.6566 28.0846L34.0749 29.4626C34.0492 29.4764 34.0205 29.4838 33.9914 29.4839ZM3.55309 29.1283H33.9469L35.8619 28.1059H1.63814L3.55309 29.1283Z" fill="#FF6B15"/>
</svg>
