<svg width="19" height="19" viewBox="0 0 19 19" fill="none" xmlns="http://www.w3.org/2000/svg">
<path d="M14.937 8H4.43701C3.60858 8 2.93701 8.67157 2.93701 9.5V15.5C2.93701 16.3284 3.60858 17 4.43701 17H14.937C15.7654 17 16.437 16.3284 16.437 15.5V9.5C16.437 8.67157 15.7654 8 14.937 8Z" stroke="#FF6B15" stroke-width="2"/>
<path d="M5.18701 5C5.18701 4.40326 5.42406 3.83097 5.84602 3.40901C6.26798 2.98705 6.84027 2.75 7.43701 2.75H11.937C12.5337 2.75 13.106 2.98705 13.528 3.40901C13.95 3.83097 14.187 4.40326 14.187 5V8H5.18701V5Z" stroke="#FF6B15" stroke-width="2"/>
</svg>
