<svg width="23" height="23" viewBox="0 0 23 23" fill="none" xmlns="http://www.w3.org/2000/svg">
<path d="M4.47933 18.7072C3.97516 18.7072 3.54372 18.5278 3.185 18.1691C2.82627 17.8104 2.64661 17.3786 2.646 16.8739V5.87386C2.646 5.36969 2.82566 4.93825 3.185 4.57953C3.54433 4.2208 3.97577 4.04114 4.47933 4.04053H19.146C19.6502 4.04053 20.0819 4.22019 20.4412 4.57953C20.8006 4.93886 20.9799 5.37031 20.9793 5.87386V16.8739C20.9793 17.378 20.8 17.8098 20.4412 18.1691C20.0825 18.5284 19.6508 18.7078 19.146 18.7072H4.47933ZM11.8127 12.2905L4.47933 7.70719V16.8739H19.146V7.70719L11.8127 12.2905ZM11.8127 10.4572L19.146 5.87386H4.47933L11.8127 10.4572ZM4.47933 7.70719V5.87386V16.8739V7.70719Z" fill="#FF6B15"/>
</svg>
