<svg width="29" height="29" viewBox="0 0 29 29" fill="none" xmlns="http://www.w3.org/2000/svg">
<path d="M4.8601 12.7923C4.62609 12.7923 4.40167 12.6994 4.23621 12.5339C4.07074 12.3685 3.97778 12.144 3.97778 11.91V4.85326C3.97778 4.61926 4.07074 4.39484 4.23621 4.22937C4.40167 4.06391 4.62609 3.97095 4.8601 3.97095H11.9186C12.1526 3.97095 12.3771 4.06391 12.5425 4.22937C12.708 4.39484 12.801 4.61926 12.801 4.85326V11.91C12.801 12.144 12.708 12.3685 12.5425 12.5339C12.3771 12.6994 12.1526 12.7923 11.9186 12.7923H4.8601ZM17.2125 12.7923C16.9785 12.7923 16.7541 12.6994 16.5886 12.5339C16.4232 12.3685 16.3302 12.144 16.3302 11.91V4.85326C16.3302 4.61926 16.4232 4.39484 16.5886 4.22937C16.7541 4.06391 16.9785 3.97095 17.2125 3.97095H24.2693C24.5033 3.97095 24.7277 4.06391 24.8932 4.22937C25.0587 4.39484 25.1516 4.61926 25.1516 4.85326V11.91C25.1516 12.144 25.0587 12.3685 24.8932 12.5339C24.7277 12.6994 24.5033 12.7923 24.2693 12.7923H17.2125ZM4.8601 25.1448C4.62609 25.1448 4.40167 25.0518 4.23621 24.8864C4.07074 24.7209 3.97778 24.4965 3.97778 24.2625V17.2039C3.97778 16.9699 4.07074 16.7455 4.23621 16.58C4.40167 16.4146 4.62609 16.3216 4.8601 16.3216H11.9186C12.1526 16.3216 12.3771 16.4146 12.5425 16.58C12.708 16.7455 12.801 16.9699 12.801 17.2039V24.2625C12.801 24.4965 12.708 24.7209 12.5425 24.8864C12.3771 25.0518 12.1526 25.1448 11.9186 25.1448H4.8601ZM17.2125 25.1448C16.9785 25.1448 16.7541 25.0518 16.5886 24.8864C16.4232 24.7209 16.3302 24.4965 16.3302 24.2625V17.2039C16.3302 16.9699 16.4232 16.7455 16.5886 16.58C16.7541 16.4146 16.9785 16.3216 17.2125 16.3216H24.2693C24.5033 16.3216 24.7277 16.4146 24.8932 16.58C25.0587 16.7455 25.1516 16.9699 25.1516 17.2039V24.2625C25.1516 24.4965 25.0587 24.7209 24.8932 24.8864C24.7277 25.0518 24.5033 25.1448 24.2693 25.1448H17.2125Z" fill="white"/>
</svg>
