<svg width="37" height="36" viewBox="0 0 37 36" fill="none" xmlns="http://www.w3.org/2000/svg">
<path d="M12.9 31.8406L1.875 32.7406L5.30625 2.81563L15.9938 2.14062L12.9 31.8406Z" fill="#DFE9EF"/>
<path d="M25.0125 34.7375L12.75 31.7L15.8438 2L23.6063 5.375L25.0125 34.7375Z" fill="#BBC3C7"/>
<path d="M35.6266 31.05L25.1641 34.875L23.7578 5.5125L32.1953 1.125L35.6266 31.05Z" fill="#DFE9EF"/>
<path d="M13.1805 29.3047L4.57422 29.9797L7.21797 4.77969L15.768 4.27344L13.1805 29.3047Z" fill="#5DF6FF"/>
<path d="M25.0484 32.6234L13.1797 29.3047L15.7672 4.27344L23.8672 7.64844L25.0484 32.6234Z" fill="#00C0CF"/>
<path d="M33.3172 29.5328L25.0484 32.6266L23.8672 7.65156L30.5609 4.44531L33.3172 29.5328Z" fill="#5DF6FF"/>
<g opacity="0.7">
<path d="M12.9007 20.25C12.732 20.3063 12.5632 20.4188 12.4507 20.5312L12.507 20.5875C11.4382 22.5562 13.1257 23.2312 13.1257 23.2312C12.4507 26.6625 13.857 27.7875 13.857 27.7875C13.5195 25.2 15.5445 23.5125 15.5445 23.5125C16.107 20.8687 13.6882 20.3625 12.9007 20.25Z" fill="#F361F5"/>
<path d="M12.225 20.0297C11.2125 19.3547 11.2125 18.2859 11.2125 18.2859C12.9 18.2859 14.7562 15.8109 14.7562 15.8109C13.5187 11.8734 13.0125 15.1922 13.0125 15.1922C11.2125 13.2797 13.5188 12.3797 13.5188 12.3797C12.1125 11.8172 11.4938 10.2422 11.4938 10.2422C11.4375 11.2547 10.9875 11.1984 10.9875 11.1984C7.78125 9.45469 7.21875 12.2672 7.21875 12.2672C7.725 13.7859 6.65625 13.9547 6.65625 13.9547C7.725 14.1234 8.2875 12.7734 8.2875 12.7734C10.4812 13.7859 9.3 17.4984 9.3 17.4984C10.1437 17.9484 10.3688 19.5234 10.3688 19.5234C10.9875 19.6922 11.55 20.0297 12 20.3109C12.0563 20.1422 12.1125 20.0859 12.225 20.0297Z" fill="#EDBA53"/>
<path d="M15.5997 9.05627C15.5997 9.05627 14.6435 8.43752 13.0685 9.39377C13.0685 9.39377 12.6747 12.9375 15.5997 9.05627Z" fill="#EEF8FB"/>
<path d="M17.9617 9.84453C16.7242 7.81953 14.6992 10.5758 14.6992 10.5758C15.4305 11.1383 15.4867 11.6445 15.3742 12.0945C14.868 13.782 15.543 14.2883 15.543 14.2883C15.9367 12.882 17.2867 12.657 17.2867 12.657C17.118 11.3633 17.9617 9.84453 17.9617 9.84453Z" fill="#5F5CFF"/>
<path d="M21.3953 18.9558C21.2828 19.0121 21.1703 19.0121 21.0578 18.9558C20.7766 18.6746 20.6078 18.3371 20.4391 17.9996C20.3828 17.9433 20.3828 17.8871 20.3828 17.8308C19.4266 17.4933 17.5703 17.1558 17.2891 19.7433C17.2891 19.7433 17.6266 21.4871 18.8078 20.5871C18.8078 20.5871 20.1016 20.8121 19.5953 23.1183C19.5953 23.1183 19.8203 24.9183 20.9453 24.7496C20.9453 24.7496 21.2266 22.1621 22.6891 20.1371C22.6328 20.1933 22.0703 20.7558 21.3953 18.9558Z" fill="#FF7033"/>
<path d="M30.7327 10.1813C30.7327 10.1813 27.9765 11.1375 24.939 10.8562C24.939 10.8562 25.2202 9.95625 24.1515 9.84375C24.1515 9.84375 22.7452 11.5313 23.364 12.4875C23.364 12.4875 23.0827 14.175 22.7452 11.7C22.7452 11.7 22.1827 13.1625 21.339 12.825C21.339 12.825 21.114 14.2875 20.6077 13.3312C20.6077 13.3312 21.0015 13.5 21.114 13.05C21.114 13.05 19.9327 11.8687 19.2577 13.6687C19.2577 13.6687 18.6952 13.8937 18.9202 14.6812C18.9202 14.6812 19.314 14.0062 19.539 15.0187C19.539 15.0187 19.764 14.85 19.8202 13.5562C19.8202 13.5562 20.3827 13.275 19.9327 14.3437C19.9327 14.3437 21.1702 14.3437 19.2577 15.4125C19.2577 15.4125 19.1452 15.4125 19.089 15.0187C19.089 15.0187 18.8077 15.975 18.189 16.3125C18.189 16.3125 18.3577 16.7062 17.9077 16.875C17.9077 16.875 17.6827 17.4937 18.2452 17.4937C18.2452 17.4937 18.7515 16.0875 19.7077 17.2125C19.7077 17.2125 19.8765 17.1562 19.5952 16.5937C19.5952 16.5937 20.1015 16.7625 20.2702 17.4937C20.2702 17.4937 20.5515 17.4375 20.6077 16.8187C20.6077 16.8187 21.0015 15.975 21.6202 16.9875C21.6202 16.9875 20.7765 16.7625 20.5515 17.55C20.5515 17.55 20.9452 17.3812 21.1702 17.6062C21.1702 17.6062 21.1702 18 20.9452 18.1125C21.0577 18.2812 21.1702 18.5062 21.339 18.6187C21.4515 18.7312 21.4515 18.8437 21.3952 18.9562C21.8452 19.6875 22.6327 20.5875 23.2515 19.125C23.2515 19.125 22.464 19.5187 22.239 18.3937C22.239 18.3937 24.2077 18.6187 24.714 20.5875C24.714 20.5875 25.2765 20.1937 25.4452 18.9C25.4452 18.9 26.1202 18.9562 26.9077 20.5875C26.9077 20.5875 27.2452 20.5312 27.0765 19.4625C27.0765 19.4625 28.3702 18.9562 27.639 16.875C27.639 16.875 28.7077 18.2812 28.3702 16.4812C28.3702 16.4812 29.5515 15.1312 28.1452 14.2312C28.1452 14.2312 28.2015 13.2187 29.0452 13.3875C29.0452 13.3875 29.889 11.3062 29.4952 13.7812C29.4952 13.7812 29.4952 14.2875 30.0577 14.7937C30.0577 14.7937 30.2827 14.0062 29.889 13.1062C30.0015 12.9937 30.8452 11.475 30.7327 10.1813Z" fill="#6C732D"/>
<path d="M18.6937 15.6406C18.9187 15.1344 18.1874 14.6281 18.1874 14.6281C18.2999 15.7531 18.4687 16.0906 18.6937 15.6406ZM17.7937 15.6969C17.7937 15.6969 18.1312 15.6406 18.0749 15.2469C18.0749 15.2469 17.7937 15.2469 17.7937 15.6969ZM17.6812 13.3906C17.6812 13.3906 16.7812 13.3906 17.1187 13.8406C17.3999 14.2344 17.6812 13.3906 17.6812 13.3906Z" fill="#F361F5"/>
<path d="M22.2367 23.9125C22.2367 23.9125 22.518 23.4062 22.518 22.5625C22.518 22.5625 21.618 23.5188 22.2367 23.9125Z" fill="#EDFF54"/>
<path d="M27.973 20.5938C27.973 20.5938 27.3543 21.1563 27.4668 21.6625C27.5793 22.1688 28.1418 21.55 27.973 20.5938Z" fill="#EEF8FB"/>
<path d="M30.5617 22.3875C30.843 21.9375 29.043 21.375 29.043 21.375C29.3805 21.825 30.2805 22.7812 30.5617 22.3875Z" fill="#EDFF54"/>
<path d="M28.4812 22.4453C28.9312 21.7703 27.1875 22.1078 27.1875 22.1078C27.1875 22.1078 28.3125 22.7266 28.4812 22.4453Z" fill="#F361F5"/>
<path d="M29.1558 22.6156C29.1558 22.6156 28.8183 23.3469 27.5245 23.6281C27.5245 23.6281 27.8058 24.1906 27.5245 25.3156C27.5245 25.3156 28.8183 23.7969 29.5495 25.9906C29.5495 25.9906 30.1683 26.3281 30.6183 24.3031C30.6183 24.3031 30.0558 23.5719 29.887 22.5594C29.9433 22.5594 29.7745 23.8531 29.1558 22.6156ZM28.5933 17.7219C28.5933 17.7219 30.0558 17.2156 29.437 16.0344C29.4933 15.9781 29.6058 15.9219 29.6058 15.9219C28.987 14.9656 29.212 16.3156 29.212 16.3156C29.2683 16.2031 29.3245 16.1469 29.3245 16.0906C29.3245 16.5406 29.2683 17.1594 28.5933 17.7219ZM13.462 13.2219C13.462 13.2219 14.5308 14.7406 14.6433 13.0531C14.6995 12.6594 14.5308 12.6031 14.362 12.6031C14.3058 11.4781 13.5183 11.1406 13.5183 11.1406C13.012 11.4219 13.0683 11.8156 13.0683 11.8156C13.5183 11.8719 13.7995 12.4344 13.9683 12.8844C13.912 13.0531 13.7433 13.2219 13.462 13.2219Z" fill="#FF3333"/>
<path d="M18.3547 8.94687C18.6922 8.27187 17.6797 7.48438 17.6797 7.48438C17.7922 9.11563 18.0172 9.62187 18.3547 8.94687Z" fill="#EDFF54"/>
<path d="M17.5109 8.32812C17.5109 8.32812 17.1172 8.38437 17.1172 9.00312C17.1172 9.00312 17.6234 8.94688 17.5109 8.32812Z" fill="white"/>
</g>
</svg>
