<svg width="153" height="25" viewBox="0 0 153 25" fill="none" xmlns="http://www.w3.org/2000/svg">
<path d="M9.16797 18.0464L15.168 12.0464L9.16797 6.04639" stroke="#FF6B15" stroke-width="2" stroke-linecap="round" stroke-linejoin="round"/>
<path d="M19.168 18.0464L25.168 12.0464L19.168 6.04639" stroke="#FF6B15" stroke-opacity="0.52" stroke-width="2" stroke-linecap="round" stroke-linejoin="round"/>
<path d="M29.168 18.0464L35.168 12.0464L29.168 6.04639" stroke="#FF6B15" stroke-opacity="0.22" stroke-width="2" stroke-linecap="round" stroke-linejoin="round"/>
<path d="M78.5073 10.1444C78.5073 10.9564 78.2273 11.6331 77.6673 12.1744C77.1166 12.7064 76.2719 12.9724 75.1333 12.9724H73.2573V17.0464H71.9833V7.28839H75.1333C76.2346 7.28839 77.0699 7.55439 77.6393 8.08639C78.2179 8.61839 78.5073 9.30439 78.5073 10.1444ZM75.1333 11.9224C75.8426 11.9224 76.3653 11.7684 76.7013 11.4604C77.0373 11.1524 77.2053 10.7137 77.2053 10.1444C77.2053 8.94039 76.5146 8.33839 75.1333 8.33839H73.2573V11.9224H75.1333ZM81.3647 6.68639V17.0464H80.0907V6.68639H81.3647ZM83.06 13.1824C83.06 12.3984 83.2187 11.7124 83.536 11.1244C83.8533 10.5271 84.2873 10.0651 84.838 9.73839C85.398 9.41172 86.0187 9.24839 86.7 9.24839C87.372 9.24839 87.9553 9.39305 88.45 9.68239C88.9447 9.97172 89.3133 10.3357 89.556 10.7744V9.37439H90.844V17.0464H89.556V15.6184C89.304 16.0664 88.926 16.4397 88.422 16.7384C87.9273 17.0277 87.3487 17.1724 86.686 17.1724C86.0047 17.1724 85.3887 17.0044 84.838 16.6684C84.2873 16.3324 83.8533 15.8611 83.536 15.2544C83.2187 14.6477 83.06 13.9571 83.06 13.1824ZM89.556 13.1964C89.556 12.6177 89.4393 12.1137 89.206 11.6844C88.9727 11.2551 88.6553 10.9284 88.254 10.7044C87.862 10.4711 87.428 10.3544 86.952 10.3544C86.476 10.3544 86.042 10.4664 85.65 10.6904C85.258 10.9144 84.9453 11.2411 84.712 11.6704C84.4787 12.0997 84.362 12.6037 84.362 13.1824C84.362 13.7704 84.4787 14.2837 84.712 14.7224C84.9453 15.1517 85.258 15.4831 85.65 15.7164C86.042 15.9404 86.476 16.0524 86.952 16.0524C87.428 16.0524 87.862 15.9404 88.254 15.7164C88.6553 15.4831 88.9727 15.1517 89.206 14.7224C89.4393 14.2837 89.556 13.7751 89.556 13.1964ZM92.5209 13.1964C92.5209 12.4031 92.6796 11.7124 92.9969 11.1244C93.3143 10.5271 93.7529 10.0651 94.3129 9.73839C94.8823 9.41172 95.5309 9.24839 96.2589 9.24839C97.2016 9.24839 97.9763 9.47705 98.5829 9.93439C99.1989 10.3917 99.6049 11.0264 99.8009 11.8384H98.4289C98.2983 11.3717 98.0416 11.0031 97.6589 10.7324C97.2856 10.4617 96.8189 10.3264 96.2589 10.3264C95.5309 10.3264 94.9429 10.5784 94.4949 11.0824C94.0469 11.5771 93.8229 12.2817 93.8229 13.1964C93.8229 14.1204 94.0469 14.8344 94.4949 15.3384C94.9429 15.8424 95.5309 16.0944 96.2589 16.0944C96.8189 16.0944 97.2856 15.9637 97.6589 15.7024C98.0323 15.4411 98.2889 15.0677 98.4289 14.5824H99.8009C99.5956 15.3664 99.1849 15.9964 98.5689 16.4724C97.9529 16.9391 97.1829 17.1724 96.2589 17.1724C95.5309 17.1724 94.8823 17.0091 94.3129 16.6824C93.7529 16.3557 93.3143 15.8937 92.9969 15.2964C92.6796 14.6991 92.5209 13.9991 92.5209 13.1964ZM108.501 12.9164C108.501 13.1591 108.487 13.4157 108.459 13.6864H102.327C102.374 14.4424 102.63 15.0351 103.097 15.4644C103.573 15.8844 104.147 16.0944 104.819 16.0944C105.37 16.0944 105.827 15.9684 106.191 15.7164C106.564 15.4551 106.826 15.1097 106.975 14.6804H108.347C108.142 15.4177 107.731 16.0197 107.115 16.4864C106.499 16.9437 105.734 17.1724 104.819 17.1724C104.091 17.1724 103.438 17.0091 102.859 16.6824C102.29 16.3557 101.842 15.8937 101.515 15.2964C101.188 14.6897 101.025 13.9897 101.025 13.1964C101.025 12.4031 101.184 11.7077 101.501 11.1104C101.818 10.5131 102.262 10.0557 102.831 9.73839C103.41 9.41172 104.072 9.24839 104.819 9.24839C105.547 9.24839 106.191 9.40705 106.751 9.72439C107.311 10.0417 107.74 10.4804 108.039 11.0404C108.347 11.5911 108.501 12.2164 108.501 12.9164ZM107.185 12.6504C107.185 12.1651 107.078 11.7497 106.863 11.4044C106.648 11.0497 106.354 10.7837 105.981 10.6064C105.617 10.4197 105.211 10.3264 104.763 10.3264C104.119 10.3264 103.568 10.5317 103.111 10.9424C102.663 11.3531 102.406 11.9224 102.341 12.6504H107.185ZM118.339 17.1444C117.434 17.1444 116.608 16.9344 115.861 16.5144C115.114 16.0851 114.522 15.4924 114.083 14.7364C113.654 13.9711 113.439 13.1124 113.439 12.1604C113.439 11.2084 113.654 10.3544 114.083 9.59839C114.522 8.83305 115.114 8.24039 115.861 7.82039C116.608 7.39105 117.434 7.17639 118.339 7.17639C119.254 7.17639 120.084 7.39105 120.831 7.82039C121.578 8.24039 122.166 8.82839 122.595 9.58439C123.024 10.3404 123.239 11.1991 123.239 12.1604C123.239 13.1217 123.024 13.9804 122.595 14.7364C122.166 15.4924 121.578 16.0851 120.831 16.5144C120.084 16.9344 119.254 17.1444 118.339 17.1444ZM118.339 16.0384C119.02 16.0384 119.632 15.8797 120.173 15.5624C120.724 15.2451 121.153 14.7924 121.461 14.2044C121.778 13.6164 121.937 12.9351 121.937 12.1604C121.937 11.3764 121.778 10.6951 121.461 10.1164C121.153 9.52839 120.728 9.07572 120.187 8.75839C119.646 8.44105 119.03 8.28239 118.339 8.28239C117.648 8.28239 117.032 8.44105 116.491 8.75839C115.95 9.07572 115.52 9.52839 115.203 10.1164C114.895 10.6951 114.741 11.3764 114.741 12.1604C114.741 12.9351 114.895 13.6164 115.203 14.2044C115.52 14.7924 115.95 15.2451 116.491 15.5624C117.042 15.8797 117.658 16.0384 118.339 16.0384ZM126.195 10.6204C126.419 10.1817 126.736 9.84105 127.147 9.59839C127.567 9.35572 128.075 9.23439 128.673 9.23439V10.5504H128.337C126.909 10.5504 126.195 11.3251 126.195 12.8744V17.0464H124.921V9.37439H126.195V10.6204ZM129.667 13.1824C129.667 12.3984 129.826 11.7124 130.143 11.1244C130.461 10.5271 130.895 10.0651 131.445 9.73839C132.005 9.41172 132.631 9.24839 133.321 9.24839C133.919 9.24839 134.474 9.38839 134.987 9.66839C135.501 9.93905 135.893 10.2984 136.163 10.7464V6.68639H137.451V17.0464H136.163V15.6044C135.911 16.0617 135.538 16.4397 135.043 16.7384C134.549 17.0277 133.97 17.1724 133.307 17.1724C132.626 17.1724 132.005 17.0044 131.445 16.6684C130.895 16.3324 130.461 15.8611 130.143 15.2544C129.826 14.6477 129.667 13.9571 129.667 13.1824ZM136.163 13.1964C136.163 12.6177 136.047 12.1137 135.813 11.6844C135.58 11.2551 135.263 10.9284 134.861 10.7044C134.469 10.4711 134.035 10.3544 133.559 10.3544C133.083 10.3544 132.649 10.4664 132.257 10.6904C131.865 10.9144 131.553 11.2411 131.319 11.6704C131.086 12.0997 130.969 12.6037 130.969 13.1824C130.969 13.7704 131.086 14.2837 131.319 14.7224C131.553 15.1517 131.865 15.4831 132.257 15.7164C132.649 15.9404 133.083 16.0524 133.559 16.0524C134.035 16.0524 134.469 15.9404 134.861 15.7164C135.263 15.4831 135.58 15.1517 135.813 14.7224C136.047 14.2837 136.163 13.7751 136.163 13.1964ZM146.604 12.9164C146.604 13.1591 146.59 13.4157 146.562 13.6864H140.43C140.477 14.4424 140.734 15.0351 141.2 15.4644C141.676 15.8844 142.25 16.0944 142.922 16.0944C143.473 16.0944 143.93 15.9684 144.294 15.7164C144.668 15.4551 144.929 15.1097 145.078 14.6804H146.45C146.245 15.4177 145.834 16.0197 145.218 16.4864C144.602 16.9437 143.837 17.1724 142.922 17.1724C142.194 17.1724 141.541 17.0091 140.962 16.6824C140.393 16.3557 139.945 15.8937 139.618 15.2964C139.292 14.6897 139.128 13.9897 139.128 13.1964C139.128 12.4031 139.287 11.7077 139.604 11.1104C139.922 10.5131 140.365 10.0557 140.934 9.73839C141.513 9.41172 142.176 9.24839 142.922 9.24839C143.65 9.24839 144.294 9.40705 144.854 9.72439C145.414 10.0417 145.844 10.4804 146.142 11.0404C146.45 11.5911 146.604 12.2164 146.604 12.9164ZM145.288 12.6504C145.288 12.1651 145.181 11.7497 144.966 11.4044C144.752 11.0497 144.458 10.7837 144.084 10.6064C143.72 10.4197 143.314 10.3264 142.866 10.3264C142.222 10.3264 141.672 10.5317 141.214 10.9424C140.766 11.3531 140.51 11.9224 140.444 12.6504H145.288ZM149.56 10.6204C149.784 10.1817 150.101 9.84105 150.512 9.59839C150.932 9.35572 151.441 9.23439 152.038 9.23439V10.5504H151.702C150.274 10.5504 149.56 11.3251 149.56 12.8744V17.0464H148.286V9.37439H149.56V10.6204Z" fill="black"/>
</svg>
