<svg width="44" height="44" viewBox="0 0 44 44" fill="none" xmlns="http://www.w3.org/2000/svg">
<g clip-path="url(#clip0_56_1101)">
<rect width="44" height="44" rx="22" fill="#FF6B15"/>
<path d="M22.0001 49.2007L51.6401 31.6839C52.5839 31.1535 53.3951 30.2838 52.4727 29.7144L22.7333 12.568C22.2867 12.2911 21.6101 12.1098 21.1557 12.373L-9.95847 30.432C-10.9023 30.9799 -11.0719 32.5107 -10.1281 33.0586L18.1001 49.1734C18.6919 49.5159 19.3627 49.6986 20.0465 49.7034C20.7302 49.7081 21.4035 49.5349 22.0001 49.2007Z" fill="#FDC018"/>
<path opacity="0.32" d="M11.981 36.7149C9.82232 37.9726 7.60127 39.0939 5.43677 40.3419L9.49667 42.5824L15.8985 38.5908L11.981 36.7149Z" fill="url(#paint0_linear_56_1101)"/>
<path opacity="0.32" d="M29.605 39.3396C27.4463 40.5973 25.2253 41.7186 23.0608 42.9666L27.1187 45.2091L33.5206 41.2174L29.605 39.3396Z" fill="url(#paint1_linear_56_1101)"/>
<path opacity="0.32" d="M24.19 42.5512C22.0313 43.809 19.8103 44.9302 17.6458 46.1782L21.7057 48.4188L28.1075 44.4291L24.19 42.5512Z" fill="url(#paint2_linear_56_1101)"/>
<path opacity="0.32" d="M-0.128679 30.3033C-1.68868 31.212 -3.29548 32.0232 -4.86133 32.926L-1.92658 34.5465L2.70272 31.6605L-0.128679 30.3033Z" fill="url(#paint3_linear_56_1101)"/>
<path opacity="0.32" d="M39.2361 33.3219L30.853 38.8696L18.6733 30.9331L26.2023 26.259" fill="url(#paint4_linear_56_1101)"/>
<path d="M27.2806 -4.44766C29.995 -2.74921 36.82 1.19759 39.1405 2.62499C39.667 2.94869 39.7469 3.43034 39.7567 4.04849L39.745 32.9241C39.6016 33.091 39.4033 33.2011 39.1858 33.2344C38.9683 33.2677 38.746 33.2219 38.5594 33.1054L27.1109 26.6353C26.5415 26.2999 26.093 25.9548 26.093 25.2937L26.2003 -3.93091C26.2003 -4.55881 26.7424 -4.78501 27.2806 -4.44766Z" fill="#68E1FD"/>
<path d="M26.2237 -4.12592L29.9463 -1.98092V-1.17752C29.947 -1.10979 29.9654 -1.04342 29.9996 -0.984952C30.0338 -0.926483 30.0826 -0.877928 30.1413 -0.844065L33.0214 0.819285C33.0602 0.844099 33.1051 0.857875 33.1511 0.859136C33.1971 0.860396 33.2426 0.849093 33.2827 0.826439C33.3228 0.803785 33.356 0.770638 33.3787 0.730555C33.4014 0.690473 33.4127 0.64497 33.4114 0.598935V0.0139346L38.809 3.18268C38.8607 3.21298 38.9036 3.25628 38.9334 3.30828C38.9631 3.36028 38.9787 3.41917 38.9787 3.47908V32.3527C38.9774 32.3932 38.9656 32.4326 38.9445 32.4671C38.9235 32.5016 38.8938 32.5301 38.8585 32.5497C38.8231 32.5694 38.7833 32.5795 38.7428 32.5792C38.7024 32.5788 38.6627 32.568 38.6277 32.5477L26.095 25.2937C26.074 25.5178 26.1142 25.7434 26.2114 25.9464C26.3086 26.1493 26.4591 26.3221 26.6469 26.4462C27.2962 26.8596 38.7057 33.316 38.7057 33.316C38.7057 33.316 39.6085 33.7236 39.8757 32.6472V3.59219C39.8761 3.40435 39.832 3.2191 39.7469 3.05164C39.6618 2.88419 39.5382 2.7393 39.3862 2.62888C38.8675 2.25643 27.228 -4.51592 27.228 -4.51592C27.228 -4.51592 26.409 -4.88837 26.2237 -4.12592Z" fill="#124577"/>
<path d="M17.0295 10.9788C17.1501 10.656 17.2542 10.3273 17.3415 9.99404C17.3805 9.75809 17.1465 8.86109 17.3103 8.81039C17.4741 8.75969 17.6789 9.36809 17.6789 9.36809C17.6789 9.36809 18.1664 8.26829 18.299 8.21564C18.4316 8.16299 18.8274 8.12789 18.923 8.22734C19.0185 8.32679 19.2818 8.96834 19.1648 9.18674C18.912 9.57408 18.6379 9.9471 18.3438 10.3041C18.3009 10.3372 17.7881 11.4409 17.7198 11.4741C17.6516 11.5072 17.0802 11.2264 17.0295 10.9788Z" fill="#FFC9B5"/>
<path d="M11.6807 14.5395C11.6807 14.5395 14.36 13.4806 14.826 13.0965C15.2921 12.7123 16.971 10.7331 16.971 10.7331C16.971 10.7331 17.946 11.0899 17.9343 11.5794C17.9343 11.5794 16.5693 13.8589 15.9356 14.4693C15.3018 15.0796 12.9891 16.6143 12.4821 16.5792C11.9751 16.5441 11.6807 14.5395 11.6807 14.5395Z" fill="#688C03"/>
<path d="M13.3907 36.2235C13.3907 36.2235 14.0303 35.6775 14.7557 35.8881C15.4811 36.0987 15.3251 36.6369 14.8727 36.9742C14.4203 37.3116 12.679 38.4835 12.1427 38.4718C11.6065 38.4601 11.4895 38.0292 11.4778 37.7328C11.5075 37.2754 11.5603 36.8199 11.6357 36.3678" fill="#2C1D1A"/>
<path d="M12.9929 36.1845C12.9956 36.2045 13.0027 36.2237 13.0136 36.2406C13.0246 36.2576 13.0392 36.2719 13.0564 36.2825C13.0735 36.2931 13.0928 36.2998 13.1129 36.3021C13.1329 36.3044 13.1532 36.3022 13.1723 36.2956C13.3669 36.234 13.5577 36.1611 13.7437 36.0772C13.7437 36.0772 14.3618 36.0772 13.9855 36.6954C13.6091 37.3135 12.3124 37.4949 11.9126 37.2648C11.5129 37.0347 11.78 36.3795 11.78 36.3795" fill="#2C1D1A"/>
<path d="M14.8981 37.4305C14.8981 37.4305 15.5377 36.8845 16.2631 37.0951C16.9885 37.3057 16.8325 37.8439 16.3801 38.1813C15.9277 38.5186 14.1863 39.6906 13.6501 39.6789C13.1138 39.6672 12.9968 39.2362 12.9851 38.9398C13.0149 38.4825 13.0676 38.0269 13.1431 37.5748" fill="#2C1D1A"/>
<path d="M14.4983 37.3915C14.501 37.4115 14.5081 37.4307 14.519 37.4477C14.53 37.4646 14.5446 37.4789 14.5617 37.4895C14.5789 37.5002 14.5982 37.5069 14.6182 37.5091C14.6383 37.5114 14.6586 37.5092 14.6777 37.5027C14.8723 37.4411 15.063 37.3682 15.2491 37.2843C15.2491 37.2843 15.8672 37.2843 15.4909 37.9024C15.1145 38.5206 13.8178 38.7019 13.418 38.4718C13.0183 38.2417 13.2854 37.5865 13.2854 37.5865" fill="#FFC9B5"/>
<path d="M15.1751 20.5708C15.3837 21.0427 15.4968 27.7995 15.4169 29.5408C15.3369 31.2822 14.5043 37.3974 14.5043 37.3974C14.5043 37.3974 14.0304 38.1169 13.2309 38.0662C12.4314 38.0155 12.5874 37.372 12.5874 37.372C12.5874 37.372 11.5656 37.8459 11.1191 36.8046C10.9533 36.4146 10.1753 25.6486 10.1753 24.4221C10.202 22.9564 10.6049 21.5221 11.3453 20.2569" fill="#C13D3D"/>
<path d="M12.5816 37.3662C12.5816 37.3662 12.0961 23.7162 12.1585 23.3125C12.2209 22.9089 12.0259 26.3058 12.0395 27.234C12.0551 27.897 12.4451 36.4341 12.5816 37.3662Z" fill="#6D5854"/>
<path d="M15.1749 20.5708C15.1749 20.5708 15.8808 15.7368 14.8766 14.8242C13.8723 13.9116 11.0819 13.2642 10.5612 13.7185C10.0406 14.1729 10.8225 19.2994 11.3412 20.251C11.8599 21.2026 14.7986 20.9413 15.1749 20.5708Z" fill="#8CCC00"/>
<path d="M13.8997 11.2674C13.9231 11.3356 14.4184 13.2174 13.5545 13.4904C12.6907 13.7634 12.5171 12.7318 12.4313 12.6733C12.3455 12.6148 12.0745 12.5232 12.0881 12.3145C12.1018 12.1059 12.4294 12.102 12.4294 12.102C12.4294 12.102 12.5561 11.556 12.9442 11.322C13.3322 11.088 13.8997 11.2674 13.8997 11.2674Z" fill="#FFC9B5"/>
<path d="M13.0924 11.7978C13.0924 11.7978 13.8139 11.8095 14.1259 11.5014C14.1844 11.4412 14.2296 11.3695 14.2589 11.2909C14.2882 11.2123 14.3009 11.1284 14.2961 11.0447C14.2913 10.9609 14.2693 10.8791 14.2312 10.8043C14.1932 10.7295 14.1401 10.6634 14.0752 10.6102C14.0752 10.6102 14.3619 10.0389 13.8237 9.90044C13.8237 9.90044 13.7749 9.37589 12.7024 9.61574C11.6299 9.85559 10.651 10.6141 10.6374 11.595C10.6237 12.5758 10.5516 12.6889 10.2045 12.9132C9.85739 13.1374 9.95294 13.9974 10.8811 14.0325C11.8093 14.0676 13.0749 13.9857 13.1938 13.5274C13.3128 13.0692 12.6088 13.0204 12.5211 12.5524C12.509 12.4654 12.5142 12.3768 12.5364 12.2917C12.5585 12.2066 12.5973 12.1268 12.6503 12.0567C12.7034 11.9866 12.7698 11.9276 12.8456 11.8832C12.9215 11.8388 13.0054 11.8098 13.0924 11.7978Z" fill="#2C1D1A"/>
<path d="M16.5654 19.8747C16.5654 19.8747 17.3084 20.6664 17.5229 20.7522C17.8513 20.9024 18.1669 21.0792 18.4667 21.2806C18.3671 21.3698 18.2788 21.4706 18.2034 21.5809C18.2032 21.5848 18.2032 21.5887 18.2034 21.5926C18.1079 21.5244 18.0416 21.4737 18.0435 21.5088C18.0435 21.6199 18.7748 22.5715 18.8859 22.7158C18.9971 22.8601 18.6909 23.332 18.6909 23.332C18.219 23.49 17.675 23.0122 17.3259 22.6885C16.9769 22.3648 16.815 21.616 16.6941 21.5185C16.5732 21.421 15.5768 20.7639 15.5066 20.5591C15.4364 20.3544 16.5654 19.8747 16.5654 19.8747Z" fill="#FFC9B5"/>
<path d="M15.1028 15.1693C15.2978 15.6003 15.2978 16.0722 15.3797 16.5343C15.444 16.8639 15.5103 17.209 15.5864 17.5425C15.6383 17.8824 15.745 18.2117 15.9023 18.5175C16.1753 18.9718 16.5302 19.3657 16.8402 19.7928C16.9264 19.8856 16.9886 19.9981 17.0216 20.1204C17.0508 20.4187 16.6745 21.2689 15.6312 21.1636C15.104 20.7376 14.6111 20.2708 14.157 19.7674C13.572 19.0791 13.0182 16.7508 13.0748 15.9766C13.1138 15.4501 13.4004 14.8612 13.8996 14.6311C14.0652 14.5637 14.2474 14.5487 14.4218 14.5881C14.5961 14.6275 14.7542 14.7194 14.8746 14.8515C14.968 14.9439 15.0451 15.0513 15.1028 15.1693Z" fill="#8CCC00"/>
<path d="M15.0424 20.6527C15.0424 20.6527 14.1707 19.9117 13.9562 19.4652C13.7417 19.0186 13.4629 18.2152 13.4629 18.2152C13.4629 18.2152 13.8665 20.5377 14.2526 20.8477C14.5213 20.8069 14.7856 20.7416 15.0424 20.6527Z" fill="#2C1D1A"/>
<path d="M-1.51514 26.7699C-1.51514 26.7699 -2.03189 31.2042 0.313955 32.0622C2.65981 32.9202 3.91561 30.6972 3.95071 26.7699" fill="#68E1FD"/>
<path opacity="0.33" d="M-1.51514 26.7699C-1.51514 26.7699 -2.03189 31.2042 0.313955 32.0622C2.65981 32.9202 3.91561 30.6972 3.95071 26.7699" fill="#2E2E75"/>
<path d="M1.21681 28.3494C2.7267 28.3494 3.95071 27.6422 3.95071 26.7699C3.95071 25.8976 2.7267 25.1904 1.21681 25.1904C-0.293082 25.1904 -1.51709 25.8976 -1.51709 26.7699C-1.51709 27.6422 -0.293082 28.3494 1.21681 28.3494Z" fill="#F2696A"/>
<path d="M1.91511 23.254C1.91511 23.254 0.842608 21.7057 1.31061 20.6332C1.31061 20.6332 1.70061 19.9449 2.24271 19.8357C2.24271 19.8357 2.18811 21.304 2.73411 21.1168C3.28011 20.9296 2.73411 19.5802 2.73411 19.5802C2.73411 19.5802 3.30741 18.8002 3.93726 18.8275C4.56711 18.8548 3.93726 20.1925 4.37406 19.978C4.81086 19.7635 4.40136 18.613 4.89276 18.4707C5.34237 18.3675 5.79839 18.2945 6.25776 18.2523C6.25776 18.2523 6.72186 19.5919 6.25776 19.783C5.79366 19.9741 5.10921 20.0404 5.43681 20.3349C5.76441 20.6293 6.69456 20.29 6.69456 20.29C6.69456 20.29 6.75306 21.0447 6.43716 21.3703C6.12126 21.696 4.26096 20.9803 4.59051 21.6238C4.92006 22.2673 6.15051 21.9475 6.15051 21.9475C6.15051 21.9475 5.52261 22.8465 4.78551 23.256C4.04841 23.6655 1.91511 23.254 1.91511 23.254Z" fill="#8CCC00"/>
<path d="M2.16856 27.1306C2.16856 27.1306 1.38856 26.3662 1.54651 25.7071C1.54651 25.7071 1.69276 25.2762 1.99111 25.1553C1.99111 25.1553 2.11591 25.9957 2.40646 25.83C2.69701 25.6642 2.24266 24.9583 2.24266 24.9583C2.24266 24.9583 2.48641 24.4552 2.84521 24.4026C3.20401 24.3499 2.99146 25.1826 3.21571 25.009C3.43996 24.8355 3.08506 24.229 3.35026 24.0964C3.59486 23.99 3.84632 23.9001 4.10296 23.8273C4.10296 23.8273 4.51051 24.5391 4.26676 24.697C4.02301 24.855 3.64276 24.9661 3.85921 25.0987C4.07566 25.2313 4.56901 24.9388 4.56901 24.9388C4.56901 24.9388 4.68211 25.36 4.53781 25.5784C4.39351 25.7968 3.26056 25.5784 3.51601 25.9197C3.77146 26.2609 4.43446 25.9372 4.43446 25.9372C4.28064 26.2711 4.06493 26.5729 3.79876 26.8264C3.42436 27.1365 2.16856 27.1306 2.16856 27.1306Z" fill="#8CCC00"/>
<path d="M-0.68055 25.477C-0.68055 25.477 -2.56425 25.5492 -3.21555 24.58C-3.21555 24.58 -3.588 23.8839 -3.38715 23.3652C-3.38715 23.3652 -2.17815 24.1998 -2.04165 23.6382C-1.90515 23.0766 -3.3384 22.8133 -3.3384 22.8133C-3.3384 22.8133 -3.6855 21.9105 -3.3267 21.3937C-2.9679 20.877 -2.1684 22.1308 -2.1216 21.6433C-2.0748 21.1558 -3.2643 20.8828 -3.11415 20.3953C-2.96147 19.9592 -2.77971 19.5338 -2.5701 19.122C-2.5701 19.122 -1.1895 19.4496 -1.2792 19.9449C-1.3689 20.4402 -1.67895 21.0505 -1.25385 20.9335C-0.82875 20.8165 -0.6201 19.8591 -0.6201 19.8591C-0.6201 19.8591 0.0467997 20.2159 0.159899 20.6566C0.273 21.0973 -1.3416 22.279 -0.6201 22.3512C0.1014 22.4233 0.48945 21.2104 0.48945 21.2104C0.48945 21.2104 0.9087 22.2244 0.858 23.0668C0.8073 23.9092 -0.68055 25.477 -0.68055 25.477Z" fill="#8CCC00"/>
<path d="M5.85601 18.8451C5.65711 19.0141 5.45626 19.1857 5.25346 19.3599C5.27491 19.1473 5.29831 18.9348 5.33341 18.7222C5.35096 18.6111 5.17936 18.5623 5.16181 18.6754C5.11631 18.9588 5.08186 19.2435 5.05846 19.5295C4.53001 19.9917 4.00741 20.4772 3.51991 20.9901C3.47774 20.629 3.46665 20.265 3.48676 19.902C3.48676 19.7869 3.31516 19.7889 3.30931 19.902C3.28646 20.3213 3.30409 20.7419 3.36196 21.1578C3.05068 21.4935 2.75838 21.8464 2.48641 22.2147C2.18022 21.7919 1.97176 21.3063 1.87606 20.7931C1.85461 20.68 1.68106 20.7288 1.70446 20.8399C1.80589 21.3859 2.03065 21.9014 2.36161 22.3473C2.36675 22.3532 2.37265 22.3585 2.37916 22.3629C1.59916 23.4724 1.05901 24.7165 1.01416 26.1576C1.01416 26.2726 1.18771 26.2726 1.19161 26.1576C1.23646 24.7692 1.75126 23.568 2.50201 22.4935C3.22006 22.6838 3.96424 22.7563 4.70551 22.708C4.81861 22.708 4.82056 22.513 4.70551 22.5306C4.0015 22.5759 3.29476 22.5101 2.61121 22.3356C2.98807 21.8261 3.40194 21.3451 3.84946 20.8965H3.86506C4.28041 20.9335 4.69576 20.9706 5.11306 20.9842C5.37643 21.0231 5.64539 20.9922 5.89306 20.8945C5.99446 20.8438 5.90476 20.6898 5.80336 20.7405C5.51671 20.8848 5.11501 20.8087 4.80691 20.7912C4.54366 20.7756 4.28041 20.7541 4.01716 20.7307C4.65091 20.1028 5.33146 19.5178 5.98861 18.9621C6.07051 18.8958 5.94376 18.771 5.85601 18.8451Z" fill="#06577A"/>
<path d="M0.343215 22.3083C0.346153 22.2867 0.341152 22.2648 0.329142 22.2467C0.317133 22.2285 0.298934 22.2154 0.277937 22.2096C0.256941 22.2039 0.234578 22.206 0.215017 22.2156C0.195456 22.2251 0.18003 22.2414 0.171614 22.2615C-0.0208519 22.9184 -0.421971 23.4947 -0.971086 23.9034C-1.17259 23.3444 -1.35719 22.7789 -1.52489 22.2069C-1.09559 21.7786 -0.742753 21.28 -0.481636 20.7327C-0.432886 20.6293 -0.584986 20.5377 -0.635686 20.643C-0.876029 21.1461 -1.19605 21.607 -1.58339 22.008C-1.77839 21.3528 -1.93244 20.6917 -2.07089 20.0248C-2.09429 19.9137 -2.26589 19.9605 -2.24249 20.0716C-2.05399 20.9816 -1.82064 21.8832 -1.54244 22.7763C-1.87927 22.7108 -2.20674 22.6041 -2.51744 22.4584C-2.62079 22.4097 -2.71244 22.5637 -2.60714 22.6125C-2.25058 22.7817 -1.87274 22.9017 -1.48394 22.9693C-1.28894 23.5543 -1.09394 24.1393 -0.859936 24.7048C-1.39272 24.688 -1.91774 24.5723 -2.40824 24.3636C-2.51159 24.3187 -2.60324 24.4728 -2.49794 24.5176C-1.9584 24.7498 -1.37893 24.8749 -0.791685 24.8862C-0.505685 25.5999 -0.191086 26.3019 0.152114 26.9922C0.202814 27.0955 0.347114 27.0039 0.306164 26.9025C-0.151931 25.9845 -0.558805 25.0419 -0.912586 24.0789C-0.308862 23.6446 0.132999 23.0216 0.343215 22.3083Z" fill="#06577A"/>
<path d="M3.56466 24.6093L3.07521 25.4302C3.0149 25.3498 2.96265 25.2635 2.91921 25.1728C2.87046 25.0695 2.72421 25.1592 2.76516 25.2625C2.82097 25.3778 2.88966 25.4864 2.96991 25.5862L2.44731 26.4891C2.38794 26.4326 2.34945 26.3577 2.33811 26.2765C2.32446 26.1634 2.14311 26.1634 2.16066 26.2765C2.17624 26.4192 2.24605 26.5505 2.35566 26.6431L1.69266 27.7566C1.68378 27.7768 1.68264 27.7995 1.68946 27.8205C1.69627 27.8414 1.71057 27.8591 1.72962 27.8702C1.74867 27.8813 1.77114 27.885 1.79274 27.8806C1.81433 27.8762 1.83355 27.864 1.84671 27.8463L2.72226 26.3779C2.86912 26.3805 3.0154 26.3588 3.15516 26.3136C3.26436 26.2785 3.21756 26.1069 3.10836 26.142C3.01911 26.1704 2.92682 26.188 2.83341 26.1946L3.72066 24.7068C3.73359 24.6861 3.73777 24.6611 3.73228 24.6374C3.7268 24.6136 3.7121 24.593 3.69141 24.58C3.67072 24.5671 3.64575 24.5629 3.62198 24.5684C3.59821 24.5739 3.57759 24.5886 3.56466 24.6093Z" fill="#06577A"/>
<path d="M32.4465 19.5054C34.1854 19.196 35.233 16.9106 34.7864 14.4009C34.3398 11.8911 32.5681 10.1075 30.8292 10.4169C29.0903 10.7263 28.0427 13.0117 28.4893 15.5214C28.9359 18.0311 30.7076 19.8148 32.4465 19.5054Z" fill="white"/>
<path d="M33.2573 13.389L30.7906 15.924L30.0593 15.144C29.8643 15.3585 29.8097 15.4131 29.6011 15.6159L30.8374 17.0569L33.6688 13.8784L33.2573 13.389Z" fill="#124577"/>
<path d="M22.5032 1.01039V3.65264C22.5293 3.86058 22.6179 4.05571 22.7571 4.21235C22.8963 4.36899 23.0797 4.47978 23.2832 4.53014C23.9988 4.69199 24.0963 3.75014 24.0963 3.75014V1.80014L22.5032 1.01039Z" fill="#DD842A"/>
<path d="M24.1021 1.81573V4.45408C24.1282 4.66202 24.2167 4.85716 24.356 5.01379C24.4952 5.17043 24.6786 5.28122 24.8821 5.33158C25.5977 5.49344 25.6952 4.55158 25.6952 4.55158V2.60158L24.1021 1.81573Z" fill="#C13D3D"/>
<path d="M25.7227 3.00719V5.64944C25.7488 5.85737 25.8373 6.05251 25.9766 6.20914C26.1158 6.36578 26.2992 6.47658 26.5027 6.52694C27.2183 6.68879 27.3158 5.74694 27.3158 5.74694V3.79694L25.7227 3.00719Z" fill="#DD842A"/>
<path d="M27.3215 3.81255V6.4548C27.3477 6.66273 27.4362 6.85787 27.5755 7.0145C27.7147 7.17114 27.8981 7.28194 28.1015 7.3323C28.8172 7.49415 28.9147 6.5523 28.9147 6.5523V4.6023L27.3215 3.81255Z" fill="#C13D3D"/>
<path d="M28.9207 4.77583V7.41808C28.9468 7.62602 29.0353 7.82115 29.1746 7.97779C29.3138 8.13443 29.4972 8.24522 29.7007 8.29558C30.4163 8.45743 30.5138 7.51558 30.5138 7.51558V5.56558L28.9207 4.77583Z" fill="#DD842A"/>
<path d="M30.5195 5.58315V8.22539C30.5457 8.43333 30.6342 8.62847 30.7735 8.7851C30.9127 8.94174 31.0961 9.05253 31.2995 9.10289C32.0152 9.26474 32.1127 8.32289 32.1127 8.32289V6.37289L30.5195 5.58315Z" fill="#C13D3D"/>
<path d="M32.0933 6.66344V9.30569C32.1194 9.51362 32.208 9.70876 32.3472 9.86539C32.4864 10.022 32.6698 10.1328 32.8733 10.1832C33.5889 10.345 33.6864 9.40319 33.6864 9.40319V7.45319L32.0933 6.66344Z" fill="#DD842A"/>
<path d="M26.2238 -4.12592L22.4895 1.00258C22.4895 1.00258 35.0534 8.65829 35.2289 8.60759C35.4044 8.55689 38.8091 3.18268 38.8091 3.18268L26.2238 -4.12592Z" fill="#8CCC00"/>
<path d="M32.0933 6.79603L35.8899 1.44328L37.3544 2.33833L33.6923 7.74178" fill="#F29D40"/>
<path d="M30.5195 5.8581L34.246 0.509247L35.8898 1.4433L32.0932 6.79605" fill="#E04F4F"/>
<path d="M28.9207 4.9182L32.7934 -0.385803L34.2461 0.509247L30.5216 5.87175" fill="#F29D40"/>
<path d="M27.3215 3.94514L31.0811 -1.34911L32.7932 -0.385806L28.9205 4.90454" fill="#E04F4F"/>
<path d="M25.7012 2.94868L29.297 -2.34557L31.0812 -1.34912L27.3216 3.94513" fill="#F29D40"/>
<path d="M24.1021 1.97954L27.6745 -3.29326L29.2969 -2.34556L25.7011 2.94869" fill="#E04F4F"/>
<path d="M22.5032 1.04549L26.2998 -4.35016L27.7643 -3.45511L24.1022 1.94834" fill="#F29D40"/>
<path d="M38.8091 3.18269C38.8091 3.18269 38.9787 3.21779 38.9787 3.50834V8.60369L34.8271 10.9749L35.4121 7.34399L38.8091 3.18269Z" fill="#AA2B2B"/>
<path d="M33.7 7.74179V10.1091C33.7261 10.317 33.8146 10.5122 33.9539 10.6688C34.0931 10.8254 34.2765 10.9362 34.48 10.9866C35.1956 11.1484 35.2931 10.2066 35.2931 10.2066L35.2619 8.64659L33.7 7.74179Z" fill="#C13D3D"/>
<path d="M35.2599 8.65048L38.8089 3.18268L37.3542 2.33833L33.6921 7.74178" fill="#E04F4F"/>
<path d="M29.5758 23.3242C29.6237 23.4689 29.6474 23.6204 29.646 23.7727C29.646 24.0906 29.5368 24.2622 29.3886 24.2797C29.3003 24.2836 29.213 24.2597 29.139 24.2115C28.9284 24.0818 28.774 23.878 28.7061 23.6401C28.6589 23.4954 28.6359 23.3439 28.6378 23.1916C28.6378 22.8738 28.747 22.7002 28.8952 22.6866C28.9839 22.6817 29.072 22.7049 29.1468 22.7529C29.3569 22.8822 29.5102 23.0864 29.5758 23.3242ZM29.3554 23.9677C29.391 23.9247 29.4174 23.8748 29.4328 23.8211C29.4483 23.7674 29.4525 23.7111 29.4451 23.6557C29.4493 23.5138 29.4199 23.3728 29.3593 23.2443C29.3138 23.1429 29.2391 23.0574 29.1448 22.9986C29.1138 22.9747 29.0757 22.9618 29.0366 22.9618C28.9974 22.9618 28.9594 22.9747 28.9284 22.9986C28.8934 23.0419 28.8676 23.092 28.8525 23.1456C28.8374 23.1992 28.8334 23.2554 28.8406 23.3106C28.8356 23.4524 28.8644 23.5935 28.9245 23.722C28.97 23.8245 29.0454 23.9109 29.1409 23.9697C29.1717 23.9942 29.2098 24.0076 29.2491 24.0076C29.2885 24.0076 29.3266 23.9942 29.3574 23.9697" fill="#225870"/>
<path d="M30.4533 21.3781C30.5015 21.5227 30.5253 21.6743 30.5235 21.8266C30.5235 22.1445 30.4143 22.3161 30.2661 22.3336C30.177 22.3368 30.0891 22.3123 30.0145 22.2634C29.8049 22.134 29.6513 21.9309 29.5836 21.694C29.536 21.5494 29.5129 21.3978 29.5153 21.2455C29.5153 20.9277 29.6245 20.7541 29.7727 20.7405C29.8608 20.7356 29.9482 20.7589 30.0223 20.8068C30.2332 20.9357 30.3872 21.14 30.4533 21.3781ZM30.2329 22.0236C30.2687 21.9803 30.2951 21.93 30.3106 21.876C30.326 21.822 30.3301 21.7653 30.3226 21.7096C30.3272 21.5676 30.2978 21.4265 30.2368 21.2982C30.1915 21.1967 30.1168 21.1111 30.0223 21.0525C29.9912 21.0289 29.9532 21.0162 29.9141 21.0162C29.875 21.0162 29.837 21.0289 29.8059 21.0525C29.7712 21.096 29.7455 21.146 29.7305 21.1996C29.7154 21.2532 29.7112 21.3093 29.7181 21.3645C29.7137 21.5069 29.7424 21.6484 29.802 21.7779C29.8481 21.8795 29.9235 21.965 30.0184 22.0236C30.0493 22.0478 30.0874 22.0609 30.1266 22.0609C30.1659 22.0609 30.204 22.0478 30.2349 22.0236" fill="#225870"/>
<path d="M31.2177 22.3005L31.5121 23.1078L31.2898 22.981L31.0051 22.201L30.9018 22.1425V22.7587L30.7068 22.6437V21.2182L31.0968 21.4425C31.1973 21.503 31.2802 21.5889 31.337 21.6916C31.3938 21.7943 31.4226 21.9101 31.4205 22.0275C31.4185 22.2225 31.3464 22.3239 31.2177 22.3005ZM31.0948 22.006C31.1806 22.0548 31.2216 22.0275 31.2216 21.9183C31.2252 21.8717 31.2154 21.8251 31.1932 21.7839C31.1711 21.7428 31.1376 21.7089 31.0968 21.6862L30.9018 21.577V21.8968L31.0968 22.006" fill="#225870"/>
<path d="M31.9938 21.9573C32.1552 22.067 32.2855 22.2166 32.3719 22.3916C32.4584 22.5665 32.4981 22.7609 32.4872 22.9557C32.4872 23.453 32.2376 23.5271 31.986 23.3828L31.6506 23.1878V21.7623L31.9938 21.9573ZM32.1674 23.1487C32.2415 23.1253 32.2844 23.02 32.2863 22.8387C32.2931 22.683 32.253 22.5288 32.1713 22.396C32.1104 22.301 32.0275 22.222 31.9295 22.166L31.8554 22.123V23.0591L31.9295 23.102C31.9641 23.1266 32.0036 23.1436 32.0453 23.1517C32.087 23.1597 32.13 23.1587 32.1713 23.1487" fill="#225870"/>
<path d="M33.3334 22.7275L33.3314 22.9713L32.8693 22.7041L32.8673 23.0044L33.2379 23.217V23.4627L32.8654 23.2482L32.8635 23.6421L33.3432 23.917L33.3412 24.1608L32.6646 23.7708L32.6704 22.3473L33.3334 22.7275Z" fill="#225870"/>
<path d="M34.0412 23.9248L34.3356 24.7321L34.1133 24.6054L33.8286 23.8254L33.7233 23.7649V24.3811L33.5283 24.268V22.8426L33.9183 23.0668C34.0189 23.1274 34.1017 23.2133 34.1585 23.316C34.2153 23.4187 34.2441 23.5345 34.242 23.6518C34.242 23.8449 34.1699 23.9541 34.0412 23.9248ZM33.9183 23.6304C34.0041 23.6791 34.0451 23.6518 34.0451 23.5426C34.0487 23.4961 34.0389 23.4494 34.0167 23.4083C33.9946 23.3672 33.9611 23.3332 33.9203 23.3106L33.7253 23.1994V23.5192L33.9203 23.6304" fill="#225870"/>
<path d="M28.0449 22.1269C28.1648 22.2013 28.2666 22.3015 28.3429 22.4203C28.4191 22.539 28.4679 22.6733 28.4856 22.8133L28.3062 22.7724C28.2925 22.6908 28.2621 22.613 28.2168 22.5439C28.1714 22.4747 28.1122 22.4158 28.0429 22.3707C28.0114 22.3462 27.9727 22.3329 27.9328 22.3329C27.8928 22.3329 27.8541 22.3462 27.8226 22.3707C27.7542 22.4594 27.7233 22.5715 27.7368 22.6827C27.7331 22.8238 27.7618 22.9639 27.8206 23.0922C27.8666 23.1955 27.9428 23.2825 28.039 23.3418C28.1677 23.4159 28.2555 23.3847 28.3042 23.2462L28.4836 23.41C28.431 23.6557 28.2711 23.7201 28.0371 23.5855C27.883 23.4921 27.7585 23.3569 27.6783 23.1955C27.5797 23.0039 27.5301 22.7909 27.534 22.5754C27.5232 22.4939 27.5311 22.4109 27.5571 22.3329C27.5831 22.2549 27.6266 22.1838 27.6841 22.125C27.7369 22.0876 27.8001 22.0677 27.8648 22.0681C27.9295 22.0684 27.9925 22.089 28.0449 22.1269Z" fill="#225870"/>
<path d="M30.81 23.7279L30.8041 25.1533L30.6052 25.0383L30.6091 24.1588L30.4005 24.7887L30.2562 24.7068L30.0553 23.841L30.0514 24.7204L29.8525 24.6054L29.8603 23.1819L30.0826 23.3106L30.3303 24.3421L30.5877 23.5992L30.81 23.7279Z" fill="#225870"/>
<path d="M31.4342 24.0847C31.5405 24.1499 31.6274 24.2423 31.686 24.3524C31.7446 24.4624 31.7728 24.5861 31.7676 24.7107C31.7676 24.97 31.6487 25.0753 31.4303 24.9505L31.2255 24.8316V25.3912L31.0305 25.2781V23.8527L31.4342 24.0847ZM31.4225 24.7029C31.5161 24.7555 31.5629 24.7204 31.5648 24.5937C31.5693 24.5399 31.5585 24.4859 31.5337 24.4379C31.5089 24.39 31.471 24.35 31.4244 24.3226L31.2294 24.2095V24.5878L31.4244 24.7009" fill="#225870"/>
<path d="M32.1498 24.4962L32.144 25.6779L32.5964 25.9392V26.1829L31.9431 25.8066L31.9509 24.3831L32.1498 24.4962Z" fill="#225870"/>
<path d="M33.4445 25.2411L33.4425 25.4848L32.9784 25.2196V25.518L33.3489 25.7325L33.347 25.9762L32.9765 25.7617L32.9745 26.1556L33.4523 26.4306V26.6743L32.7756 26.2863L32.7815 24.8608L33.4445 25.2411Z" fill="#225870"/>
<path d="M34.3981 25.789V26.0347L34.1017 25.8631L34.0959 27.0448L33.897 26.9298L33.9028 25.75L33.6064 25.5804L33.6084 25.3347L34.3981 25.789Z" fill="#225870"/>
<path d="M35.2328 26.2687L35.2309 26.5144L34.7687 26.2473L34.7668 26.5456L35.1392 26.7601L35.1373 27.0039L34.7648 26.7913L34.7629 27.1833L35.2426 27.4582L35.2406 27.702L34.564 27.3139L34.5718 25.8885L35.2328 26.2687Z" fill="#225870"/>
<path d="M35.7651 26.5749C35.9268 26.6844 36.0574 26.8339 36.1442 27.0088C36.231 27.1838 36.2711 27.3783 36.2604 27.5733C36.2604 28.0705 36.0108 28.1446 35.7573 28.0003L35.4219 27.8053V26.3799L35.7651 26.5749ZM35.9386 27.7663C36.0127 27.7429 36.0576 27.6396 36.0595 27.4563C36.0657 27.3004 36.0249 27.1462 35.9425 27.0136C35.8823 26.9187 35.8 26.8397 35.7027 26.7835L35.6286 26.7406V27.6766L35.7027 27.7195C35.7372 27.7444 35.7766 27.7615 35.8184 27.7696C35.8602 27.7777 35.9032 27.7766 35.9445 27.7663" fill="#225870"/>
<path d="M33.2261 41.3793V37.8595L36.3773 36.1045V39.597L33.2261 41.3793Z" fill="#B24F28"/>
<path d="M33.2261 37.8595L30.1607 36.1045C30.1607 36.1045 30.0749 39.6535 30.1607 39.7101C30.2465 39.7666 33.2261 41.3851 33.2261 41.3851V37.8595Z" fill="#C96336"/>
<path d="M30.1587 36.0987L33.226 34.2247L36.3772 36.0987L33.226 37.8595L30.1587 36.0987Z" fill="#DB7D58"/>
<path d="M31.3269 35.385L34.5191 37.1361V38.9749L35.4375 38.5108V36.6232L32.2454 34.8234L31.3269 35.385Z" fill="#FDEDCB"/>
<path d="M25.0673 29.2366C22.9223 29.3848 23.0257 32.8695 22.8794 34.3066C22.8424 34.6693 23.402 34.7922 23.4391 34.4256C23.56 33.2205 23.48 31.5883 24.1489 30.5256C24.3556 30.198 24.6013 29.8762 25.0244 29.847C25.1542 29.8424 25.2835 29.8646 25.4043 29.9122C25.5251 29.9599 25.6348 30.0319 25.7264 30.1239C25.9214 30.2935 26.015 30.9682 26.0482 31.1691C26.1598 31.9156 26.1723 32.6735 26.0852 33.4233C26.0462 33.786 26.6059 33.9088 26.6449 33.5422C26.7677 32.4171 26.9861 29.104 25.0673 29.2366Z" fill="#8CCC00"/>
<path d="M28.2887 31.5766L28.9361 32.6569L30.2328 32.926L29.2617 36.2742L26.5083 34.4919" fill="#DD842A"/>
<path d="M21.647 35.2485L28.2887 31.5766L28.0742 37.0308L22.9983 37.5163L21.647 35.2485Z" fill="#C13D3D"/>
<path d="M24.0242 36.0577L25.0499 46.3713L31.2587 42.6448L30.233 32.926L24.0242 36.0577Z" fill="#F29D40"/>
<path d="M24.0241 36.0577L23.3221 35.2485H21.6471L20.9451 44.2653L22.7488 45.096L25.0498 46.3713L24.0241 36.0577Z" fill="#DD842A"/>
<path d="M27.8402 30.9624C25.6815 30.9819 25.584 34.4724 25.352 35.9017C25.2935 36.2625 25.8453 36.4165 25.9038 36.0538C26.0988 34.8585 26.1144 33.2244 26.8457 32.2065C27.146 31.7892 27.6705 31.4382 28.1892 31.7112C28.6533 31.9569 28.6592 32.5048 28.704 32.9631C28.7709 33.7149 28.7382 34.4722 28.6065 35.2153C28.5461 35.5761 29.0979 35.7301 29.1584 35.3674C29.3475 34.2364 29.7648 30.9448 27.8402 30.9624Z" fill="#8CCC00"/>
</g>
<defs>
<linearGradient id="paint0_linear_56_1101" x1="14.0811" y1="37.0639" x2="7.74362" y2="41.5255" gradientUnits="userSpaceOnUse">
<stop stop-color="#5B1D5C"/>
<stop offset="1" stop-color="#F7BA1B"/>
</linearGradient>
<linearGradient id="paint1_linear_56_1101" x1="31.7012" y1="39.6867" x2="25.3657" y2="44.1483" gradientUnits="userSpaceOnUse">
<stop stop-color="#5B1D5C"/>
<stop offset="1" stop-color="#F7BA1B"/>
</linearGradient>
<linearGradient id="paint2_linear_56_1101" x1="26.2901" y1="42.9003" x2="19.9546" y2="47.3619" gradientUnits="userSpaceOnUse">
<stop stop-color="#5B1D5C"/>
<stop offset="1" stop-color="#F7BA1B"/>
</linearGradient>
<linearGradient id="paint3_linear_56_1101" x1="1.39037" y1="30.5548" x2="-3.19213" y2="33.7821" gradientUnits="userSpaceOnUse">
<stop stop-color="#5B1D5C"/>
<stop offset="1" stop-color="#F7BA1B"/>
</linearGradient>
<linearGradient id="paint4_linear_56_1101" x1="30.1062" y1="30.4242" x2="26.7775" y2="35.3479" gradientUnits="userSpaceOnUse">
<stop stop-color="#5B1D5C"/>
<stop offset="1" stop-color="#F7BA1B"/>
</linearGradient>
<clipPath id="clip0_56_1101">
<rect width="44" height="44" rx="22" fill="white"/>
</clipPath>
</defs>
</svg>
