<svg width="25" height="25" viewBox="0 0 25 25" fill="none" xmlns="http://www.w3.org/2000/svg">
<path d="M12.2203 13.28C12.1503 13.27 12.0603 13.27 11.9803 13.28C10.2203 13.22 8.82031 11.78 8.82031 10.01C8.82031 8.20001 10.2803 6.73001 12.1003 6.73001C13.9103 6.73001 15.3803 8.20001 15.3803 10.01C15.3703 11.78 13.9803 13.22 12.2203 13.28Z" stroke="#9CA3AF" stroke-width="1.5" stroke-linecap="round" stroke-linejoin="round"/>
<path d="M18.8399 19.88C17.0599 21.51 14.6999 22.5 12.0999 22.5C9.49986 22.5 7.13986 21.51 5.35986 19.88C5.45986 18.94 6.05986 18.02 7.12986 17.3C9.86986 15.48 14.3499 15.48 17.0699 17.3C18.1399 18.02 18.7399 18.94 18.8399 19.88Z" stroke="#9CA3AF" stroke-width="1.5" stroke-linecap="round" stroke-linejoin="round"/>
<path d="M12.1001 22.5C17.6229 22.5 22.1001 18.0228 22.1001 12.5C22.1001 6.97715 17.6229 2.5 12.1001 2.5C6.57725 2.5 2.1001 6.97715 2.1001 12.5C2.1001 18.0228 6.57725 22.5 12.1001 22.5Z" stroke="#9CA3AF" stroke-width="1.5" stroke-linecap="round" stroke-linejoin="round"/>
</svg>
