<svg width="25" height="25" viewBox="0 0 25 25" fill="none" xmlns="http://www.w3.org/2000/svg">
<path d="M16.4898 2.5H8.1098C4.4698 2.5 2.2998 4.67 2.2998 8.31V16.68C2.2998 20.33 4.4698 22.5 8.1098 22.5H16.4798C20.1198 22.5 22.2898 20.33 22.2898 16.69V8.31C22.2998 4.67 20.1298 2.5 16.4898 2.5ZM12.2998 18.75C10.5098 18.75 9.1098 17.86 8.1598 16.98V17.69C8.1598 18.1 7.8198 18.44 7.4098 18.44C6.9998 18.44 6.6598 18.1 6.6598 17.69V14.94C6.6598 14.53 6.9998 14.19 7.4098 14.19H9.8898C10.2998 14.19 10.6398 14.53 10.6398 14.94C10.6398 15.35 10.2998 15.69 9.8898 15.69H8.9898C9.7298 16.43 10.8798 17.25 12.2998 17.25C14.9198 17.25 17.0498 15.12 17.0498 12.5C17.0498 12.09 17.3898 11.75 17.7998 11.75C18.2098 11.75 18.5498 12.09 18.5498 12.5C18.5498 15.95 15.7498 18.75 12.2998 18.75ZM18.5498 10.04C18.5498 10.07 18.5498 10.1 18.5498 10.12C18.5398 10.23 18.5098 10.33 18.4598 10.42C18.4098 10.51 18.3398 10.59 18.2498 10.66C18.1798 10.71 18.0998 10.75 18.0098 10.78C17.9398 10.8 17.8698 10.81 17.7998 10.81H15.3698C14.9598 10.81 14.6198 10.47 14.6198 10.06C14.6198 9.65 14.9598 9.31 15.3698 9.31H16.1998C15.3998 8.57 14.1098 7.75 12.3198 7.75C9.69981 7.75 7.5698 9.88 7.5698 12.5C7.5698 12.91 7.2298 13.25 6.8198 13.25C6.4098 13.25 6.0498 12.91 6.0498 12.5C6.0498 9.05 8.8498 6.25 12.2998 6.25C14.4498 6.25 16.0298 7.18 17.0498 8.07V7.31C17.0498 6.9 17.3898 6.56 17.7998 6.56C18.2098 6.56 18.5498 6.9 18.5498 7.31V10.04Z" fill="#FF6B15"/>
</svg>
