<svg width="25" height="25" viewBox="0 0 25 25" fill="none" xmlns="http://www.w3.org/2000/svg">
<path d="M15.6875 10.312C16.2398 10.312 16.6875 9.8643 16.6875 9.31201C16.6875 8.75973 16.2398 8.31201 15.6875 8.31201C15.1352 8.31201 14.6875 8.75973 14.6875 9.31201C14.6875 9.8643 15.1352 10.312 15.6875 10.312Z" fill="white"/>
<path d="M9.6875 10.312C10.2398 10.312 10.6875 9.8643 10.6875 9.31201C10.6875 8.75973 10.2398 8.31201 9.6875 8.31201C9.13522 8.31201 8.6875 8.75973 8.6875 9.31201C8.6875 9.8643 9.13522 10.312 9.6875 10.312Z" fill="white"/>
<path d="M9.68757 6.31201V5.31201C9.68757 4.51636 10.0036 3.7533 10.5662 3.19069C11.1289 2.62808 11.8919 2.31201 12.6876 2.31201C13.4832 2.31201 14.2463 2.62808 14.8089 3.19069C15.3715 3.7533 15.6876 4.51636 15.6876 5.31201V6.31201M20.9116 12.838C20.3256 9.71701 20.0336 8.15601 18.9216 7.23401C17.8126 6.31201 16.2246 6.31201 13.0476 6.31201H12.3276C9.15157 6.31201 7.56357 6.31201 6.45257 7.23401C5.34257 8.15601 5.04957 9.71701 4.46357 12.838C3.64057 17.227 3.22957 19.421 4.42957 20.867C5.62957 22.312 7.86157 22.312 12.3266 22.312H13.0486C17.5136 22.312 19.7466 22.312 20.9456 20.867C21.6416 20.027 21.7956 18.937 21.6416 17.312" stroke="white" stroke-width="1.5" stroke-linecap="round"/>
</svg>
