<svg width="25" height="24" viewBox="0 0 25 24" fill="none" xmlns="http://www.w3.org/2000/svg">
<path d="M15.168 10C15.7203 10 16.168 9.55228 16.168 9C16.168 8.44772 15.7203 8 15.168 8C14.6157 8 14.168 8.44772 14.168 9C14.168 9.55228 14.6157 10 15.168 10Z" fill="white"/>
<path d="M9.16797 10C9.72025 10 10.168 9.55228 10.168 9C10.168 8.44772 9.72025 8 9.16797 8C8.61568 8 8.16797 8.44772 8.16797 9C8.16797 9.55228 8.61568 10 9.16797 10Z" fill="white"/>
<path d="M9.16791 6V5C9.16791 4.20435 9.48398 3.44129 10.0466 2.87868C10.6092 2.31607 11.3723 2 12.1679 2C12.9636 2 13.7266 2.31607 14.2892 2.87868C14.8518 3.44129 15.1679 4.20435 15.1679 5V6M20.3919 12.526C19.8059 9.405 19.5139 7.844 18.4019 6.922C17.2929 6 15.7049 6 12.5279 6H11.8079C8.63191 6 7.04391 6 5.93291 6.922C4.82291 7.844 4.52991 9.405 3.94391 12.526C3.12091 16.915 2.70991 19.109 3.90991 20.555C5.10991 22 7.34191 22 11.8069 22H12.5289C16.9939 22 19.2269 22 20.4259 20.555C21.1219 19.715 21.2759 18.625 21.1219 17" stroke="white" stroke-width="1.5" stroke-linecap="round"/>
</svg>
