<svg width="29" height="28" viewBox="0 0 29 28" fill="none" xmlns="http://www.w3.org/2000/svg">
<path d="M14.1868 4.66666C15.4245 4.66666 16.6115 5.15832 17.4867 6.03349C18.3618 6.90866 18.8535 8.09565 18.8535 9.33332C18.8535 10.571 18.3618 11.758 17.4867 12.6332C16.6115 13.5083 15.4245 14 14.1868 14C12.9492 14 11.7622 13.5083 10.887 12.6332C10.0118 11.758 9.52018 10.571 9.52018 9.33332C9.52018 8.09565 10.0118 6.90866 10.887 6.03349C11.7622 5.15832 12.9492 4.66666 14.1868 4.66666ZM14.1868 6.99999C13.568 6.99999 12.9745 7.24582 12.5369 7.68341C12.0993 8.12099 11.8535 8.71448 11.8535 9.33332C11.8535 9.95216 12.0993 10.5457 12.5369 10.9832C12.9745 11.4208 13.568 11.6667 14.1868 11.6667C14.8057 11.6667 15.3992 11.4208 15.8368 10.9832C16.2743 10.5457 16.5202 9.95216 16.5202 9.33332C16.5202 8.71448 16.2743 8.12099 15.8368 7.68341C15.3992 7.24582 14.8057 6.99999 14.1868 6.99999ZM14.1868 15.1667C17.3018 15.1667 23.5202 16.7183 23.5202 19.8333V23.3333H4.85352V19.8333C4.85352 16.7183 11.0718 15.1667 14.1868 15.1667ZM14.1868 17.3833C10.7218 17.3833 7.07018 19.0867 7.07018 19.8333V21.1167H21.3035V19.8333C21.3035 19.0867 17.6518 17.3833 14.1868 17.3833Z" fill="#FF6B15"/>
</svg>
