<svg width="26" height="26" viewBox="0 0 26 26" fill="none" xmlns="http://www.w3.org/2000/svg">
<path d="M17.875 6.5V7.3125M17.875 10.5625V11.375M17.875 14.625V15.4375M17.875 18.6875V19.5M8.125 13.8125H13.8125M8.125 16.25H11.375M3.65625 5.6875C2.9835 5.6875 2.4375 6.2335 2.4375 6.90625V10.1844C2.93231 10.4693 3.3433 10.8796 3.62908 11.3739C3.91485 11.8682 4.06532 12.429 4.06532 13C4.06532 13.571 3.91485 14.1318 3.62908 14.6261C3.3433 15.1204 2.93231 15.5307 2.4375 15.8156V19.0938C2.4375 19.7665 2.9835 20.3125 3.65625 20.3125H22.3438C23.0165 20.3125 23.5625 19.7665 23.5625 19.0938V15.8156C23.0677 15.5307 22.6567 15.1204 22.3709 14.6261C22.0851 14.1318 21.9347 13.571 21.9347 13C21.9347 12.429 22.0851 11.8682 22.3709 11.3739C22.6567 10.8796 23.0677 10.4693 23.5625 10.1844V6.90625C23.5625 6.2335 23.0165 5.6875 22.3438 5.6875H3.65625Z" stroke="#FF6B15" stroke-width="2" stroke-linecap="round" stroke-linejoin="round"/>
</svg>
